$MeshFormat
4.1 0 8
$EndMeshFormat
$PhysicalNames
4
1 1 "1"
1 2 "2"
1 3 "3"
1 4 "4"
$EndPhysicalNames
$Entities
16 24 9 0
1 0 0 0 0 
2 15 0 0 0 
3 15 15 0 0 
4 0 15 0 0 
12 5 5 0 0 
13 5 10 0 0 
14 10 10 0 0 
15 10 5 0 0 
16 5 15 0 0 
17 5 0 0 0 
18 10 0 0 0 
19 10 15 0 0 
20 0 10 0 0 
21 15 10 0 0 
22 0 5 0 0 
23 15 5 0 0 
1 0 15 0 5 15 0 1 1 2 4 -16 
2 5 10 0 5 15 0 0 2 16 -13 
3 0 10 0 5 10 0 0 2 13 -20 
4 0 10 0 0 15 0 1 4 2 20 -4 
5 5 15 0 10 15 0 1 1 2 16 -19 
6 10 10 0 10 15 0 0 2 19 -14 
7 5 10 0 10 10 0 0 2 14 -13 
8 10 15 0 15 15 0 1 1 2 19 -3 
9 15 10 0 15 15 0 1 2 2 3 -21 
10 10 10 0 15 10 0 0 2 21 -14 
11 15 5 0 15 10 0 1 2 2 21 -23 
12 10 5 0 15 5 0 0 2 23 -15 
13 10 5 0 10 10 0 0 2 15 -14 
14 5 5 0 10 5 0 0 2 15 -12 
15 5 5 0 5 10 0 0 2 12 -13 
16 0 5 0 5 5 0 0 2 12 -22 
17 0 5 0 0 10 0 1 4 2 22 -20 
18 15 0 0 15 5 0 1 2 2 23 -2 
19 10 0 0 15 0 0 1 3 2 2 -18 
20 5 0 0 10 0 0 1 3 2 18 -17 
21 0 0 0 5 0 0 1 3 2 17 -1 
22 0 0 0 0 5 0 1 4 2 1 -22 
23 5 0 0 5 5 0 0 2 17 -12 
24 10 0 0 10 5 0 0 2 18 -15 
1 0 10 0 5 15 0 1 25 4 1 2 3 4 
2 5 10 0 10 15 0 1 25 4 5 6 7 -2 
3 10 10 0 15 15 0 1 25 4 8 9 10 -6 
4 10 5 0 15 10 0 1 25 4 10 -13 -12 -11 
5 5 5 0 10 10 0 1 25 4 7 -15 -14 13 
6 0 5 0 5 10 0 1 25 4 3 -17 -16 15 
7 10 0 0 15 5 0 1 25 4 12 -24 -19 -18 
8 5 0 0 10 5 0 1 25 4 14 -23 -20 24 
9 0 0 0 5 5 0 1 25 4 16 -22 -21 23 
$EndEntities
$Nodes
49 49 1 49
0 1 0 1
1
0 0 0
0 2 0 1
2
15 0 0
0 3 0 1
3
15 15 0
0 4 0 1
4
0 15 0
0 12 0 1
5
5 5 0
0 13 0 1
6
5 10 0
0 14 0 1
7
10 10 0
0 15 0 1
8
10 5 0
0 16 0 1
9
5 15 0
0 17 0 1
10
5 0 0
0 18 0 1
11
10 0 0
0 19 0 1
12
10 15 0
0 20 0 1
13
0 10 0
0 21 0 1
14
15 10 0
0 22 0 1
15
0 5 0
0 23 0 1
16
15 5 0
1 1 0 1
17
2.499999999996199 15 0
1 2 0 1
18
5 12.5 0
1 3 0 1
19
2.499999999999998 10 0
1 4 0 1
20
0 12.5 0
1 5 0 1
21
7.500000000000002 15 0
1 6 0 1
22
10 12.5 0
1 7 0 1
23
7.499999999999998 10 0
1 8 0 1
24
12.5 15 0
1 9 0 1
25
15 12.5 0
1 10 0 1
26
12.5 10 0
1 11 0 1
27
15 7.499999999999998 0
1 12 0 1
28
12.5 5 0
1 13 0 1
29
10 7.500000000000002 0
1 14 0 1
30
7.499999999999998 5 0
1 15 0 1
31
5 7.500000000000002 0
1 16 0 1
32
2.499999999999998 5 0
1 17 0 1
33
0 7.500000000000002 0
1 18 0 1
34
15 2.499999999999998 0
1 19 0 1
35
12.5 0 0
1 20 0 1
36
7.499999999999998 0 0
1 21 0 1
37
2.499999999999998 0 0
1 22 0 1
38
0 2.499999999996199 0
1 23 0 1
39
5 2.499999999996199 0
1 24 0 1
40
10 2.499999999996199 0
2 1 0 1
41
2.499999999998099 12.5 0
2 2 0 1
42
7.5 12.5 0
2 3 0 1
43
12.5 12.5 0
2 4 0 1
44
12.49999999999999 7.499999999999998 0
2 5 0 1
45
7.499999999999996 7.500000000000001 0
2 6 0 1
46
2.499999999999998 7.500000000000002 0
2 7 0 1
47
12.49999999999999 2.499999999998098 0
2 8 0 1
48
7.499999999999996 2.499999999996199 0
2 9 0 1
49
2.499999999999998 2.499999999996199 0
$EndNodes
$Elements
21 80 1 80
1 1 1 2
1 4 17 
2 17 9 
1 4 1 2
3 13 20 
4 20 4 
1 5 1 2
5 9 21 
6 21 12 
1 8 1 2
7 12 24 
8 24 3 
1 9 1 2
9 3 25 
10 25 14 
1 11 1 2
11 14 27 
12 27 16 
1 17 1 2
13 15 33 
14 33 13 
1 18 1 2
15 16 34 
16 34 2 
1 19 1 2
17 2 35 
18 35 11 
1 20 1 2
19 11 36 
20 36 10 
1 21 1 2
21 10 37 
22 37 1 
1 22 1 2
23 1 38 
24 38 15 
2 1 3 4
25 4 17 41 20 
26 20 41 19 13 
27 17 9 18 41 
28 41 18 6 19 
2 2 3 4
29 9 21 42 18 
30 18 42 23 6 
31 21 12 22 42 
32 42 22 7 23 
2 3 3 4
33 12 24 43 22 
34 22 43 26 7 
35 24 3 25 43 
36 43 25 14 26 
2 4 2 8
37 14 26 27 
38 27 26 44 
39 27 44 16 
40 16 44 28 
41 26 7 44 
42 44 7 29 
43 44 29 28 
44 28 29 8 
2 5 3 4
45 7 23 45 29 
46 29 45 30 8 
47 23 6 31 45 
48 45 31 5 30 
2 6 2 8
49 6 19 31 
50 31 19 46 
51 31 46 5 
52 5 46 32 
53 19 13 46 
54 46 13 33 
55 46 33 32 
56 32 33 15 
2 7 2 8
57 16 28 34 
58 34 28 47 
59 34 47 2 
60 2 47 35 
61 28 8 47 
62 47 8 40 
63 47 40 35 
64 35 40 11 
2 8 2 8
65 8 30 40 
66 40 30 48 
67 40 48 11 
68 11 48 36 
69 30 5 48 
70 48 5 39 
71 48 39 36 
72 36 39 10 
2 9 2 8
73 5 32 39 
74 39 32 49 
75 39 49 10 
76 10 49 37 
77 32 15 49 
78 49 15 38 
79 49 38 37 
80 37 38 1 
$EndElements
