$MeshFormat
2.2 0 8
$EndMeshFormat
$PhysicalNames
5
1 11 "in"
1 22 "out"
1 33 "upper"
1 44 "bottom"
2 1 "domain"
$EndPhysicalNames
$Nodes
732
1 0 0 0
2 1 0 0
3 1 1 0
4 0 1 0
5 0.04166666666658484 0 0
6 0.08333333333317344 0 0
7 0.1249999999997738 0 0
8 0.1666666666663218 0 0
9 0.208333333332867 0 0
10 0.2499999999994123 0 0
11 0.2916666666659576 0 0
12 0.3333333333325028 0 0
13 0.3749999999990479 0 0
14 0.416666666665593 0 0
15 0.4583333333321381 0 0
16 0.499999999998694 0 0
17 0.5416666666654596 0 0
18 0.583333333332236 0 0
19 0.6249999999990125 0 0
20 0.6666666666657888 0 0
21 0.7083333333325652 0 0
22 0.7499999999993415 0 0
23 0.7916666666661181 0 0
24 0.8333333333328944 0 0
25 0.8749999999996708 0 0
26 0.9166666666664472 0 0
27 0.9583333333332237 0 0
28 1 0.0416666666668426 0
29 1 0.08333333333367374 0
30 1 0.1250000000005454 0
31 1 0.1666666666673936 0
32 1 0.2083333333342421 0
33 1 0.25 0
34 1 0.291666666667889 0
35 1 0.3333333333347374 0
36 1 0.3750000000015858 0
37 1 0.4166666666684343 0
38 1 0.4583333333351671 0
39 1 0.5 0
40 1 0.5416666666684207 0
41 1 0.5833333333347602 0
42 1 0.6250000000010997 0
43 1 0.6666666666674392 0
44 1 0.7083333333337789 0
45 1 0.75 0
46 1 0.7916666666666859 0
47 1 0.8333333333330257 0
48 1 0.8749999999993872 0
49 1 0.9166666666661678 0
50 1 0.9583333333329701 0
51 0.9583333333332154 1 0
52 0.9166666666664306 1 0
53 0.8749999999997846 1 0
54 0.833333333332861 1 0
55 0.7916666666658452 1 0
56 0.75 1 0
57 0.7083333333325106 1 0
58 0.6666666666657721 1 0
59 0.6249999999991263 1 0
60 0.5833333333322026 1 0
61 0.541666666665418 1 0
62 0.5 1 0
63 0.4583333333321761 1 0
64 0.4166666666656689 1 0
65 0.3749999999991617 1 0
66 0.3333333333326545 1 0
67 0.2916666666661472 1 0
68 0.25 1 0
69 0.2083333333329049 1 0
70 0.1666666666663976 1 0
71 0.1249999999998876 1 0
72 0.08333333333332515 1 0
73 0.04166666666677443 1 0
74 0 0.9583333333331597 0
75 0 0.9166666666663195 0
76 0 0.874999999999501 0
77 0 0.8333333333331016 0
78 0 0.7916666666667239 0
79 0 0.7500000000003463 0
80 0 0.7083333333339685 0
81 0 0.6666666666675909 0
82 0 0.6250000000012135 0
83 0 0.5833333333348361 0
84 0 0.5416666666684586 0
85 0 0.5000000000020595 0
86 0 0.4583333333352411 0
87 0 0.4166666666684009 0
88 0 0.3750000000015609 0
89 0 0.3333333333347207 0
90 0 0.2916666666678807 0
91 0 0.2500000000010405 0
92 0 0.2083333333342005 0
93 0 0.1666666666673603 0
94 0 0.1250000000005204 0
95 0 0.0833333333336802 0
96 0 0.04166666666684005 0
97 0.5208333333322859 0.9639156081764557 0
98 0.9639156081768078 0.4791666666682072 0
99 0.03608439182430148 0.4791666666686503 0
100 0.5197321849716883 0.03544864352199513 0
101 0.03442651543206263 0.6444532652051251 0
102 0.9639156081766149 0.6458333333337121 0
103 0.3525452714536177 0.04194776570522381 0
104 0.3525870725986942 0.9622258070891428 0
105 0.9639156081779225 0.3125000000018849 0
106 0.6888590995974418 0.9626817175981097 0
107 0.03608439182449972 0.3125000000013775 0
108 0.687499999999177 0.03608439182444657 0
109 0.2291666666664525 0.9639156081759424 0
110 0.9609890049800499 0.7752757991530347 0
111 0.2284233604788813 0.03542913285073004 0
112 0.03389980641588117 0.7703404518584204 0
113 0.9639156081777142 0.1875000000017818 0
114 0.8128328460027594 0.964257245076505 0
115 0.03608439182450171 0.1875000000007804 0
116 0.8100119715564023 0.03718157411929924 0
117 0.1465715168261506 0.9643417986141164 0
118 0.9629773741363368 0.8545500832921173 0
119 0.6017488230835931 0.9650574234801633 0
120 0.9639156081766862 0.3958333333358108 0
121 0.9639156081761109 0.5625000000013953 0
122 0.4310783433072767 0.9604090894401642 0
123 0.03482241954939086 0.3951432992706722 0
124 0.6067822391506291 0.03324934048094576 0
125 0.4374999999988892 0.03521279202980763 0
126 0.03608439182413357 0.5625000000016463 0
127 0.03568600047160079 0.8548567007303127 0
128 0.1403636262715164 0.03960107471097615 0
129 0.963915608175832 0.104166666667298 0
130 0.8954927909323703 0.9641122204222828 0
131 0.03608439182450176 0.1041666666671003 0
132 0.8994469022816163 0.03734567187385374 0
133 0.03515401268404447 0.9358885360582736 0
134 0.9622626146896722 0.9336739325389596 0
135 0.06331825508586073 0.03669354617815024 0
136 0.9639156081765541 0.5208333333345024 0
137 0.9278312163536689 0.500000000000569 0
138 0.9278312163538707 0.4583333333352632 0
139 0.8917468245304804 0.4791666666677397 0
140 0.891746824529694 0.5208333333334474 0
141 0.8556624327068509 0.5000000000002418 0
142 0.8556624327072118 0.4583333333348427 0
143 0.8195780408836735 0.4791666666674539 0
144 0.8195780408834709 0.5208333333328977 0
145 0.7834936490601448 0.5000000000001672 0
146 0.7834936490601228 0.5416666666658824 0
147 0.7474092572366047 0.5208333333329818 0
148 0.7474092572365879 0.4791666666672749 0
149 0.7113248654130743 0.5000000000000512 0
150 0.7113248654129781 0.5416666666657577 0
151 0.6752404735894191 0.5208333333328639 0
152 0.6752404735894253 0.4791666666671716 0
153 0.6391560817658011 0.4999999999999126 0
154 0.6391560817657469 0.5416666666657804 0
155 0.603071689942049 0.5208333333327235 0
156 0.60307168994218 0.4791666666668828 0
157 0.5669872981184159 0.4999999999997933 0
158 0.566987298118357 0.5416666666656837 0
159 0.5309029062946655 0.5208333333327517 0
160 0.5309029062947099 0.4791666666667778 0
161 0.4948185144709288 0.4999999999997347 0
162 0.4948185144709134 0.5416666666657273 0
163 0.494818514470963 0.4583333333337257 0
164 0.4587341226471227 0.5208333333327104 0
165 0.4587341226471083 0.5624999999987736 0
166 0.4226497308232813 0.5416666666657151 0
167 0.4226497308232679 0.5833333333317872 0
168 0.4587341226470954 0.6041666666648496 0
169 0.4226497308232689 0.6249999999978798 0
170 0.3865653389993951 0.6041666666648474 0
171 0.3865653389994013 0.645833333330961 0
172 0.4587341226471057 0.6458333333308941 0
173 0.3504809471754807 0.6249999999979203 0
174 0.3504809471754964 0.6666666666641063 0
175 0.3143965553515394 0.6458333333310148 0
176 0.3143965553516409 0.6041666666650016 0
177 0.3143965553515568 0.6874999999972163 0
178 0.3504809471755244 0.7083333333303173 0
179 0.3143965553515862 0.7291666666634434 0
180 0.2783121635275794 0.708333333330357 0
181 0.3504809471755673 0.7499999999965051 0
182 0.2783121635276165 0.7499999999966122 0
183 0.2422277717035765 0.729166666663515 0
184 0.2422277717036109 0.7708333333298123 0
185 0.8195780408837907 0.4375000000017597 0
186 0.2422277717035515 0.6874999999972423 0
187 0.2061433798795376 0.7083333333303967 0
188 0.2061433798795054 0.6666666666641049 0
189 0.2783121635276682 0.7916666666628807 0
190 0.4226497308233093 0.4999999999996468 0
191 0.5309029062947848 0.4375000000007624 0
192 0.4948185144710066 0.4166666666676813 0
193 0.5309029062948715 0.3958333333347004 0
194 0.4948185144710463 0.3750000000015845 0
195 0.5309029062949825 0.354166666668567 0
196 0.4948185144710887 0.3333333333354483 0
197 0.4587341226471505 0.3541666666684853 0
198 0.4587341226472064 0.3125000000022891 0
199 0.4226497308231765 0.3333333333353866 0
200 0.530902906295059 0.3125000000024294 0
201 0.4226497308232519 0.2916666666691042 0
202 0.3865653389991684 0.3125000000022427 0
203 0.5669872981189603 0.3333333333355546 0
204 0.5669872981190343 0.2916666666693766 0
205 0.6030716899427975 0.3125000000025322 0
206 0.6030716899430257 0.2708333333363425 0
207 0.639156081766808 0.2916666666694979 0
208 0.386565338999224 0.2708333333359201 0
209 0.3504809471751309 0.2916666666690493 0
210 0.3504809471750919 0.3333333333354094 0
211 0.3143965553510202 0.3125000000022049 0
212 0.3143965553509948 0.3541666666685965 0
213 0.314396555351091 0.2708333333358167 0
214 0.2783121635268873 0.3333333333353785 0
215 0.2783121635268652 0.3750000000017946 0
216 0.4226497308233275 0.250000000002794 0
217 0.6391560817670575 0.2500000000032526 0
218 0.6752404735910559 0.2708333333364294 0
219 0.5669872981192638 0.2500000000031546 0
220 0.2422277717027326 0.354166666668565 0
221 0.2422277717027302 0.3958333333349897 0
222 0.6752404735911487 0.2291666666700847 0
223 0.7113248654152602 0.2500000000033329 0
224 0.7113248654153206 0.2083333333369014 0
225 0.747409257239444 0.2291666666702096 0
226 0.27831216352683 0.4166666666681985 0
227 0.2422277717027229 0.4375000000014045 0
228 0.3865653389992598 0.2291666666695826 0
229 0.4226497308233833 0.2083333333364498 0
230 0.2422277717027556 0.3125000000021161 0
231 0.6752404735901094 0.312500000003038 0
232 0.747409257239348 0.2708333333366211 0
233 0.7834936490634858 0.2500000000035256 0
234 0.8195780408832289 0.5624999999985941 0
235 0.7834936490599858 0.5833333333316519 0
236 0.8195780408833317 0.6041666666646079 0
237 0.7834936490598208 0.6249999999975522 0
238 0.819578040883614 0.6458333333305839 0
239 0.7834936490598827 0.6666666666635664 0
240 0.7474092572359373 0.6458333333304658 0
241 0.7474092572360658 0.6874999999965272 0
242 0.7834936490598869 0.7083333333295995 0
243 0.7474092572360209 0.7291666666626219 0
244 0.711324865412104 0.7083333333295085 0
245 0.7113248654121055 0.7499999999956402 0
246 0.6752404735882213 0.7291666666625263 0
247 0.7834936490598682 0.7499999999957098 0
248 0.6752404735881969 0.7708333333286485 0
249 0.6391560817643422 0.7499999999955197 0
250 0.7113248654120647 0.7916666666617782 0
251 0.6391560817643795 0.7083333333294204 0
252 0.6030716899405176 0.7291666666624134 0
253 0.6030716899405166 0.7708333333285429 0
254 0.5669872981166824 0.7499999999953935 0
255 0.566987298116618 0.7916666666614157 0
256 0.5309029062929107 0.7708333333283318 0
257 0.7834936490636539 0.208333333337117 0
258 0.6391560817672486 0.2083333333369768 0
259 0.2061433798786061 0.4166666666682034 0
260 0.2061433798786288 0.4583333333346123 0
261 0.2061433798785487 0.3333333333353266 0
262 0.2061433798785766 0.2916666666688078 0
263 0.6752404735881845 0.8124999999947968 0
264 0.5310287280906894 0.8122820702476601 0
265 0.2422277717036615 0.8124999999961243 0
266 0.2061433798795675 0.7916666666630114 0
267 0.3865653389992956 0.1875000000032167 0
268 0.7113248654120198 0.8333333333279309 0
269 0.7834936490631074 0.2916666666698972 0
270 0.6030716899405739 0.6874999999963299 0
271 0.8195780408837459 0.7291666666626686 0
272 0.8195780408837365 0.770833333328788 0
273 0.2783121635269583 0.4583333333344789 0
274 0.4948394847688598 0.7916303450367801 0
275 0.8195780408877057 0.2291666666704362 0
276 0.8195780408878666 0.1875000000040534 0
277 0.783493649063809 0.1666666666706868 0
278 0.2783121635277342 0.8333333333290881 0
279 0.3504809471752475 0.3750000000016082 0
280 0.2061433798796141 0.8333333333293607 0
281 0.1700589880554808 0.6874999999972751 0
282 0.1700589880555597 0.6458333333311496 0
283 0.1700589880544927 0.4375000000014229 0
284 0.1700589880545152 0.4791666666678192 0
285 0.2061433798786285 0.5000000000010019 0
286 0.1700589880554985 0.8124999999962231 0
287 0.4944584860372467 0.8321891358398512 0
288 0.5671340902140667 0.8330790819565955 0
289 0.4226497308234403 0.1666666666700744 0
290 0.6030716899427682 0.3541666666687592 0
291 0.4587341226475162 0.187500000003325 0
292 0.3865653389994219 0.5208333333326517 0
293 0.6391560817644183 0.6666666666633437 0
294 0.4948185144706608 0.6249999999977212 0
295 0.2061433798797019 0.6249999999983813 0
296 0.1700589880545441 0.520833333334198 0
297 0.3865653389992583 0.7291666666633813 0
298 0.3865653389991716 0.7708333333293438 0
299 0.8556624327075266 0.4166666666690085 0
300 0.1700589880543234 0.3125000000020622 0
301 0.1700589880543417 0.2708333333355082 0
302 0.2061433798786241 0.2500000000022611 0
303 0.1700589880543724 0.2291666666689364 0
304 0.2061433798786658 0.2083333333356832 0
305 0.1700589880544139 0.1875000000023546 0
306 0.2061433798787114 0.1666666666691095 0
307 0.2422277717029109 0.1875000000026249 0
308 0.1352365685052499 0.2493099659378237 0
309 0.458734122647585 0.1458333333369383 0
310 0.4948185144716644 0.1666666666701979 0
311 0.2422277717029861 0.1458333333361621 0
312 0.6752404735881175 0.8541666666609969 0
313 0.8195780408880513 0.1458333333376124 0
314 0.3865653389993524 0.1458333333368122 0
315 0.1705048082545225 0.8533944834269309 0
316 0.1700589880544573 0.1458333333357675 0
317 0.8195780408840421 0.3958333333360429 0
318 0.8556624327080075 0.3750000000032008 0
319 0.3504809471751776 0.1666666666699799 0
320 0.3865653389994477 0.4791666666665271 0
321 0.60307168994064 0.6458333333302935 0
322 0.4948220095194278 0.749993946391343 0
323 0.8556624327065387 0.6249999999974234 0
324 0.8545758394715643 0.7499999999957243 0
325 0.8543947405988872 0.7916666666618648 0
326 0.8193667588655942 0.8124999999949329 0
327 0.8538957211390912 0.8333333333280246 0
328 0.818940007644162 0.8536325582381586 0
329 0.8556624327118827 0.2083333333373858 0
330 0.8556624327117054 0.2500000000037391 0
331 0.783493649063952 0.1250000000042055 0
332 0.7108965802785618 0.8742581883828822 0
333 0.1349149677559859 0.8332046361235084 0
334 0.1341313248188253 0.7916452171287697 0
335 0.133974596231429 0.6666666666641755 0
336 0.1348406643892271 0.6249999999983462 0
337 0.1339745962303678 0.458333333334639 0
338 0.1339745962303547 0.4166666666682245 0
339 0.1339745962301338 0.166666666669031 0
340 0.1381560279038369 0.8719643847826783 0
341 0.1339745962301763 0.1250000000024127 0
342 0.8538648488436262 0.8718350304205008 0
343 0.3504809471752308 0.1250000000035368 0
344 0.4956820953928981 0.1231392417223184 0
345 0.5310468364493545 0.1455232069568219 0
346 0.2070284956874068 0.8759598778356499 0
347 0.7474092572386328 0.3125000000031682 0
348 0.3504809471756156 0.7916666666626617 0
349 0.3865653389994065 0.8124999999954833 0
350 0.4226497308232086 0.375000000001573 0
351 0.5669872981186818 0.4166666666678016 0
352 0.7474092572396565 0.1458333333372933 0
353 0.7474092572397968 0.1041666666707657 0
354 0.7113248654156323 0.125000000004078 0
355 0.1339745962314352 0.7083333333304634 0
356 0.3504809471756571 0.8333333333287888 0
357 0.3865653389995767 0.8541666666618291 0
358 0.3504809471757346 0.87499999999497 0
359 0.8554813338349279 0.7083333333296273 0
360 0.8915382251042456 0.7289428022991481 0
361 0.4587341226471786 0.4375000000006636 0
362 0.4948185144702924 0.666666666663964 0
363 0.3504809471755765 0.4999999999996568 0
364 0.4948185144715321 0.2083333333365777 0
365 0.6391560817644778 0.6249999999973599 0
366 0.7834936490601573 0.4166666666687099 0
367 0.3504809471755345 0.4583333333337521 0
368 0.2061433798787551 0.54166666666717 0
369 0.2422277717027173 0.5208333333341727 0
370 0.4587341226467432 0.6874999999969191 0
371 0.2422277717033159 0.5624999999999338 0
372 0.2783121635269157 0.5416666666671153 0
373 0.8917468245353822 0.2291666666704887 0
374 0.8917468245315284 0.6874999999965107 0
375 0.8931710178190735 0.814917096779707 0
376 0.8917468245352588 0.2708333333363323 0
377 0.8556624327106662 0.2916666666700526 0
378 0.8917468245327733 0.3125000000032477 0
379 0.8917468245359949 0.1875000000043813 0
380 0.3865653389996493 0.895853346498606 0
381 0.4226497308234443 0.8750033355233999 0
382 0.3859219001760997 0.1038319280332375 0
383 0.1700589880545175 0.1041666666691582 0
384 0.09789020440620276 0.4375000000014508 0
385 0.09875627256511141 0.6874999999973406 0
386 0.1002053969720061 0.8129750068590667 0
387 0.09789020440583543 0.1458333333356878 0
388 0.09843294045290316 0.7284766325996739 0
389 0.6746006358304559 0.8947251018225284 0
390 0.6390494421378793 0.8748152947432912 0
391 0.5321345571064314 0.1032760547039766 0
392 0.5672165616140132 0.1247998769461071 0
393 0.5670317259350355 0.166605922689625 0
394 0.6031173051620698 0.1457898554975244 0
395 0.8202368596166397 0.1053077741816769 0
396 0.8557722358337467 0.1251901845896259 0
397 0.6752404735882132 0.6458333333303651 0
398 0.6752404735885815 0.6041666666644295 0
399 0.2783121635275781 0.6249999999979147 0
400 0.7833520965168664 0.8332443152574904 0
401 0.7811602621545322 0.8716104600761176 0
402 0.3504809471755106 0.5416666666657352 0
403 0.1700589880543821 0.3541666666685641 0
404 0.1339745962300668 0.3333333333353318 0
405 0.3143965553510404 0.1458333333367247 0
406 0.3151162061204724 0.1054131383664323 0
407 0.314396555351129 0.187500000003127 0
408 0.386565338999515 0.4375000000005883 0
409 0.6030716899410724 0.6041666666642627 0
410 0.7834936490608173 0.3750000000028727 0
411 0.7474092572364213 0.3958333333356628 0
412 0.5669872981174042 0.6249999999972689 0
413 0.458738200204279 0.7708262707903826 0
414 0.1700589880548264 0.5625000000002531 0
415 0.1352365685054056 0.5409766326031743 0
416 0.9282929694776918 0.7074360252650924 0
417 0.8917468245308919 0.3958333333363679 0
418 0.9278312163574923 0.2500000000017507 0
419 0.4587341226476483 0.1041666666705391 0
420 0.0978902044062358 0.4791666666678897 0
421 0.1000747898147405 0.395340451860523 0
422 0.09789020440579613 0.1875000000023495 0
423 0.0978902044058706 0.104166666669031 0
424 0.6023913264518402 0.1053838413067421 0
425 0.6390502903888481 0.1251956161369058 0
426 0.6354230984755441 0.08841349346244648 0
427 0.8555022763863296 0.08497454167924337 0
428 0.8910406479786649 0.1056804967809358 0
429 0.06549493697160461 0.7068382595259888 0
430 0.6411495584149597 0.9157329774321348 0
431 0.6008939840775086 0.8982006521799423 0
432 0.7105994014761907 0.9208713244722878 0
433 0.709312388665693 0.07624284037825342 0
434 0.7476267863990962 0.06520607070439734 0
435 0.4239877013516001 0.9162966664875225 0
436 0.4573623285022933 0.8913340273259185 0
437 0.350831968079542 0.9173387609871699 0
438 0.3144550588357241 0.8959453490491756 0
439 0.3144997377614535 0.9371172273259797 0
440 0.2788911763719236 0.9156653355363434 0
441 0.2756671906345049 0.9595905838151579 0
442 0.3891238775319659 0.9373824187207711 0
443 0.4780963905505936 0.9642027881811435 0
444 0.5014125865135515 0.9300895479341503 0
445 0.541511106006102 0.9306401852164129 0
446 0.526315934095516 0.8947488290558266 0
447 0.3143965553514346 0.5208333333330425 0
448 0.7304381195147235 0.9626515380603432 0
449 0.7540670623116197 0.9280325586573657 0
450 0.8541666666658124 0.9639156081756671 0
451 0.8333333333323869 0.9278312163519266 0
452 0.8749432429324486 0.9301565338011819 0
453 0.9169147879137611 0.9294219362452951 0
454 0.8909545346095751 0.8912130773338128 0
455 0.9369774339670937 0.8933924659076504 0
456 0.9176425451293763 0.8545146026128189 0
457 0.9383078770979596 0.8162978979281257 0
458 0.9217010999067514 0.7844328286304525 0
459 0.6439666281443029 0.9583686635763686 0
460 0.96391560817722 0.1458333333355762 0
461 0.9639156081768634 0.3541666666695885 0
462 0.9278312163527148 0.5416666666677565 0
463 0.9278312163523034 0.5833333333340028 0
464 0.8917468245291907 0.562499999999143 0
465 0.9639156081761447 0.6041666666676779 0
466 0.9278312163525682 0.624999999998981 0
467 0.9639156081770487 0.4375000000024333 0
468 0.561734502864403 0.9647684062423241 0
469 0.03537830925989685 0.437458088311753 0
470 0.7113248654122245 0.624999999997391 0
471 0.7474092572371194 0.3541666666696333 0
472 0.7113248654126815 0.3750000000027416 0
473 0.7113248654127343 0.4166666666686043 0
474 0.6752404735887251 0.3958333333356236 0
475 0.6752404735893875 0.3541666666694964 0
476 0.602715431041817 0.8544880603661011 0
477 0.5651484841003342 0.8730920022732831 0
478 0.60304675341659 0.8125079931297557 0
479 0.1876230305819656 0.9639866399155281 0
480 0.1641476614761821 0.9298630100638576 0
481 0.1249999999999154 0.9278312163515759 0
482 0.2069239568914769 0.9217887819179906 0
483 0.7834936490621565 0.3333333333365096 0
484 0.5646108755744242 0.04149032284183776 0
485 0.8917468245310546 0.3541666666705137 0
486 0.03521832366612946 0.520833333335207 0
487 0.06988109488760307 0.5411737851939399 0
488 0.06966443622662256 0.582561152357655 0
489 0.8556624327088551 0.3333333333368583 0
490 0.4789831419387214 0.03496156734702609 0
491 0.496951315984614 0.07661223609749161 0
492 0.03547567175916604 0.3533616269264772 0
493 0.07158972302162538 0.3331187853979134 0
494 0.07216878364900693 0.291666666668067 0
495 0.03608439182458467 0.2708333333345755 0
496 0.0699841982404307 0.2495071185268694 0
497 0.0348542260983521 0.2290845197552511 0
498 0.7113248654145676 0.2916666666699849 0
499 0.4226497308234665 0.8333333333288074 0
500 0.03586293007548493 0.8956797616866862 0
501 0.07158924001797663 0.8752028957892988 0
502 0.06981109536499934 0.9164806976426978 0
503 0.06634635094242647 0.960834266789199 0
504 0.6471817959928704 0.03250365337464087 0
505 0.8549122221745014 0.0426571457829529 0
506 0.4948185144707838 0.5833333333316301 0
507 0.3865653389994591 0.6874999999972293 0
508 0.4226497308229234 0.7083333333300216 0
509 0.3143965553511057 0.3958333333348648 0
510 0.7113248654120452 0.6666666666633998 0
511 0.7474092572362188 0.6041666666645116 0
512 0.8556807332323314 0.1666983641018281 0
513 0.5669872981168318 0.7083333333294918 0
514 0.03608439182449251 0.1458333333339564 0
515 0.2422277717028436 0.2291666666691011 0
516 0.2422277717027941 0.2708333333356024 0
517 0.964717831456127 0.06267655705363881 0
518 0.242227771702726 0.4791666666677775 0
519 0.3958333333323399 0.03608439182423524 0
520 0.4191422360555649 0.07565928269692927 0
521 0.5669872981170929 0.6666666666635811 0
522 0.4587341226474422 0.2291666666696806 0
523 0.4948185144713817 0.2500000000029489 0
524 0.4226497308231503 0.6666666666639841 0
525 0.206508372121099 0.1231392417213393 0
526 0.2424823243577249 0.1038504755787414 0
527 0.2061433798785785 0.3750000000017684 0
528 0.5309342992904527 0.1874381882766329 0
529 0.5669919033680997 0.2083258894769686 0
530 0.4587341226472952 0.2708333333360208 0
531 0.3097932885695642 0.03416902134183325 0
532 0.1700851094867357 0.7708297584075015 0
533 0.2695150242092724 0.03247308739022595 0
534 0.1339745962302432 0.08333333333580104 0
535 0.09954090823186493 0.06251878264034988 0
536 0.8916504790484187 0.1461226186922016 0
537 0.3143965553516269 0.7708333333296553 0
538 0.2422277717036924 0.6458333333312499 0
539 0.1345833162956079 0.4991949602594759 0
540 0.03439192342282888 0.8132228928281091 0
541 0.5309029062945727 0.5624999999986096 0
542 0.1865779283357828 0.03573264323624327 0
543 0.2067054837365872 0.07682175115297346 0
544 0.783434843299665 0.791651830316759 0
545 0.7473994562759435 0.770830860604566 0
546 0.2061477334514255 0.7499994041763004 0
547 0.5669872981188823 0.3750000000016941 0
548 0.6030716899424127 0.3958333333350915 0
549 0.6030716899422506 0.4375000000010998 0
550 0.3143965553513703 0.4375000000009821 0
551 0.1012398006001011 0.6451432992674235 0
552 0.6391519256770448 0.7916679988508522 0
553 0.4219579085582817 0.1236652017907551 0
554 0.7474092572395512 0.1875000000037689 0
555 0.3504809471752154 0.2083333333363706 0
556 0.7473742306920791 0.8124822788049209 0
557 0.2783121635275922 0.6666666666641247 0
558 0.5309034888015083 0.7291656577286557 0
559 0.3507889352103882 0.08572084584323809 0
560 0.6752404735882301 0.6874999999964273 0
561 0.2783121635269937 0.2500000000024831 0
562 0.2783121635269123 0.500000000000794 0
563 0.5669872981184709 0.4583333333338807 0
564 0.1700640672226753 0.7291659715397799 0
565 0.03499229650234793 0.6031179244192679 0
566 0.3865653389992292 0.3541666666684457 0
567 0.5666879545879313 0.08555850639184755 0
568 0.4587341226471371 0.4791666666666831 0
569 0.2423752910049773 0.8543266463023427 0
570 0.1345833162954604 0.2075282935938492 0
571 0.711324865415485 0.1666666666705747 0
572 0.8195478577382557 0.687499999996605 0
573 0.3865653389993994 0.5624999999987594 0
574 0.819578040887081 0.2708333333368091 0
575 0.1346806787946446 0.291624754978765 0
576 0.6752404735913509 0.1875000000038736 0
577 0.7467535474828062 0.8531322666066024 0
578 0.4587341226472021 0.3958333333346087 0
579 0.2783121635269236 0.2916666666689336 0
580 0.786598576783555 0.077219115033428 0
581 0.3504809471751936 0.2500000000027233 0
582 0.1700589880544514 0.3958333333350098 0
583 0.09965461954848832 0.7701038864767267 0
584 0.8556272190372473 0.6666666666635486 0
585 0.3143965553516934 0.812499999995835 0
586 0.3504809471755087 0.5833333333318304 0
587 0.1343904429601771 0.7497591332471525 0
588 0.4948185144711807 0.2916666666692742 0
589 0.7474092572364464 0.5624999999986833 0
590 0.7834936490601681 0.4583333333344882 0
591 0.639156081765804 0.4583333333342692 0
592 0.4226497308233205 0.4583333333336178 0
593 0.3143965553515188 0.5624999999992243 0
594 0.6752404735892149 0.5624999999986171 0
595 0.3144063059323904 0.8541853359488544 0
596 0.6391560817651446 0.5833333333314396 0
597 0.6390740832416055 0.8333576689576323 0
598 0.5309029062951947 0.2708333333362116 0
599 0.1352047619564467 0.3749178530894043 0
600 0.8917468245306597 0.4375000000022239 0
601 0.7474092572365181 0.4375000000015307 0
602 0.4226497308233179 0.4166666666675843 0
603 0.3143965553511 0.2291666666694438 0
604 0.5309089060026541 0.2291551240720824 0
605 0.7113248654129422 0.4583333333343856 0
606 0.2783121635269915 0.2083333333361355 0
607 0.2422277717036478 0.8958333333285631 0
608 0.6030724574846942 0.2291654260267237 0
609 0.2783121635270963 0.1666666666697672 0
610 0.2784446278960662 0.8748815555823943 0
611 0.4586782925506284 0.8123020697199224 0
612 0.4581567957239487 0.8528403031720369 0
613 0.2784745307644429 0.1251550467709202 0
614 0.3865653389994506 0.3958333333344936 0
615 0.7113248654126105 0.5833333333315649 0
616 0.96400131952637 0.7288975289525195 0
617 0.6030774853652201 0.1874931422337775 0
618 0.3504809471753705 0.4166666666677148 0
619 0.6030716899417286 0.5624999999984759 0
620 0.6391470183110453 0.1666908800911392 0
621 0.6752404735892472 0.4375000000014868 0
622 0.927831216353729 0.4166666666692622 0
623 0.3143965553512977 0.4791666666671177 0
624 0.6752213311190349 0.1458699715962445 0
625 0.674676750601881 0.104417486579537 0
626 0.5669872981179017 0.5833333333313721 0
627 0.6391560817662888 0.3333333333359771 0
628 0.2819990584585207 0.08827297684083187 0
629 0.6391560817657838 0.4166666666686039 0
630 0.5309029062941633 0.6041666666645812 0
631 0.4948191940630026 0.7083321562400613 0
632 0.5309029062937523 0.6458333333308024 0
633 0.5309029610493585 0.6874999051571009 0
634 0.7113248654137496 0.3333333333363436 0
635 0.4226411053998468 0.7916325011933887 0
636 0.2783121635279541 0.5833333333325863 0
637 0.4587354980130841 0.7291642844575199 0
638 0.6391560817658852 0.3750000000023389 0
639 0.4226492020730938 0.7499927316273395 0
640 0.2422277717039039 0.6041666666655836 0
641 0.2061433798793806 0.5833333333327162 0
642 0.1702033327483128 0.6041666666655767 0
643 0.135480581898247 0.5832511864205729 0
644 0.85566243270636 0.5416666666659991 0
645 0.8195780408849103 0.3541666666701097 0
646 0.8195780408858165 0.3125000000032047 0
647 0.8556624327057242 0.5833333333316706 0
648 0.891746824528924 0.6041666666646832 0
649 0.9278312163537633 0.3750000000035968 0
650 0.9639156081788893 0.2291666666680291 0
651 0.8917409555850322 0.6458333333309904 0
652 0.9279071970503945 0.6665171153209826 0
653 0.9640195157051785 0.6872806671455873 0
654 0.9278312163570079 0.2083333333364556 0
655 0.9242812957499291 0.0770750997808041 0
656 0.9278312163549544 0.3333333333358323 0
657 0.963915608179327 0.2708333333341884 0
658 0.9278312163562881 0.2916666666688726 0
659 0.9278151587751966 0.1667148808958832 0
660 0.9271031329842101 0.1242655160254498 0
661 0.7717462425215108 0.9642232585485256 0
662 0.5293070572548415 0.8525146273818196 0
663 0.7940666915438681 0.9302635058791107 0
664 0.5800957601996656 0.9328931788278534 0
665 0.9362219364268444 0.9658255533567728 0
666 0.03282415311011788 0.06328261052723555 0
667 0.93786191689728 0.03468699639498265 0
668 0.7699631525284336 0.03516208555628156 0
669 0.815746377178015 0.8950404231136029 0
670 0.06589293073024456 0.7494320939651838 0
671 0.06865774539284691 0.8336818049221019 0
672 0.1009891160461888 0.5194137564531097 0
673 0.06867275260247326 0.3746329161321254 0
674 0.06840198060745079 0.6243514957631697 0
675 0.03296860946819429 0.6870208096773347 0
676 0.1010013902550037 0.2277470897867471 0
677 0.1085957676243431 0.9664727508059859 0
678 0.7452357531006655 0.8915654642361925 0
679 0.106804088492852 0.8981618309234172 0
680 0.06698729811501232 0.4583333333352949 0
681 0.06730429562461941 0.4164013481519698 0
682 0.1023897351529731 0.5619238632823036 0
683 0.06711707041371598 0.7916260228182679 0
684 0.1030953474983025 0.3124572567307255 0
685 0.1026944944904397 0.2703854754381663 0
686 0.0669848108794948 0.1666666666681914 0
687 0.06699569301810089 0.1250000000016011 0
688 0.0668813526074208 0.6658845215727303 0
689 0.1023125084432944 0.6038370234626618 0
690 0.06719867714109475 0.4999170285682382 0
691 0.06718777859046807 0.2082467979814075 0
692 0.03304271393098743 0.7286608247268737 0
693 0.1033879110892507 0.8541984265666787 0
694 0.1030866133546847 0.3541666666687727 0
695 0.4634416353489391 0.9270186924360333 0
696 0.4582621633250876 0.06532250896835876 0
697 0.06610893427938612 0.08263804544724465 0
698 0.172516190659239 0.8916234989509138 0
699 0.7266752481708343 0.03443307564218318 0
700 0.1673964155386277 0.0673879931587637 0
701 0.9287991511506142 0.7464664871636122 0
702 0.4917566209911968 0.8696966449177006 0
703 0.8866509984276513 0.770461347765388 0
704 0.2465753524536012 0.9313587285547995 0
705 0.2534653196511573 0.06564176069248785 0
706 0.6718350646926703 0.9304759569802858 0
707 0.6632343619497096 0.06582374602307745 0
708 0.5355514097386085 0.06841697693509172 0
709 0.3958333333324151 0.971600457109162 0
710 0.8254523813034856 0.06946803015932007 0
711 0.1041666666664736 0.02809292960716396 0
712 0.380846335245602 0.06864884282057278 0
713 0.9724434845586205 0.8946566296808565 0
714 0.3124999999994008 0.9721934468414613 0
715 0.8850366689142082 0.06954659117955797 0
716 0.3187144599666646 0.06997883018010491 0
717 0.598714630278114 0.07004664871768215 0
718 0.9726805028214365 0.8131285554206793 0
719 0.8819057335081484 0.8531626280949727 0
720 0.9694978830178058 0.9694978830177403 0
721 0.0305021169821564 0.969497883017826 0
722 0.9694978830178456 0.03050211698217203 0
723 0.03050211698193451 0.0305021169820029 0
724 0.6130525342725908 0.9337887953515362 0
725 0.09536146394134236 0.9374999999996106 0
726 0.7780552292577401 0.9033024823924779 0
727 0.1437653218378688 0.9039614015543828 0
728 0.5627930536958252 0.9059149695106637 0
729 0.8541666666657224 0.9055021169787779 0
730 0.4883784614713705 0.9012073378425176 0
731 0.2891313419236505 0.0575664030698287 0
732 0.6278402436805826 0.05765140944394557 0
$EndNodes
$Elements
1462
1 1 2 44 1 1 5
2 1 2 44 1 5 6
3 1 2 44 1 6 7
4 1 2 44 1 7 8
5 1 2 44 1 8 9
6 1 2 44 1 9 10
7 1 2 44 1 10 11
8 1 2 44 1 11 12
9 1 2 44 1 12 13
10 1 2 44 1 13 14
11 1 2 44 1 14 15
12 1 2 44 1 15 16
13 1 2 44 1 16 17
14 1 2 44 1 17 18
15 1 2 44 1 18 19
16 1 2 44 1 19 20
17 1 2 44 1 20 21
18 1 2 44 1 21 22
19 1 2 44 1 22 23
20 1 2 44 1 23 24
21 1 2 44 1 24 25
22 1 2 44 1 25 26
23 1 2 44 1 26 27
24 1 2 44 1 27 2
25 1 2 22 2 2 28
26 1 2 22 2 28 29
27 1 2 22 2 29 30
28 1 2 22 2 30 31
29 1 2 22 2 31 32
30 1 2 22 2 32 33
31 1 2 22 2 33 34
32 1 2 22 2 34 35
33 1 2 22 2 35 36
34 1 2 22 2 36 37
35 1 2 22 2 37 38
36 1 2 22 2 38 39
37 1 2 22 2 39 40
38 1 2 22 2 40 41
39 1 2 22 2 41 42
40 1 2 22 2 42 43
41 1 2 22 2 43 44
42 1 2 22 2 44 45
43 1 2 22 2 45 46
44 1 2 22 2 46 47
45 1 2 22 2 47 48
46 1 2 22 2 48 49
47 1 2 22 2 49 50
48 1 2 22 2 50 3
49 1 2 33 3 3 51
50 1 2 33 3 51 52
51 1 2 33 3 52 53
52 1 2 33 3 53 54
53 1 2 33 3 54 55
54 1 2 33 3 55 56
55 1 2 33 3 56 57
56 1 2 33 3 57 58
57 1 2 33 3 58 59
58 1 2 33 3 59 60
59 1 2 33 3 60 61
60 1 2 33 3 61 62
61 1 2 33 3 62 63
62 1 2 33 3 63 64
63 1 2 33 3 64 65
64 1 2 33 3 65 66
65 1 2 33 3 66 67
66 1 2 33 3 67 68
67 1 2 33 3 68 69
68 1 2 33 3 69 70
69 1 2 33 3 70 71
70 1 2 33 3 71 72
71 1 2 33 3 72 73
72 1 2 33 3 73 4
73 1 2 11 4 4 74
74 1 2 11 4 74 75
75 1 2 11 4 75 76
76 1 2 11 4 76 77
77 1 2 11 4 77 78
78 1 2 11 4 78 79
79 1 2 11 4 79 80
80 1 2 11 4 80 81
81 1 2 11 4 81 82
82 1 2 11 4 82 83
83 1 2 11 4 83 84
84 1 2 11 4 84 85
85 1 2 11 4 85 86
86 1 2 11 4 86 87
87 1 2 11 4 87 88
88 1 2 11 4 88 89
89 1 2 11 4 89 90
90 1 2 11 4 90 91
91 1 2 11 4 91 92
92 1 2 11 4 92 93
93 1 2 11 4 93 94
94 1 2 11 4 94 95
95 1 2 11 4 95 96
96 1 2 11 4 96 1
97 2 2 1 1 435 122 442
98 2 2 1 1 655 132 667
99 2 2 1 1 520 419 553
100 2 2 1 1 442 122 709
101 2 2 1 1 344 419 491
102 2 2 1 1 132 655 715
103 2 2 1 1 116 580 668
104 2 2 1 1 128 534 535
105 2 2 1 1 106 432 448
106 2 2 1 1 525 383 543
107 2 2 1 1 433 108 699
108 2 2 1 1 110 457 458
109 2 2 1 1 346 482 698
110 2 2 1 1 134 453 455
111 2 2 1 1 580 116 710
112 2 2 1 1 482 346 607
113 2 2 1 1 526 525 543
114 2 2 1 1 68 109 441
115 2 2 1 1 128 535 711
116 2 2 1 1 391 344 491
117 2 2 1 1 382 520 553
118 2 2 1 1 456 375 457
119 2 2 1 1 457 110 718
120 2 2 1 1 360 701 703
121 2 2 1 1 448 432 449
122 2 2 1 1 72 73 503
123 2 2 1 1 419 520 696
124 2 2 1 1 432 106 706
125 2 2 1 1 108 433 707
126 2 2 1 1 134 455 713
127 2 2 1 1 437 104 439
128 2 2 1 1 67 68 441
129 2 2 1 1 491 419 696
130 2 2 1 1 701 458 703
131 2 2 1 1 434 433 699
132 2 2 1 1 118 455 456
133 2 2 1 1 567 484 717
134 2 2 1 1 457 375 458
135 2 2 1 1 22 668 699
136 2 2 1 1 503 73 721
137 2 2 1 1 482 480 698
138 2 2 1 1 103 559 716
139 2 2 1 1 118 456 457
140 2 2 1 1 580 434 668
141 2 2 1 1 477 446 662
142 2 2 1 1 517 655 667
143 2 2 1 1 427 505 715
144 2 2 1 1 543 383 700
145 2 2 1 1 104 437 442
146 2 2 1 1 375 456 719
147 2 2 1 1 441 109 704
148 2 2 1 1 453 134 665
149 2 2 1 1 484 124 717
150 2 2 1 1 135 535 697
151 2 2 1 1 122 435 695
152 2 2 1 1 505 427 710
153 2 2 1 1 668 434 699
154 2 2 1 1 531 103 716
155 2 2 1 1 446 477 728
156 2 2 1 1 430 459 724
157 2 2 1 1 534 128 700
158 2 2 1 1 439 104 714
159 2 2 1 1 459 430 706
160 2 2 1 1 484 567 708
161 2 2 1 1 559 103 712
162 2 2 1 1 666 135 697
163 2 2 1 1 505 132 715
164 2 2 1 1 448 449 661
165 2 2 1 1 101 674 688
166 2 2 1 1 671 540 683
167 2 2 1 1 672 415 682
168 2 2 1 1 123 673 681
169 2 2 1 1 676 308 685
170 2 2 1 1 670 583 683
171 2 2 1 1 80 675 692
172 2 2 1 1 455 118 713
173 2 2 1 1 504 707 732
174 2 2 1 1 380 435 442
175 2 2 1 1 437 380 442
176 2 2 1 1 39 40 136
177 2 2 1 1 98 39 136
178 2 2 1 1 98 136 137
179 2 2 1 1 498 347 634
180 2 2 1 1 62 63 443
181 2 2 1 1 105 656 658
182 2 2 1 1 97 62 443
183 2 2 1 1 377 378 489
184 2 2 1 1 378 485 489
185 2 2 1 1 656 378 658
186 2 2 1 1 471 347 483
187 2 2 1 1 137 136 462
188 2 2 1 1 410 471 483
189 2 2 1 1 97 443 444
190 2 2 1 1 140 137 462
191 2 2 1 1 562 273 623
192 2 2 1 1 347 471 634
193 2 2 1 1 56 57 448
194 2 2 1 1 463 466 648
195 2 2 1 1 462 463 464
196 2 2 1 1 499 611 612
197 2 2 1 1 42 102 465
198 2 2 1 1 550 509 618
199 2 2 1 1 499 349 635
200 2 2 1 1 447 372 562
201 2 2 1 1 465 102 466
202 2 2 1 1 120 37 467
203 2 2 1 1 611 287 612
204 2 2 1 1 130 53 450
205 2 2 1 1 648 466 651
206 2 2 1 1 119 60 468
207 2 2 1 1 574 377 646
208 2 2 1 1 54 55 114
209 2 2 1 1 463 465 466
210 2 2 1 1 130 450 452
211 2 2 1 1 40 121 136
212 2 2 1 1 31 32 113
213 2 2 1 1 372 447 593
214 2 2 1 1 288 476 477
215 2 2 1 1 450 451 452
216 2 2 1 1 31 113 460
217 2 2 1 1 106 58 459
218 2 2 1 1 255 253 478
219 2 2 1 1 59 60 119
220 2 2 1 1 57 106 448
221 2 2 1 1 36 37 120
222 2 2 1 1 68 69 109
223 2 2 1 1 63 122 443
224 2 2 1 1 41 42 465
225 2 2 1 1 105 35 461
226 2 2 1 1 207 231 627
227 2 2 1 1 470 398 615
228 2 2 1 1 447 562 623
229 2 2 1 1 136 121 462
230 2 2 1 1 154 594 596
231 2 2 1 1 40 41 121
232 2 2 1 1 367 550 618
233 2 2 1 1 99 86 469
234 2 2 1 1 59 119 459
235 2 2 1 1 479 480 482
236 2 2 1 1 240 470 511
237 2 2 1 1 36 120 461
238 2 2 1 1 231 475 627
239 2 2 1 1 470 240 510
240 2 2 1 1 70 117 479
241 2 2 1 1 288 255 478
242 2 2 1 1 235 237 511
243 2 2 1 1 45 46 110
244 2 2 1 1 594 398 596
245 2 2 1 1 92 115 497
246 2 2 1 1 91 92 497
247 2 2 1 1 97 444 445
248 2 2 1 1 63 64 122
249 2 2 1 1 75 76 500
250 2 2 1 1 240 241 510
251 2 2 1 1 76 127 500
252 2 2 1 1 478 253 552
253 2 2 1 1 100 17 484
254 2 2 1 1 98 137 138
255 2 2 1 1 500 501 502
256 2 2 1 1 450 114 451
257 2 2 1 1 85 86 99
258 2 2 1 1 53 54 450
259 2 2 1 1 231 498 634
260 2 2 1 1 237 240 511
261 2 2 1 1 479 117 480
262 2 2 1 1 129 30 460
263 2 2 1 1 30 31 460
264 2 2 1 1 390 476 597
265 2 2 1 1 476 288 478
266 2 2 1 1 508 507 524
267 2 2 1 1 241 244 510
268 2 2 1 1 87 123 469
269 2 2 1 1 655 129 660
270 2 2 1 1 140 462 464
271 2 2 1 1 85 99 486
272 2 2 1 1 495 91 497
273 2 2 1 1 370 508 524
274 2 2 1 1 126 84 486
275 2 2 1 1 500 127 501
276 2 2 1 1 231 218 498
277 2 2 1 1 16 17 100
278 2 2 1 1 512 396 536
279 2 2 1 1 54 114 450
280 2 2 1 1 125 15 490
281 2 2 1 1 121 41 465
282 2 2 1 1 476 478 597
283 2 2 1 1 492 107 493
284 2 2 1 1 528 529 604
285 2 2 1 1 90 91 495
286 2 2 1 1 69 70 479
287 2 2 1 1 58 59 459
288 2 2 1 1 84 85 486
289 2 2 1 1 89 107 492
290 2 2 1 1 16 100 490
291 2 2 1 1 18 124 484
292 2 2 1 1 652 102 653
293 2 2 1 1 86 87 469
294 2 2 1 1 124 19 504
295 2 2 1 1 120 467 622
296 2 2 1 1 390 430 431
297 2 2 1 1 507 171 524
298 2 2 1 1 87 88 123
299 2 2 1 1 476 431 477
300 2 2 1 1 379 512 536
301 2 2 1 1 116 24 505
302 2 2 1 1 126 486 487
303 2 2 1 1 435 381 436
304 2 2 1 1 313 396 512
305 2 2 1 1 57 58 106
306 2 2 1 1 123 88 492
307 2 2 1 1 510 244 560
308 2 2 1 1 275 276 329
309 2 2 1 1 212 279 509
310 2 2 1 1 201 216 530
311 2 2 1 1 227 273 518
312 2 2 1 1 17 18 484
313 2 2 1 1 15 16 490
314 2 2 1 1 390 431 476
315 2 2 1 1 218 223 498
316 2 2 1 1 377 489 646
317 2 2 1 1 244 246 560
318 2 2 1 1 254 253 255
319 2 2 1 1 351 549 563
320 2 2 1 1 351 547 548
321 2 2 1 1 133 500 502
322 2 2 1 1 130 452 453
323 2 2 1 1 18 19 124
324 2 2 1 1 453 452 454
325 2 2 1 1 380 357 381
326 2 2 1 1 133 75 500
327 2 2 1 1 294 630 632
328 2 2 1 1 398 594 615
329 2 2 1 1 357 349 499
330 2 2 1 1 455 454 456
331 2 2 1 1 516 561 579
332 2 2 1 1 23 24 116
333 2 2 1 1 193 195 547
334 2 2 1 1 202 199 566
335 2 2 1 1 549 156 563
336 2 2 1 1 518 273 562
337 2 2 1 1 508 637 639
338 2 2 1 1 232 269 347
339 2 2 1 1 347 269 483
340 2 2 1 1 380 381 435
341 2 2 1 1 165 162 506
342 2 2 1 1 174 171 507
343 2 2 1 1 490 100 491
344 2 2 1 1 330 377 574
345 2 2 1 1 529 219 604
346 2 2 1 1 561 213 579
347 2 2 1 1 35 36 461
348 2 2 1 1 223 225 232
349 2 2 1 1 198 201 530
350 2 2 1 1 351 193 547
351 2 2 1 1 94 131 514
352 2 2 1 1 252 253 254
353 2 2 1 1 376 373 418
354 2 2 1 1 74 75 133
355 2 2 1 1 252 249 253
356 2 2 1 1 256 255 264
357 2 2 1 1 107 90 495
358 2 2 1 1 297 507 508
359 2 2 1 1 181 178 297
360 2 2 1 1 390 389 430
361 2 2 1 1 253 249 552
362 2 2 1 1 381 357 499
363 2 2 1 1 260 227 518
364 2 2 1 1 480 117 481
365 2 2 1 1 373 329 379
366 2 2 1 1 49 50 134
367 2 2 1 1 304 307 515
368 2 2 1 1 199 350 566
369 2 2 1 1 42 43 102
370 2 2 1 1 181 297 298
371 2 2 1 1 252 254 513
372 2 2 1 1 20 108 504
373 2 2 1 1 52 53 130
374 2 2 1 1 221 215 226
375 2 2 1 1 169 168 172
376 2 2 1 1 472 411 473
377 2 2 1 1 226 215 509
378 2 2 1 1 226 509 550
379 2 2 1 1 216 522 530
380 2 2 1 1 215 212 509
381 2 2 1 1 168 165 506
382 2 2 1 1 230 262 516
383 2 2 1 1 65 66 104
384 2 2 1 1 47 48 118
385 2 2 1 1 293 321 365
386 2 2 1 1 453 454 455
387 2 2 1 1 186 538 557
388 2 2 1 1 554 224 571
389 2 2 1 1 552 263 597
390 2 2 1 1 19 20 504
391 2 2 1 1 397 365 398
392 2 2 1 1 172 168 294
393 2 2 1 1 25 132 505
394 2 2 1 1 321 270 521
395 2 2 1 1 412 321 521
396 2 2 1 1 478 552 597
397 2 2 1 1 232 347 498
398 2 2 1 1 262 302 516
399 2 2 1 1 29 129 517
400 2 2 1 1 506 162 541
401 2 2 1 1 24 25 505
402 2 2 1 1 270 252 513
403 2 2 1 1 29 30 129
404 2 2 1 1 178 174 507
405 2 2 1 1 133 502 503
406 2 2 1 1 351 548 549
407 2 2 1 1 159 158 541
408 2 2 1 1 302 515 516
409 2 2 1 1 126 487 488
410 2 2 1 1 293 270 321
411 2 2 1 1 270 513 521
412 2 2 1 1 522 364 523
413 2 2 1 1 203 205 290
414 2 2 1 1 493 107 494
415 2 2 1 1 365 321 409
416 2 2 1 1 371 369 372
417 2 2 1 1 264 255 288
418 2 2 1 1 216 229 522
419 2 2 1 1 227 226 273
420 2 2 1 1 251 270 293
421 2 2 1 1 284 260 285
422 2 2 1 1 302 304 515
423 2 2 1 1 103 13 519
424 2 2 1 1 275 257 276
425 2 2 1 1 248 263 552
426 2 2 1 1 212 210 279
427 2 2 1 1 312 389 390
428 2 2 1 1 251 249 252
429 2 2 1 1 246 248 249
430 2 2 1 1 115 93 514
431 2 2 1 1 254 255 256
432 2 2 1 1 94 95 131
433 2 2 1 1 251 252 270
434 2 2 1 1 246 249 251
435 2 2 1 1 364 310 528
436 2 2 1 1 88 89 492
437 2 2 1 1 519 125 520
438 2 2 1 1 316 383 525
439 2 2 1 1 304 306 307
440 2 2 1 1 109 479 482
441 2 2 1 1 368 369 371
442 2 2 1 1 297 178 507
443 2 2 1 1 109 69 479
444 2 2 1 1 223 232 498
445 2 2 1 1 225 224 554
446 2 2 1 1 89 90 107
447 2 2 1 1 221 226 227
448 2 2 1 1 368 285 369
449 2 2 1 1 291 364 522
450 2 2 1 1 14 15 125
451 2 2 1 1 472 473 474
452 2 2 1 1 229 291 522
453 2 2 1 1 538 399 557
454 2 2 1 1 384 337 420
455 2 2 1 1 167 165 168
456 2 2 1 1 34 35 105
457 2 2 1 1 14 125 519
458 2 2 1 1 247 272 544
459 2 2 1 1 207 218 231
460 2 2 1 1 233 257 275
461 2 2 1 1 179 178 181
462 2 2 1 1 356 349 357
463 2 2 1 1 420 337 539
464 2 2 1 1 296 285 368
465 2 2 1 1 92 93 115
466 2 2 1 1 637 413 639
467 2 2 1 1 293 365 397
468 2 2 1 1 307 306 311
469 2 2 1 1 189 182 537
470 2 2 1 1 248 250 263
471 2 2 1 1 326 328 400
472 2 2 1 1 232 233 269
473 2 2 1 1 372 369 562
474 2 2 1 1 291 310 364
475 2 2 1 1 93 94 514
476 2 2 1 1 195 203 547
477 2 2 1 1 326 327 328
478 2 2 1 1 348 298 349
479 2 2 1 1 397 398 470
480 2 2 1 1 70 71 117
481 2 2 1 1 284 285 296
482 2 2 1 1 223 224 225
483 2 2 1 1 276 313 512
484 2 2 1 1 330 329 373
485 2 2 1 1 162 159 541
486 2 2 1 1 509 279 618
487 2 2 1 1 307 311 609
488 2 2 1 1 296 415 539
489 2 2 1 1 12 103 531
490 2 2 1 1 285 260 518
491 2 2 1 1 274 264 287
492 2 2 1 1 284 296 539
493 2 2 1 1 316 341 383
494 2 2 1 1 172 362 370
495 2 2 1 1 440 439 441
496 2 2 1 1 28 29 517
497 2 2 1 1 547 290 548
498 2 2 1 1 20 21 108
499 2 2 1 1 172 294 362
500 2 2 1 1 232 225 233
501 2 2 1 1 296 368 414
502 2 2 1 1 358 357 380
503 2 2 1 1 345 393 528
504 2 2 1 1 494 495 496
505 2 2 1 1 220 215 221
506 2 2 1 1 310 345 528
507 2 2 1 1 311 526 613
508 2 2 1 1 522 523 530
509 2 2 1 1 283 260 284
510 2 2 1 1 210 202 566
511 2 2 1 1 12 13 103
512 2 2 1 1 304 305 306
513 2 2 1 1 177 174 178
514 2 2 1 1 13 14 519
515 2 2 1 1 256 264 274
516 2 2 1 1 11 12 531
517 2 2 1 1 191 351 563
518 2 2 1 1 369 285 518
519 2 2 1 1 286 333 334
520 2 2 1 1 286 334 532
521 2 2 1 1 311 525 526
522 2 2 1 1 25 26 132
523 2 2 1 1 61 62 97
524 2 2 1 1 313 395 396
525 2 2 1 1 153 151 154
526 2 2 1 1 11 531 533
527 2 2 1 1 345 392 393
528 2 2 1 1 400 328 401
529 2 2 1 1 229 289 291
530 2 2 1 1 230 516 579
531 2 2 1 1 272 326 544
532 2 2 1 1 302 303 304
533 2 2 1 1 259 227 260
534 2 2 1 1 266 286 532
535 2 2 1 1 513 254 558
536 2 2 1 1 246 245 248
537 2 2 1 1 528 393 529
538 2 2 1 1 256 322 558
539 2 2 1 1 409 321 412
540 2 2 1 1 188 282 295
541 2 2 1 1 283 284 337
542 2 2 1 1 188 295 538
543 2 2 1 1 293 397 560
544 2 2 1 1 191 193 351
545 2 2 1 1 267 228 555
546 2 2 1 1 180 183 186
547 2 2 1 1 76 77 127
548 2 2 1 1 266 532 546
549 2 2 1 1 337 284 539
550 2 2 1 1 306 316 525
551 2 2 1 1 334 333 386
552 2 2 1 1 10 11 533
553 2 2 1 1 311 306 525
554 2 2 1 1 291 309 310
555 2 2 1 1 83 84 126
556 2 2 1 1 383 341 534
557 2 2 1 1 247 242 271
558 2 2 1 1 306 305 316
559 2 2 1 1 611 499 635
560 2 2 1 1 324 271 359
561 2 2 1 1 262 301 302
562 2 2 1 1 247 544 545
563 2 2 1 1 81 82 101
564 2 2 1 1 534 423 535
565 2 2 1 1 296 414 415
566 2 2 1 1 126 488 565
567 2 2 1 1 180 186 557
568 2 2 1 1 78 79 112
569 2 2 1 1 186 188 538
570 2 2 1 1 294 168 506
571 2 2 1 1 186 187 188
572 2 2 1 1 203 204 205
573 2 2 1 1 181 298 348
574 2 2 1 1 248 245 250
575 2 2 1 1 360 359 374
576 2 2 1 1 173 175 176
577 2 2 1 1 405 319 407
578 2 2 1 1 374 359 584
579 2 2 1 1 273 226 550
580 2 2 1 1 310 344 345
581 2 2 1 1 203 290 547
582 2 2 1 1 304 303 305
583 2 2 1 1 329 276 512
584 2 2 1 1 188 281 282
585 2 2 1 1 385 388 429
586 2 2 1 1 275 330 574
587 2 2 1 1 243 247 545
588 2 2 1 1 282 335 336
589 2 2 1 1 77 78 540
590 2 2 1 1 239 238 572
591 2 2 1 1 167 168 169
592 2 2 1 1 291 289 309
593 2 2 1 1 157 155 158
594 2 2 1 1 352 554 571
595 2 2 1 1 300 261 403
596 2 2 1 1 184 182 189
597 2 2 1 1 286 315 333
598 2 2 1 1 324 359 360
599 2 2 1 1 247 271 272
600 2 2 1 1 9 10 111
601 2 2 1 1 393 392 394
602 2 2 1 1 275 329 330
603 2 2 1 1 341 423 534
604 2 2 1 1 254 256 558
605 2 2 1 1 214 212 215
606 2 2 1 1 272 325 326
607 2 2 1 1 319 267 555
608 2 2 1 1 243 242 247
609 2 2 1 1 310 309 344
610 2 2 1 1 235 511 589
611 2 2 1 1 244 245 246
612 2 2 1 1 177 178 179
613 2 2 1 1 186 183 187
614 2 2 1 1 233 275 574
615 2 2 1 1 195 200 203
616 2 2 1 1 127 77 540
617 2 2 1 1 246 251 560
618 2 2 1 1 211 210 212
619 2 2 1 1 496 495 497
620 2 2 1 1 111 10 533
621 2 2 1 1 385 355 388
622 2 2 1 1 153 154 155
623 2 2 1 1 199 197 350
624 2 2 1 1 259 260 283
625 2 2 1 1 8 9 542
626 2 2 1 1 266 280 286
627 2 2 1 1 171 169 524
628 2 2 1 1 45 110 616
629 2 2 1 1 282 281 335
630 2 2 1 1 410 366 411
631 2 2 1 1 188 187 281
632 2 2 1 1 221 259 527
633 2 2 1 1 78 112 540
634 2 2 1 1 216 228 229
635 2 2 1 1 220 221 527
636 2 2 1 1 542 111 543
637 2 2 1 1 350 197 578
638 2 2 1 1 83 126 565
639 2 2 1 1 201 208 216
640 2 2 1 1 209 202 210
641 2 2 1 1 471 411 472
642 2 2 1 1 237 239 240
643 2 2 1 1 397 510 560
644 2 2 1 1 7 8 128
645 2 2 1 1 241 243 244
646 2 2 1 1 530 523 588
647 2 2 1 1 345 344 391
648 2 2 1 1 229 267 289
649 2 2 1 1 363 292 402
650 2 2 1 1 265 189 278
651 2 2 1 1 335 281 355
652 2 2 1 1 249 248 552
653 2 2 1 1 278 189 585
654 2 2 1 1 221 227 259
655 2 2 1 1 101 82 565
656 2 2 1 1 494 107 495
657 2 2 1 1 345 391 392
658 2 2 1 1 314 343 382
659 2 2 1 1 335 355 385
660 2 2 1 1 516 515 561
661 2 2 1 1 315 280 346
662 2 2 1 1 377 376 378
663 2 2 1 1 353 352 354
664 2 2 1 1 344 309 419
665 2 2 1 1 265 278 569
666 2 2 1 1 272 324 325
667 2 2 1 1 333 315 340
668 2 2 1 1 276 277 313
669 2 2 1 1 590 148 601
670 2 2 1 1 257 225 554
671 2 2 1 1 302 301 303
672 2 2 1 1 360 374 416
673 2 2 1 1 403 261 527
674 2 2 1 1 286 280 315
675 2 2 1 1 320 367 408
676 2 2 1 1 242 239 572
677 2 2 1 1 326 400 544
678 2 2 1 1 334 583 587
679 2 2 1 1 180 182 183
680 2 2 1 1 184 265 266
681 2 2 1 1 176 175 399
682 2 2 1 1 359 271 572
683 2 2 1 1 182 179 537
684 2 2 1 1 169 172 524
685 2 2 1 1 336 335 551
686 2 2 1 1 341 387 423
687 2 2 1 1 184 189 265
688 2 2 1 1 222 258 576
689 2 2 1 1 266 265 280
690 2 2 1 1 187 183 546
691 2 2 1 1 149 147 150
692 2 2 1 1 322 274 413
693 2 2 1 1 214 215 220
694 2 2 1 1 279 210 566
695 2 2 1 1 316 339 341
696 2 2 1 1 256 274 322
697 2 2 1 1 173 174 175
698 2 2 1 1 280 265 569
699 2 2 1 1 157 158 159
700 2 2 1 1 179 181 537
701 2 2 1 1 183 182 184
702 2 2 1 1 161 159 162
703 2 2 1 1 630 412 632
704 2 2 1 1 438 437 439
705 2 2 1 1 251 293 560
706 2 2 1 1 609 311 613
707 2 2 1 1 9 111 542
708 2 2 1 1 205 206 207
709 2 2 1 1 203 200 204
710 2 2 1 1 407 319 555
711 2 2 1 1 313 331 395
712 2 2 1 1 272 271 324
713 2 2 1 1 338 337 384
714 2 2 1 1 5 6 135
715 2 2 1 1 183 184 546
716 2 2 1 1 289 267 314
717 2 2 1 1 82 83 565
718 2 2 1 1 180 179 182
719 2 2 1 1 343 405 406
720 2 2 1 1 335 385 551
721 2 2 1 1 348 349 356
722 2 2 1 1 175 174 177
723 2 2 1 1 224 222 576
724 2 2 1 1 314 267 319
725 2 2 1 1 170 171 173
726 2 2 1 1 160 163 191
727 2 2 1 1 317 185 366
728 2 2 1 1 229 228 267
729 2 2 1 1 438 439 440
730 2 2 1 1 343 319 405
731 2 2 1 1 173 171 174
732 2 2 1 1 316 305 339
733 2 2 1 1 299 318 417
734 2 2 1 1 184 266 546
735 2 2 1 1 545 544 556
736 2 2 1 1 164 166 190
737 2 2 1 1 300 403 404
738 2 2 1 1 164 165 166
739 2 2 1 1 309 289 553
740 2 2 1 1 177 179 180
741 2 2 1 1 214 220 230
742 2 2 1 1 156 155 157
743 2 2 1 1 196 194 197
744 2 2 1 1 216 208 228
745 2 2 1 1 365 409 596
746 2 2 1 1 166 165 167
747 2 2 1 1 250 245 545
748 2 2 1 1 128 8 542
749 2 2 1 1 389 332 432
750 2 2 1 1 397 470 510
751 2 2 1 1 314 382 553
752 2 2 1 1 149 150 151
753 2 2 1 1 369 518 562
754 2 2 1 1 164 162 165
755 2 2 1 1 314 319 343
756 2 2 1 1 544 400 556
757 2 2 1 1 363 402 447
758 2 2 1 1 263 268 312
759 2 2 1 1 209 210 211
760 2 2 1 1 170 169 171
761 2 2 1 1 472 474 475
762 2 2 1 1 160 159 161
763 2 2 1 1 211 212 214
764 2 2 1 1 328 327 342
765 2 2 1 1 263 250 268
766 2 2 1 1 209 211 213
767 2 2 1 1 161 162 164
768 2 2 1 1 157 159 160
769 2 2 1 1 195 194 196
770 2 2 1 1 283 337 338
771 2 2 1 1 269 233 574
772 2 2 1 1 191 192 193
773 2 2 1 1 172 370 524
774 2 2 1 1 326 325 327
775 2 2 1 1 382 343 559
776 2 2 1 1 245 243 545
777 2 2 1 1 546 532 564
778 2 2 1 1 244 243 245
779 2 2 1 1 153 155 156
780 2 2 1 1 191 163 192
781 2 2 1 1 289 314 553
782 2 2 1 1 354 352 571
783 2 2 1 1 193 192 194
784 2 2 1 1 222 217 258
785 2 2 1 1 394 424 425
786 2 2 1 1 250 545 556
787 2 2 1 1 205 204 206
788 2 2 1 1 379 329 512
789 2 2 1 1 387 339 422
790 2 2 1 1 160 161 163
791 2 2 1 1 230 220 261
792 2 2 1 1 355 281 564
793 2 2 1 1 327 325 375
794 2 2 1 1 419 309 553
795 2 2 1 1 262 300 301
796 2 2 1 1 489 645 646
797 2 2 1 1 193 194 195
798 2 2 1 1 312 390 597
799 2 2 1 1 240 239 241
800 2 2 1 1 230 261 262
801 2 2 1 1 392 391 567
802 2 2 1 1 583 388 587
803 2 2 1 1 192 163 361
804 2 2 1 1 473 411 601
805 2 2 1 1 394 392 424
806 2 2 1 1 572 238 584
807 2 2 1 1 281 187 564
808 2 2 1 1 175 177 557
809 2 2 1 1 195 196 200
810 2 2 1 1 303 301 308
811 2 2 1 1 399 175 557
812 2 2 1 1 177 180 557
813 2 2 1 1 341 339 387
814 2 2 1 1 331 277 352
815 2 2 1 1 353 354 433
816 2 2 1 1 346 280 569
817 2 2 1 1 145 147 148
818 2 2 1 1 167 169 170
819 2 2 1 1 139 137 140
820 2 2 1 1 343 406 559
821 2 2 1 1 198 199 201
822 2 2 1 1 152 151 153
823 2 2 1 1 196 197 198
824 2 2 1 1 201 202 208
825 2 2 1 1 190 166 292
826 2 2 1 1 198 197 199
827 2 2 1 1 233 225 257
828 2 2 1 1 320 292 363
829 2 2 1 1 149 151 152
830 2 2 1 1 187 546 564
831 2 2 1 1 201 199 202
832 2 2 1 1 208 202 209
833 2 2 1 1 305 303 570
834 2 2 1 1 331 352 353
835 2 2 1 1 38 39 98
836 2 2 1 1 206 204 219
837 2 2 1 1 317 366 410
838 2 2 1 1 402 292 573
839 2 2 1 1 396 428 536
840 2 2 1 1 190 292 320
841 2 2 1 1 262 261 300
842 2 2 1 1 156 157 563
843 2 2 1 1 276 257 277
844 2 2 1 1 143 141 144
845 2 2 1 1 320 363 367
846 2 2 1 1 241 239 242
847 2 2 1 1 238 236 323
848 2 2 1 1 145 146 147
849 2 2 1 1 273 550 623
850 2 2 1 1 173 176 586
851 2 2 1 1 237 238 239
852 2 2 1 1 353 433 434
853 2 2 1 1 148 147 149
854 2 2 1 1 312 332 389
855 2 2 1 1 181 348 537
856 2 2 1 1 223 222 224
857 2 2 1 1 261 220 527
858 2 2 1 1 207 217 218
859 2 2 1 1 241 242 243
860 2 2 1 1 355 564 587
861 2 2 1 1 356 357 358
862 2 2 1 1 338 384 421
863 2 2 1 1 166 167 573
864 2 2 1 1 207 206 217
865 2 2 1 1 396 395 427
866 2 2 1 1 271 242 572
867 2 2 1 1 330 376 377
868 2 2 1 1 313 277 331
869 2 2 1 1 348 356 585
870 2 2 1 1 167 170 573
871 2 2 1 1 352 277 554
872 2 2 1 1 259 283 582
873 2 2 1 1 219 598 604
874 2 2 1 1 410 411 471
875 2 2 1 1 445 444 446
876 2 2 1 1 571 224 576
877 2 2 1 1 527 259 582
878 2 2 1 1 238 323 584
879 2 2 1 1 157 160 563
880 2 2 1 1 161 164 568
881 2 2 1 1 537 348 585
882 2 2 1 1 292 166 573
883 2 2 1 1 339 305 570
884 2 2 1 1 160 191 563
885 2 2 1 1 209 213 581
886 2 2 1 1 573 170 586
887 2 2 1 1 400 401 577
888 2 2 1 1 532 334 587
889 2 2 1 1 60 61 468
890 2 2 1 1 237 236 238
891 2 2 1 1 145 144 146
892 2 2 1 1 154 151 594
893 2 2 1 1 424 392 567
894 2 2 1 1 163 161 568
895 2 2 1 1 564 532 587
896 2 2 1 1 425 424 426
897 2 2 1 1 555 228 581
898 2 2 1 1 422 339 570
899 2 2 1 1 228 208 581
900 2 2 1 1 402 573 586
901 2 2 1 1 213 211 579
902 2 2 1 1 214 230 579
903 2 2 1 1 164 190 568
904 2 2 1 1 189 537 585
905 2 2 1 1 218 222 223
906 2 2 1 1 277 257 554
907 2 2 1 1 396 427 428
908 2 2 1 1 462 121 463
909 2 2 1 1 143 144 145
910 2 2 1 1 303 308 570
911 2 2 1 1 417 318 485
912 2 2 1 1 308 301 575
913 2 2 1 1 312 268 332
914 2 2 1 1 268 250 556
915 2 2 1 1 208 209 581
916 2 2 1 1 235 236 237
917 2 2 1 1 301 300 575
918 2 2 1 1 334 386 583
919 2 2 1 1 194 192 578
920 2 2 1 1 156 549 591
921 2 2 1 1 407 603 606
922 2 2 1 1 511 470 615
923 2 2 1 1 197 194 578
924 2 2 1 1 395 331 580
925 2 2 1 1 211 214 579
926 2 2 1 1 218 217 222
927 2 2 1 1 198 530 588
928 2 2 1 1 556 400 577
929 2 2 1 1 361 163 568
930 2 2 1 1 283 338 582
931 2 2 1 1 358 380 437
932 2 2 1 1 153 156 591
933 2 2 1 1 300 404 575
934 2 2 1 1 150 147 589
935 2 2 1 1 588 523 598
936 2 2 1 1 196 198 588
937 2 2 1 1 320 408 592
938 2 2 1 1 394 425 620
939 2 2 1 1 192 361 578
940 2 2 1 1 138 137 139
941 2 2 1 1 139 140 141
942 2 2 1 1 403 527 582
943 2 2 1 1 332 268 577
944 2 2 1 1 568 190 592
945 2 2 1 1 388 355 587
946 2 2 1 1 364 528 604
947 2 2 1 1 353 434 580
948 2 2 1 1 268 556 577
949 2 2 1 1 170 173 586
950 2 2 1 1 586 176 593
951 2 2 1 1 359 572 584
952 2 2 1 1 146 144 234
953 2 2 1 1 515 307 606
954 2 2 1 1 361 568 592
955 2 2 1 1 331 353 580
956 2 2 1 1 200 196 588
957 2 2 1 1 152 153 591
958 2 2 1 1 235 234 236
959 2 2 1 1 485 318 489
960 2 2 1 1 358 437 438
961 2 2 1 1 143 145 590
962 2 2 1 1 146 234 235
963 2 2 1 1 147 146 589
964 2 2 1 1 404 403 599
965 2 2 1 1 366 590 601
966 2 2 1 1 598 523 604
967 2 2 1 1 330 373 376
968 2 2 1 1 139 141 142
969 2 2 1 1 258 608 617
970 2 2 1 1 142 141 143
971 2 2 1 1 219 204 598
972 2 2 1 1 151 150 594
973 2 2 1 1 402 586 593
974 2 2 1 1 371 372 636
975 2 2 1 1 398 365 596
976 2 2 1 1 447 402 593
977 2 2 1 1 145 148 590
978 2 2 1 1 146 235 589
979 2 2 1 1 190 320 592
980 2 2 1 1 640 295 641
981 2 2 1 1 278 585 595
982 2 2 1 1 596 409 619
983 2 2 1 1 407 555 603
984 2 2 1 1 582 338 599
985 2 2 1 1 200 588 598
986 2 2 1 1 603 561 606
987 2 2 1 1 381 499 612
988 2 2 1 1 204 200 598
989 2 2 1 1 37 38 467
990 2 2 1 1 148 149 605
991 2 2 1 1 299 317 318
992 2 2 1 1 263 312 597
993 2 2 1 1 620 425 624
994 2 2 1 1 403 582 599
995 2 2 1 1 418 373 654
996 2 2 1 1 354 624 625
997 2 2 1 1 299 417 600
998 2 2 1 1 279 566 614
999 2 2 1 1 338 421 599
1000 2 2 1 1 585 356 595
1001 2 2 1 1 350 578 602
1002 2 2 1 1 358 438 595
1003 2 2 1 1 411 366 601
1004 2 2 1 1 219 529 608
1005 2 2 1 1 475 231 634
1006 2 2 1 1 299 185 317
1007 2 2 1 1 592 408 602
1008 2 2 1 1 523 364 604
1009 2 2 1 1 258 217 608
1010 2 2 1 1 356 358 595
1011 2 2 1 1 213 561 603
1012 2 2 1 1 139 142 600
1013 2 2 1 1 607 569 610
1014 2 2 1 1 642 336 643
1015 2 2 1 1 138 139 600
1016 2 2 1 1 393 394 617
1017 2 2 1 1 234 644 647
1018 2 2 1 1 290 627 638
1019 2 2 1 1 595 438 610
1020 2 2 1 1 278 595 610
1021 2 2 1 1 206 219 608
1022 2 2 1 1 361 592 602
1023 2 2 1 1 409 412 626
1024 2 2 1 1 578 361 602
1025 2 2 1 1 473 601 605
1026 2 2 1 1 601 148 605
1027 2 2 1 1 366 185 590
1028 2 2 1 1 142 143 185
1029 2 2 1 1 413 274 611
1030 2 2 1 1 150 589 615
1031 2 2 1 1 632 521 633
1032 2 2 1 1 463 121 465
1033 2 2 1 1 581 213 603
1034 2 2 1 1 608 529 617
1035 2 2 1 1 97 445 468
1036 2 2 1 1 155 154 619
1037 2 2 1 1 185 143 590
1038 2 2 1 1 555 581 603
1039 2 2 1 1 371 636 640
1040 2 2 1 1 142 185 299
1041 2 2 1 1 474 473 621
1042 2 2 1 1 569 278 610
1043 2 2 1 1 350 602 614
1044 2 2 1 1 149 152 605
1045 2 2 1 1 602 408 614
1046 2 2 1 1 606 307 609
1047 2 2 1 1 370 362 631
1048 2 2 1 1 440 607 610
1049 2 2 1 1 589 511 615
1050 2 2 1 1 154 596 619
1051 2 2 1 1 626 412 630
1052 2 2 1 1 561 515 606
1053 2 2 1 1 619 409 626
1054 2 2 1 1 405 407 609
1055 2 2 1 1 346 569 607
1056 2 2 1 1 436 381 612
1057 2 2 1 1 354 571 624
1058 2 2 1 1 550 367 623
1059 2 2 1 1 217 206 608
1060 2 2 1 1 631 362 633
1061 2 2 1 1 367 363 623
1062 2 2 1 1 274 287 611
1063 2 2 1 1 142 299 600
1064 2 2 1 1 294 506 630
1065 2 2 1 1 405 609 613
1066 2 2 1 1 438 440 610
1067 2 2 1 1 406 405 613
1068 2 2 1 1 279 614 618
1069 2 2 1 1 205 207 627
1070 2 2 1 1 349 298 635
1071 2 2 1 1 566 350 614
1072 2 2 1 1 44 45 616
1073 2 2 1 1 521 513 633
1074 2 2 1 1 61 97 468
1075 2 2 1 1 629 548 638
1076 2 2 1 1 529 393 617
1077 2 2 1 1 594 150 615
1078 2 2 1 1 407 606 609
1079 2 2 1 1 408 367 618
1080 2 2 1 1 472 475 634
1081 2 2 1 1 297 508 639
1082 2 2 1 1 549 548 629
1083 2 2 1 1 538 295 640
1084 2 2 1 1 412 521 632
1085 2 2 1 1 605 152 621
1086 2 2 1 1 473 605 621
1087 2 2 1 1 617 394 620
1088 2 2 1 1 624 425 625
1089 2 2 1 1 410 483 645
1090 2 2 1 1 464 463 648
1091 2 2 1 1 158 155 619
1092 2 2 1 1 593 176 636
1093 2 2 1 1 322 413 637
1094 2 2 1 1 576 258 620
1095 2 2 1 1 414 368 641
1096 2 2 1 1 372 593 636
1097 2 2 1 1 433 354 625
1098 2 2 1 1 627 475 638
1099 2 2 1 1 98 138 467
1100 2 2 1 1 282 336 642
1101 2 2 1 1 613 526 628
1102 2 2 1 1 416 652 653
1103 2 2 1 1 614 408 618
1104 2 2 1 1 113 32 650
1105 2 2 1 1 474 621 629
1106 2 2 1 1 645 483 646
1107 2 2 1 1 374 651 652
1108 2 2 1 1 152 591 621
1109 2 2 1 1 576 620 624
1110 2 2 1 1 140 464 644
1111 2 2 1 1 141 140 644
1112 2 2 1 1 363 447 623
1113 2 2 1 1 158 619 626
1114 2 2 1 1 269 574 646
1115 2 2 1 1 317 410 645
1116 2 2 1 1 38 98 467
1117 2 2 1 1 548 290 638
1118 2 2 1 1 571 576 624
1119 2 2 1 1 371 640 641
1120 2 2 1 1 644 464 647
1121 2 2 1 1 541 158 626
1122 2 2 1 1 258 617 620
1123 2 2 1 1 323 236 647
1124 2 2 1 1 234 144 644
1125 2 2 1 1 362 632 633
1126 2 2 1 1 425 426 625
1127 2 2 1 1 290 205 627
1128 2 2 1 1 508 370 637
1129 2 2 1 1 489 318 645
1130 2 2 1 1 138 600 622
1131 2 2 1 1 600 417 622
1132 2 2 1 1 414 642 643
1133 2 2 1 1 474 629 638
1134 2 2 1 1 541 626 630
1135 2 2 1 1 506 541 630
1136 2 2 1 1 558 322 631
1137 2 2 1 1 591 549 629
1138 2 2 1 1 467 138 622
1139 2 2 1 1 621 591 629
1140 2 2 1 1 362 294 632
1141 2 2 1 1 414 641 642
1142 2 2 1 1 471 472 634
1143 2 2 1 1 513 558 633
1144 2 2 1 1 558 631 633
1145 2 2 1 1 176 399 636
1146 2 2 1 1 406 613 628
1147 2 2 1 1 461 120 649
1148 2 2 1 1 413 611 635
1149 2 2 1 1 120 622 649
1150 2 2 1 1 298 297 639
1151 2 2 1 1 475 474 638
1152 2 2 1 1 399 538 640
1153 2 2 1 1 636 399 640
1154 2 2 1 1 368 371 641
1155 2 2 1 1 622 417 649
1156 2 2 1 1 295 282 642
1157 2 2 1 1 415 414 643
1158 2 2 1 1 374 584 651
1159 2 2 1 1 144 141 644
1160 2 2 1 1 105 461 656
1161 2 2 1 1 102 43 653
1162 2 2 1 1 370 631 637
1163 2 2 1 1 323 648 651
1164 2 2 1 1 483 269 646
1165 2 2 1 1 318 317 645
1166 2 2 1 1 631 322 637
1167 2 2 1 1 236 234 647
1168 2 2 1 1 616 416 653
1169 2 2 1 1 44 616 653
1170 2 2 1 1 641 295 642
1171 2 2 1 1 413 635 639
1172 2 2 1 1 635 298 639
1173 2 2 1 1 651 466 652
1174 2 2 1 1 323 647 648
1175 2 2 1 1 34 105 657
1176 2 2 1 1 428 655 660
1177 2 2 1 1 416 374 652
1178 2 2 1 1 650 418 654
1179 2 2 1 1 417 485 649
1180 2 2 1 1 460 113 659
1181 2 2 1 1 647 464 648
1182 2 2 1 1 32 33 650
1183 2 2 1 1 466 102 652
1184 2 2 1 1 584 323 651
1185 2 2 1 1 378 376 658
1186 2 2 1 1 657 105 658
1187 2 2 1 1 373 379 654
1188 2 2 1 1 43 44 653
1189 2 2 1 1 113 650 654
1190 2 2 1 1 650 33 657
1191 2 2 1 1 460 659 660
1192 2 2 1 1 129 460 660
1193 2 2 1 1 418 650 657
1194 2 2 1 1 517 129 655
1195 2 2 1 1 33 34 657
1196 2 2 1 1 461 649 656
1197 2 2 1 1 485 378 656
1198 2 2 1 1 113 654 659
1199 2 2 1 1 376 418 658
1200 2 2 1 1 654 379 659
1201 2 2 1 1 649 485 656
1202 2 2 1 1 379 536 659
1203 2 2 1 1 418 657 658
1204 2 2 1 1 659 536 660
1205 2 2 1 1 536 428 660
1206 2 2 1 1 707 426 732
1207 2 2 1 1 110 458 701
1208 2 2 1 1 705 533 731
1209 2 2 1 1 56 448 661
1210 2 2 1 1 114 55 661
1211 2 2 1 1 449 432 678
1212 2 2 1 1 114 661 663
1213 2 2 1 1 116 505 710
1214 2 2 1 1 288 477 662
1215 2 2 1 1 287 264 662
1216 2 2 1 1 482 607 704
1217 2 2 1 1 526 543 705
1218 2 2 1 1 55 56 661
1219 2 2 1 1 628 705 731
1220 2 2 1 1 661 449 663
1221 2 2 1 1 119 468 664
1222 2 2 1 1 130 453 665
1223 2 2 1 1 51 52 665
1224 2 2 1 1 95 96 666
1225 2 2 1 1 26 27 667
1226 2 2 1 1 675 429 692
1227 2 2 1 1 386 671 683
1228 2 2 1 1 487 672 682
1229 2 2 1 1 673 421 681
1230 2 2 1 1 496 676 685
1231 2 2 1 1 112 670 683
1232 2 2 1 1 674 551 688
1233 2 2 1 1 72 503 677
1234 2 2 1 1 535 135 711
1235 2 2 1 1 458 375 703
1236 2 2 1 1 669 663 726
1237 2 2 1 1 264 288 662
1238 2 2 1 1 451 663 669
1239 2 2 1 1 22 23 668
1240 2 2 1 1 287 662 702
1241 2 2 1 1 328 342 669
1242 2 2 1 1 127 540 671
1243 2 2 1 1 388 583 670
1244 2 2 1 1 539 415 672
1245 2 2 1 1 123 492 673
1246 2 2 1 1 80 81 675
1247 2 2 1 1 101 565 674
1248 2 2 1 1 570 308 676
1249 2 2 1 1 459 119 724
1250 2 2 1 1 118 457 718
1251 2 2 1 1 71 72 677
1252 2 2 1 1 481 117 677
1253 2 2 1 1 432 332 678
1254 2 2 1 1 577 401 678
1255 2 2 1 1 385 429 688
1256 2 2 1 1 496 497 691
1257 2 2 1 1 487 486 690
1258 2 2 1 1 112 79 692
1259 2 2 1 1 386 333 693
1260 2 2 1 1 336 551 689
1261 2 2 1 1 599 421 694
1262 2 2 1 1 444 443 695
1263 2 2 1 1 490 491 696
1264 2 2 1 1 520 125 696
1265 2 2 1 1 340 315 698
1266 2 2 1 1 21 22 699
1267 2 2 1 1 342 454 729
1268 2 2 1 1 451 114 663
1269 2 2 1 1 468 445 664
1270 2 2 1 1 444 695 730
1271 2 2 1 1 52 130 665
1272 2 2 1 1 131 95 666
1273 2 2 1 1 132 26 667
1274 2 2 1 1 662 446 702
1275 2 2 1 1 616 110 701
1276 2 2 1 1 360 416 701
1277 2 2 1 1 436 612 702
1278 2 2 1 1 375 325 703
1279 2 2 1 1 324 360 703
1280 2 2 1 1 440 441 704
1281 2 2 1 1 389 432 706
1282 2 2 1 1 433 625 707
1283 2 2 1 1 542 543 700
1284 2 2 1 1 104 442 709
1285 2 2 1 1 100 484 708
1286 2 2 1 1 122 64 709
1287 2 2 1 1 65 104 709
1288 2 2 1 1 395 580 710
1289 2 2 1 1 7 128 711
1290 2 2 1 1 135 6 711
1291 2 2 1 1 103 519 712
1292 2 2 1 1 49 134 713
1293 2 2 1 1 118 48 713
1294 2 2 1 1 104 66 714
1295 2 2 1 1 655 428 715
1296 2 2 1 1 406 628 716
1297 2 2 1 1 426 424 717
1298 2 2 1 1 110 46 718
1299 2 2 1 1 47 118 718
1300 2 2 1 1 327 375 719
1301 2 2 1 1 106 459 706
1302 2 2 1 1 504 108 707
1303 2 2 1 1 50 3 720
1304 2 2 1 1 73 4 721
1305 2 2 1 1 3 51 720
1306 2 2 1 1 133 503 721
1307 2 2 1 1 4 74 721
1308 2 2 1 1 2 28 722
1309 2 2 1 1 27 2 722
1310 2 2 1 1 96 1 723
1311 2 2 1 1 1 5 723
1312 2 2 1 1 111 533 705
1313 2 2 1 1 23 116 668
1314 2 2 1 1 454 452 729
1315 2 2 1 1 454 342 719
1316 2 2 1 1 401 328 669
1317 2 2 1 1 445 446 728
1318 2 2 1 1 435 436 695
1319 2 2 1 1 391 491 708
1320 2 2 1 1 401 669 726
1321 2 2 1 1 695 436 730
1322 2 2 1 1 520 382 712
1323 2 2 1 1 67 441 714
1324 2 2 1 1 670 112 692
1325 2 2 1 1 671 386 693
1326 2 2 1 1 672 487 690
1327 2 2 1 1 429 675 688
1328 2 2 1 1 676 496 691
1329 2 2 1 1 551 674 689
1330 2 2 1 1 421 673 694
1331 2 2 1 1 501 127 671
1332 2 2 1 1 429 388 670
1333 2 2 1 1 420 539 672
1334 2 2 1 1 492 493 673
1335 2 2 1 1 81 101 675
1336 2 2 1 1 565 488 674
1337 2 2 1 1 422 570 676
1338 2 2 1 1 128 542 700
1339 2 2 1 1 117 71 677
1340 2 2 1 1 332 577 678
1341 2 2 1 1 687 131 697
1342 2 2 1 1 679 501 693
1343 2 2 1 1 680 420 690
1344 2 2 1 1 493 684 694
1345 2 2 1 1 686 422 691
1346 2 2 1 1 488 682 689
1347 2 2 1 1 502 501 679
1348 2 2 1 1 540 112 683
1349 2 2 1 1 384 680 681
1350 2 2 1 1 99 469 680
1351 2 2 1 1 384 420 680
1352 2 2 1 1 680 469 681
1353 2 2 1 1 514 131 687
1354 2 2 1 1 115 514 686
1355 2 2 1 1 469 123 681
1356 2 2 1 1 686 514 687
1357 2 2 1 1 421 384 681
1358 2 2 1 1 488 487 682
1359 2 2 1 1 493 494 684
1360 2 2 1 1 415 643 682
1361 2 2 1 1 494 496 685
1362 2 2 1 1 583 386 683
1363 2 2 1 1 684 494 685
1364 2 2 1 1 575 404 684
1365 2 2 1 1 575 684 685
1366 2 2 1 1 308 575 685
1367 2 2 1 1 387 422 686
1368 2 2 1 1 423 387 687
1369 2 2 1 1 387 686 687
1370 2 2 1 1 340 679 693
1371 2 2 1 1 99 680 690
1372 2 2 1 1 684 404 694
1373 2 2 1 1 682 643 689
1374 2 2 1 1 115 686 691
1375 2 2 1 1 551 385 688
1376 2 2 1 1 643 336 689
1377 2 2 1 1 497 115 691
1378 2 2 1 1 486 99 690
1379 2 2 1 1 79 80 692
1380 2 2 1 1 333 340 693
1381 2 2 1 1 404 599 694
1382 2 2 1 1 423 687 697
1383 2 2 1 1 443 122 695
1384 2 2 1 1 125 490 696
1385 2 2 1 1 535 423 697
1386 2 2 1 1 477 431 728
1387 2 2 1 1 456 454 719
1388 2 2 1 1 315 346 698
1389 2 2 1 1 108 21 699
1390 2 2 1 1 383 534 700
1391 2 2 1 1 543 111 705
1392 2 2 1 1 109 482 704
1393 2 2 1 1 416 616 701
1394 2 2 1 1 612 287 702
1395 2 2 1 1 325 324 703
1396 2 2 1 1 607 440 704
1397 2 2 1 1 628 526 705
1398 2 2 1 1 679 481 725
1399 2 2 1 1 431 664 728
1400 2 2 1 1 430 389 706
1401 2 2 1 1 625 426 707
1402 2 2 1 1 481 679 727
1403 2 2 1 1 441 439 714
1404 2 2 1 1 131 666 697
1405 2 2 1 1 567 391 708
1406 2 2 1 1 382 559 712
1407 2 2 1 1 431 430 724
1408 2 2 1 1 491 100 708
1409 2 2 1 1 502 679 725
1410 2 2 1 1 64 65 709
1411 2 2 1 1 669 342 729
1412 2 2 1 1 679 340 727
1413 2 2 1 1 427 395 710
1414 2 2 1 1 6 7 711
1415 2 2 1 1 519 520 712
1416 2 2 1 1 48 49 713
1417 2 2 1 1 66 67 714
1418 2 2 1 1 428 427 715
1419 2 2 1 1 559 406 716
1420 2 2 1 1 424 567 717
1421 2 2 1 1 429 670 692
1422 2 2 1 1 501 671 693
1423 2 2 1 1 420 672 690
1424 2 2 1 1 673 493 694
1425 2 2 1 1 675 101 688
1426 2 2 1 1 674 488 689
1427 2 2 1 1 422 676 691
1428 2 2 1 1 46 47 718
1429 2 2 1 1 342 327 719
1430 2 2 1 1 664 431 724
1431 2 2 1 1 666 96 723
1432 2 2 1 1 667 27 722
1433 2 2 1 1 51 665 720
1434 2 2 1 1 426 717 732
1435 2 2 1 1 716 628 731
1436 2 2 1 1 74 133 721
1437 2 2 1 1 134 50 720
1438 2 2 1 1 28 517 722
1439 2 2 1 1 5 135 723
1440 2 2 1 1 678 401 726
1441 2 2 1 1 481 677 725
1442 2 2 1 1 436 702 730
1443 2 2 1 1 340 698 727
1444 2 2 1 1 446 444 730
1445 2 2 1 1 119 664 724
1446 2 2 1 1 480 481 727
1447 2 2 1 1 451 669 729
1448 2 2 1 1 503 502 725
1449 2 2 1 1 452 451 729
1450 2 2 1 1 124 504 732
1451 2 2 1 1 533 531 731
1452 2 2 1 1 135 666 723
1453 2 2 1 1 665 134 720
1454 2 2 1 1 517 667 722
1455 2 2 1 1 663 449 726
1456 2 2 1 1 664 445 728
1457 2 2 1 1 449 678 726
1458 2 2 1 1 677 503 725
1459 2 2 1 1 698 480 727
1460 2 2 1 1 702 446 730
1461 2 2 1 1 531 716 731
1462 2 2 1 1 717 124 732
$EndElements
$Periodic
2
1 2 4
Affine 1 0 0 1 0 1 0 0 0 0 1 0 0 0 0 1
25
2 1
3 4
28 96
29 95
30 94
31 93
32 92
33 91
34 90
35 89
36 88
37 87
38 86
39 85
40 84
41 83
42 82
43 81
44 80
45 79
46 78
47 77
48 76
49 75
50 74
1 3 1
Affine 1 0 0 0 0 1 0 1 0 0 1 0 0 0 0 1
25
3 2
4 1
51 27
52 26
53 25
54 24
55 23
56 22
57 21
58 20
59 19
60 18
61 17
62 16
63 15
64 14
65 13
66 12
67 11
68 10
69 9
70 8
71 7
72 6
73 5
$EndPeriodic
