$MeshFormat
2.2 0 8
$EndMeshFormat
$PhysicalNames
7
2 11 "in"
2 22 "out"
2 33 "upper"
2 44 "bottom"
2 55 "front"
2 66 "back"
3 1 "domain"
$EndPhysicalNames
$Nodes
729
1 0 0 0
2 1 0 0
3 1 1 0
4 0 1 0
5 0 0 1
6 1 0 1
7 1 1 1
8 0 1 1
9 0.1249999999997731 0 0
10 0.2499999999994109 0 0
11 0.3749999999990461 0 0
12 0.4999999999986921 0 0
13 0.6249999999990109 0 0
14 0.7499999999993406 0 0
15 0.8749999999996703 0 0
16 1 0.1250000000005453 0
17 1 0.25 0
18 1 0.3750000000015858 0
19 1 0.5 0
20 1 0.6250000000011002 0
21 1 0.75 0
22 1 0.8749999999993874 0
23 0.8749999999997841 1 0
24 0.75 1 0
25 0.6249999999991247 1 0
26 0.5 1 0
27 0.3749999999991599 1 0
28 0.25 1 0
29 0.1249999999998869 1 0
30 0 0.8749999999995012 0
31 0 0.7500000000003471 0
32 0 0.625000000001214 0
33 0 0.5000000000020595 0
34 0 0.3750000000015609 0
35 0 0.2500000000010405 0
36 0 0.1250000000005203 0
37 0.1249999999997981 0 1
38 0.25 0 1
39 0.3749999999990711 0 1
40 0.5 0 1
41 0.6249999999988971 0 1
42 0.75 0 1
43 0.8749999999995565 0 1
44 1 0.1250000000005703 1
45 1 0.25 1
46 1 0.3750000000016108 1
47 1 0.5 1
48 1 0.6250000000009864 1
49 1 0.75 1
50 1 0.8749999999992736 1
51 0.8749999999998979 1 1
52 0.75 1 1
53 0.6249999999992385 1 1
54 0.5 1 1
55 0.3749999999992737 1 1
56 0.25 1 1
57 0.1250000000000007 1 1
58 0 0.874999999999615 1
59 0 0.75 1
60 0 0.6250000000013278 1
61 0 0.5 1
62 0 0.3750000000016747 1
63 0 0.25 1
64 0 0.125000000000634 1
65 0 0 0.1249999999997731
66 0 0 0.2499999999994109
67 0 0 0.3749999999990461
68 0 0 0.4999999999986921
69 0 0 0.6249999999990109
70 0 0 0.7499999999993406
71 0 0 0.8749999999996703
72 1 0 0.1249999999997981
73 1 0 0.25
74 1 0 0.3749999999990711
75 1 0 0.5
76 1 0 0.6249999999988971
77 1 0 0.75
78 1 0 0.8749999999995565
79 1 1 0.1249999999998232
80 1 1 0.25
81 1 1 0.3749999999990961
82 1 1 0.5
83 1 1 0.6249999999987833
84 1 1 0.75
85 1 1 0.8749999999994427
86 0 1 0.1249999999997981
87 0 1 0.25
88 0 1 0.3749999999990711
89 0 1 0.5
90 0 1 0.6249999999988971
91 0 1 0.75
92 0 1 0.8749999999995565
93 0.1249999999997874 0.1250000000005234 0
94 0.1249999999998016 0.2500000000009104 0
95 0.1249999999998158 0.375000000001564 0
96 0.12499999999983 0.500000000001802 0
97 0.1249999999998442 0.6250000000011997 0
98 0.1249999999998584 0.7500000000003038 0
99 0.1249999999998726 0.874999999999487 0
100 0.2499999999994846 0.1250000000005265 0
101 0.2499999999995582 0.2500000000007804 0
102 0.2499999999996319 0.375000000001567 0
103 0.2499999999997055 0.5000000000015447 0
104 0.2499999999997791 0.6250000000011855 0
105 0.2499999999998527 0.7500000000002602 0
106 0.2499999999999263 0.8749999999994726 0
107 0.3749999999990605 0.1250000000005296 0
108 0.3749999999990747 0.2500000000006504 0
109 0.3749999999990888 0.3750000000015703 0
110 0.3749999999991029 0.5000000000012871 0
111 0.3749999999991172 0.6250000000011713 0
112 0.3749999999991315 0.7500000000002169 0
113 0.3749999999991457 0.8749999999994584 0
114 0.4999999999988555 0.1250000000005327 0
115 0.4999999999990191 0.2500000000005203 0
116 0.4999999999991825 0.3750000000015734 0
117 0.4999999999993461 0.5000000000010297 0
118 0.4999999999995095 0.6250000000011571 0
119 0.499999999999673 0.7500000000001734 0
120 0.4999999999998365 0.8749999999994442 0
121 0.6249999999990252 0.1250000000005358 0
122 0.6249999999990394 0.2500000000003901 0
123 0.6249999999990534 0.3750000000015766 0
124 0.6249999999990679 0.5000000000007724 0
125 0.6249999999990821 0.6250000000011429 0
126 0.6249999999990963 0.7500000000001301 0
127 0.6249999999991105 0.87499999999943 0
128 0.7499999999994229 0.125000000000539 0
129 0.7499999999995054 0.2500000000002601 0
130 0.7499999999995879 0.3750000000015796 0
131 0.7499999999996704 0.5000000000005148 0
132 0.7499999999997528 0.6250000000011287 0
133 0.7499999999998354 0.7500000000000868 0
134 0.7499999999999175 0.8749999999994158 0
135 0.8749999999996845 0.1250000000005421 0
136 0.8749999999996988 0.2500000000001301 0
137 0.8749999999997129 0.3750000000015828 0
138 0.874999999999727 0.5000000000002575 0
139 0.8749999999997413 0.6250000000011144 0
140 0.8749999999997556 0.7500000000000433 0
141 0.8749999999997699 0.8749999999994016 0
142 0.1249999999998234 0.1250000000006261 1
143 0.1249999999998488 0.25 1
144 0.1249999999998741 0.3750000000016667 1
145 0.1249999999998994 0.5 1
146 0.1249999999999247 0.625000000001285 1
147 0.12499999999995 0.75 1
148 0.1249999999999754 0.8749999999995721 1
149 0.25 0.1250000000006181 1
150 0.25 0.25 1
151 0.25 0.3750000000016586 1
152 0.25 0.5 1
153 0.25 0.6250000000012423 1
154 0.25 0.75 1
155 0.25 0.8749999999995295 1
156 0.3749999999990963 0.1250000000006101 1
157 0.3749999999991216 0.25 1
158 0.3749999999991471 0.3750000000016507 1
159 0.3749999999991724 0.5 1
160 0.3749999999991978 0.6250000000011997 1
161 0.3749999999992231 0.75 1
162 0.3749999999992484 0.874999999999487 1
163 0.5 0.1250000000006022 1
164 0.5 0.25 1
165 0.5 0.3750000000016427 1
166 0.5 0.5 1
167 0.5 0.6250000000011571 1
168 0.5 0.75 1
169 0.5 0.8749999999994442 1
170 0.6249999999989397 0.1250000000005942 1
171 0.6249999999989826 0.25 1
172 0.6249999999990252 0.3750000000016347 1
173 0.6249999999990679 0.5 1
174 0.6249999999991105 0.6250000000011144 1
175 0.6249999999991531 0.75 1
176 0.6249999999991958 0.8749999999994016 1
177 0.75 0.1250000000005862 1
178 0.75 0.25 1
179 0.7500000000000002 0.3750000000016269 1
180 0.75 0.5 1
181 0.75 0.6250000000010718 1
182 0.75 0.75 1
183 0.75 0.874999999999359 1
184 0.874999999999599 0.1250000000005782 1
185 0.8749999999996418 0.25 1
186 0.8749999999996847 0.3750000000016189 1
187 0.8749999999997271 0.5 1
188 0.8749999999997697 0.6250000000010292 1
189 0.8749999999998126 0.75 1
190 0.8749999999998552 0.8749999999993163 1
191 0.1249999999997763 0 0.1249999999997763
192 0.1249999999997794 0 0.2499999999994846
193 0.1249999999997825 0 0.3749999999990491
194 0.1249999999997856 0 0.4999999999988556
195 0.1249999999997888 0 0.6249999999989965
196 0.1249999999997919 0 0.7499999999994232
197 0.124999999999795 0 0.8749999999996561
198 0.2499999999994846 0 0.1249999999997794
199 0.2499999999995582 0 0.2499999999995582
200 0.2499999999996319 0 0.3749999999990524
201 0.2499999999997055 0 0.499999999999019
202 0.2499999999997791 0 0.6249999999989825
203 0.2499999999998528 0 0.7499999999995054
204 0.2499999999999263 0 0.8749999999996418
205 0.3749999999990491 0 0.1249999999997825
206 0.3749999999990524 0 0.2499999999996319
207 0.3749999999990553 0 0.3749999999990554
208 0.3749999999990586 0 0.4999999999991825
209 0.3749999999990617 0 0.6249999999989682
210 0.3749999999990649 0 0.7499999999995879
211 0.3749999999990679 0 0.8749999999996276
212 0.4999999999988557 0 0.1249999999997856
213 0.499999999999019 0 0.2499999999997055
214 0.4999999999991825 0 0.3749999999990586
215 0.4999999999993461 0 0.4999999999993461
216 0.4999999999995095 0 0.6249999999989538
217 0.4999999999996729 0 0.7499999999996702
218 0.4999999999998365 0 0.8749999999996134
219 0.6249999999989967 0 0.1249999999997888
220 0.6249999999989825 0 0.2499999999997791
221 0.6249999999989684 0 0.3749999999990617
222 0.6249999999989541 0 0.4999999999995095
223 0.6249999999989396 0 0.6249999999989396
224 0.6249999999989254 0 0.7499999999997528
225 0.6249999999989114 0 0.8749999999995992
226 0.7499999999994232 0 0.1249999999997919
227 0.7499999999995054 0 0.2499999999998527
228 0.7499999999995879 0 0.3749999999990649
229 0.7499999999996704 0 0.499999999999673
230 0.7499999999997528 0 0.6249999999989254
231 0.749999999999835 0 0.749999999999835
232 0.7499999999999175 0 0.874999999999585
233 0.8749999999996561 0 0.124999999999795
234 0.8749999999996418 0 0.2499999999999264
235 0.8749999999996276 0 0.374999999999068
236 0.8749999999996134 0 0.4999999999998366
237 0.8749999999995992 0 0.6249999999989114
238 0.874999999999585 0 0.7499999999999175
239 0.8749999999995708 0 0.8749999999995708
240 0.8749999999997983 1 0.12499999999982
241 0.8749999999998124 1 0.25
242 0.8749999999998268 1 0.3749999999990929
243 0.874999999999841 1 0.5
244 0.8749999999998552 1 0.6249999999987976
245 0.8749999999998694 1 0.75
246 0.8749999999998836 1 0.8749999999994568
247 0.7499999999999999 1 0.1249999999998169
248 0.75 1 0.25
249 0.75 1 0.3749999999990899
250 0.75 1 0.5
251 0.75 1 0.6249999999988118
252 0.75 1 0.75
253 0.75 1 0.8749999999994711
254 0.6249999999991388 1 0.1249999999998138
255 0.6249999999991533 1 0.25
256 0.6249999999991673 1 0.3749999999990867
257 0.6249999999991815 1 0.5
258 0.6249999999991958 1 0.6249999999988261
259 0.62499999999921 1 0.75
260 0.6249999999992242 1 0.8749999999994853
261 0.5 1 0.1249999999998107
262 0.5 1 0.25
263 0.5 1 0.3749999999990836
264 0.5 1 0.5
265 0.5 1 0.6249999999988403
266 0.5 1 0.75
267 0.5 1 0.8749999999994995
268 0.3749999999991741 1 0.1249999999998075
269 0.3749999999991884 1 0.25
270 0.3749999999992025 1 0.3749999999990803
271 0.3749999999992167 1 0.5
272 0.3749999999992311 1 0.6249999999988545
273 0.3749999999992453 1 0.75
274 0.3749999999992595 1 0.8749999999995137
275 0.25 1 0.1249999999998044
276 0.25 1 0.25
277 0.25 1 0.3749999999990773
278 0.25 1 0.5
279 0.25 1 0.6249999999988687
280 0.25 1 0.75
281 0.25 1 0.8749999999995279
282 0.1249999999999011 1 0.1249999999998013
283 0.1249999999999153 1 0.25
284 0.1249999999999296 1 0.3749999999990741
285 0.1249999999999438 1 0.5
286 0.124999999999958 1 0.6249999999988829
287 0.1249999999999722 1 0.75
288 0.1249999999999864 1 0.8749999999995421
289 0 0.8749999999995155 0.124999999999795
290 0 0.8749999999995297 0.2499999999999264
291 0 0.8749999999995439 0.374999999999068
292 0 0.8749999999995581 0.4999999999998365
293 0 0.8749999999995723 0.6249999999989112
294 0 0.8749999999995866 0.7499999999999175
295 0 0.8749999999996008 0.8749999999995707
296 0 0.7500000000003039 0.1249999999997919
297 0 0.7500000000002601 0.2499999999998527
298 0 0.7500000000002167 0.3749999999990649
299 0 0.7500000000001735 0.499999999999673
300 0 0.75000000000013 0.6249999999989254
301 0 0.7500000000000868 0.7499999999998352
302 0 0.7500000000000432 0.874999999999585
303 0 0.6250000000012284 0.1249999999997888
304 0 0.6250000000012426 0.2499999999997791
305 0 0.6250000000012568 0.3749999999990618
306 0 0.625000000001271 0.4999999999995095
307 0 0.6250000000012852 0.6249999999989395
308 0 0.6250000000012994 0.7499999999997526
309 0 0.6250000000013136 0.8749999999995992
310 0 0.500000000001802 0.1249999999997856
311 0 0.5000000000015447 0.2499999999997055
312 0 0.5000000000012873 0.3749999999990586
313 0 0.5000000000010297 0.4999999999993461
314 0 0.5000000000007724 0.6249999999989538
315 0 0.5000000000005148 0.7499999999996702
316 0 0.5000000000002575 0.8749999999996134
317 0 0.3750000000015751 0.1249999999997825
318 0 0.3750000000015893 0.2499999999996319
319 0 0.3750000000016036 0.3749999999990554
320 0 0.3750000000016177 0.4999999999991825
321 0 0.375000000001632 0.6249999999989683
322 0 0.3750000000016462 0.749999999999588
323 0 0.3750000000016604 0.8749999999996276
324 0 0.2500000000009104 0.1249999999997794
325 0 0.2500000000007804 0.2499999999995582
326 0 0.2500000000006504 0.3749999999990524
327 0 0.2500000000005203 0.499999999999019
328 0 0.2500000000003902 0.6249999999989825
329 0 0.2500000000002601 0.7499999999995054
330 0 0.2500000000001301 0.8749999999996418
331 0 0.1250000000005345 0.1249999999997763
332 0 0.1250000000005487 0.2499999999994846
333 0 0.1250000000005629 0.3749999999990493
334 0 0.1250000000005771 0.4999999999988556
335 0 0.1250000000005914 0.6249999999989967
336 0 0.1250000000006056 0.7499999999994232
337 0 0.1250000000006198 0.8749999999996561
338 1 0.1250000000005484 0.1249999999998013
339 1 0.1250000000005515 0.25
340 1 0.1250000000005546 0.3749999999990741
341 1 0.1250000000005578 0.5
342 1 0.1250000000005609 0.6249999999988829
343 1 0.125000000000564 0.75
344 1 0.1250000000005672 0.8749999999995421
345 1 0.25 0.1249999999998044
346 1 0.25 0.25
347 1 0.25 0.3749999999990773
348 1 0.25 0.5
349 1 0.25 0.6249999999988687
350 1 0.25 0.75
351 1 0.25 0.8749999999995279
352 1 0.375000000001589 0.1249999999998075
353 1 0.3750000000015921 0.25
354 1 0.3750000000015952 0.3749999999990805
355 1 0.3750000000015982 0.5
356 1 0.3750000000016014 0.6249999999988545
357 1 0.3750000000016047 0.75
358 1 0.3750000000016078 0.8749999999995139
359 1 0.5 0.1249999999998107
360 1 0.5 0.25
361 1 0.5 0.3749999999990836
362 1 0.5 0.5
363 1 0.5 0.6249999999988403
364 1 0.5 0.75
365 1 0.5 0.8749999999994995
366 1 0.6250000000010859 0.1249999999998138
367 1 0.6250000000010718 0.25
368 1 0.6250000000010574 0.3749999999990868
369 1 0.6250000000010434 0.5
370 1 0.6250000000010292 0.6249999999988261
371 1 0.625000000001015 0.75
372 1 0.6250000000010008 0.8749999999994853
373 1 0.7499999999999999 0.1249999999998169
374 1 0.75 0.25
375 1 0.75 0.3749999999990899
376 1 0.75 0.5
377 1 0.75 0.6249999999988118
378 1 0.75 0.75
379 1 0.75 0.8749999999994711
380 1 0.8749999999993732 0.12499999999982
381 1 0.874999999999359 0.25
382 1 0.8749999999993449 0.374999999999093
383 1 0.8749999999993305 0.5
384 1 0.8749999999993161 0.6249999999987976
385 1 0.8749999999993021 0.75
386 1 0.8749999999992879 0.8749999999994569
387 0.1249999999997919 0.1250000000005361 0.1249999999997794
388 0.1249999999997964 0.1250000000005489 0.2499999999995491
389 0.1249999999998009 0.1250000000005619 0.3749999999990521
390 0.1249999999998054 0.1250000000005747 0.4999999999989987
391 0.1249999999998099 0.1250000000005876 0.6249999999989824
392 0.1249999999998144 0.1250000000006004 0.7499999999994955
393 0.124999999999819 0.1250000000006132 0.8749999999996418
394 0.1249999999998075 0.2500000000007964 0.1249999999997825
395 0.1249999999998134 0.2500000000006827 0.2499999999996134
396 0.1249999999998194 0.2500000000005691 0.3749999999990553
397 0.1249999999998252 0.2500000000004552 0.4999999999991418
398 0.1249999999998311 0.2500000000003413 0.6249999999989682
399 0.124999999999837 0.2500000000002276 0.7499999999995677
400 0.1249999999998429 0.2500000000001139 0.8749999999996277
401 0.124999999999823 0.3750000000015769 0.1249999999997856
402 0.1249999999998304 0.3750000000015898 0.2499999999996779
403 0.1249999999998377 0.3750000000016025 0.3749999999990584
404 0.1249999999998449 0.3750000000016152 0.4999999999992848
405 0.1249999999998522 0.3750000000016283 0.6249999999989536
406 0.1249999999998594 0.3750000000016411 0.7499999999996394
407 0.1249999999998668 0.3750000000016538 0.8749999999996134
408 0.1249999999998387 0.5000000000015764 0.1249999999997887
409 0.1249999999998473 0.5000000000013517 0.2499999999997423
410 0.124999999999856 0.5000000000011262 0.3749999999990615
411 0.1249999999998647 0.5000000000009012 0.4999999999994278
412 0.1249999999998734 0.500000000000676 0.6249999999989397
413 0.1249999999998821 0.5000000000004503 0.7499999999997111
414 0.1249999999998908 0.500000000000225 0.8749999999995993
415 0.1249999999998543 0.6250000000012105 0.1249999999997919
416 0.1249999999998643 0.6250000000012212 0.2499999999998067
417 0.1249999999998745 0.6250000000012315 0.3749999999990649
418 0.1249999999998845 0.6250000000012425 0.4999999999995708
419 0.1249999999998945 0.6250000000012531 0.6249999999989253
420 0.1249999999999046 0.6250000000012638 0.7499999999997837
421 0.1249999999999147 0.6250000000012743 0.8749999999995852
422 0.1249999999998699 0.750000000000266 0.124999999999795
423 0.1249999999998814 0.7500000000002279 0.2499999999998711
424 0.1249999999998928 0.75000000000019 0.3749999999990681
425 0.1249999999999043 0.7500000000001519 0.4999999999997139
426 0.1249999999999157 0.7500000000001135 0.6249999999989111
427 0.1249999999999271 0.7500000000000759 0.7499999999998561
428 0.1249999999999386 0.7500000000000375 0.8749999999995709
429 0.1249999999998855 0.874999999999498 0.1249999999997981
430 0.1249999999998983 0.8749999999995081 0.2499999999999357
431 0.1249999999999112 0.8749999999995186 0.374999999999071
432 0.124999999999924 0.8749999999995293 0.4999999999998571
433 0.1249999999999368 0.8749999999995404 0.6249999999988971
434 0.1249999999999497 0.8749999999995509 0.7499999999999277
435 0.1249999999999625 0.8749999999995617 0.8749999999995561
436 0.2499999999995489 0.125000000000538 0.1249999999997825
437 0.2499999999996136 0.1250000000005495 0.2499999999996136
438 0.2499999999996778 0.1250000000005609 0.3749999999990556
439 0.2499999999997423 0.1250000000005722 0.4999999999991416
440 0.2499999999998067 0.1250000000005838 0.6249999999989683
441 0.2499999999998712 0.1250000000005952 0.7499999999995675
442 0.2499999999999356 0.1250000000006067 0.8749999999996275
443 0.2499999999996133 0.2500000000006827 0.1249999999997856
444 0.2499999999996688 0.2500000000005854 0.2499999999996688
445 0.2499999999997239 0.2500000000004878 0.3749999999990589
446 0.2499999999997791 0.2500000000003901 0.4999999999992643
447 0.2499999999998344 0.2500000000002927 0.6249999999989539
448 0.2499999999998896 0.2500000000001952 0.7499999999996292
449 0.2499999999999447 0.2500000000000975 0.8749999999996132
450 0.2499999999996778 0.3750000000015785 0.1249999999997888
451 0.2499999999997238 0.3750000000015898 0.2499999999997239
452 0.2499999999997699 0.3750000000016016 0.374999999999062
453 0.2499999999998159 0.3750000000016128 0.4999999999993869
454 0.2499999999998618 0.3750000000016244 0.6249999999989397
455 0.2499999999999079 0.3750000000016358 0.7499999999996908
456 0.2499999999999539 0.3750000000016472 0.874999999999599
457 0.2499999999997422 0.5000000000013514 0.1249999999997919
458 0.2499999999997791 0.5000000000011589 0.2499999999997791
459 0.2499999999998159 0.5000000000009656 0.374999999999065
460 0.2499999999998528 0.5000000000007722 0.4999999999995095
461 0.2499999999998895 0.5000000000005794 0.6249999999989255
462 0.2499999999999264 0.5000000000003861 0.7499999999997526
463 0.2499999999999632 0.5000000000001931 0.8749999999995851
464 0.2499999999998067 0.6250000000011927 0.1249999999997951
465 0.2499999999998343 0.6250000000011998 0.2499999999998344
466 0.2499999999998619 0.6250000000012067 0.3749999999990681
467 0.2499999999998896 0.6250000000012139 0.499999999999632
468 0.2499999999999171 0.625000000001221 0.6249999999989113
469 0.2499999999999448 0.6250000000012281 0.7499999999998139
470 0.2499999999999724 0.6250000000012353 0.874999999999571
471 0.249999999999871 0.7500000000002279 0.1249999999997981
472 0.2499999999998895 0.7500000000001952 0.2499999999998895
473 0.249999999999908 0.7500000000001624 0.3749999999990712
474 0.2499999999999264 0.7500000000001302 0.4999999999997547
475 0.2499999999999449 0.7500000000000979 0.6249999999988971
476 0.2499999999999632 0.7500000000000656 0.7499999999998763
477 0.2499999999999815 0.7500000000000324 0.8749999999995566
478 0.2499999999999356 0.87499999999948 0.1249999999998013
479 0.2499999999999449 0.8749999999994871 0.2499999999999448
480 0.2499999999999538 0.8749999999994942 0.3749999999990743
481 0.2499999999999632 0.8749999999995012 0.4999999999998774
482 0.2499999999999723 0.8749999999995083 0.6249999999988829
483 0.2499999999999817 0.8749999999995154 0.7499999999999384
484 0.2499999999999908 0.8749999999995224 0.8749999999995419
485 0.3749999999990647 0.1250000000005397 0.1249999999997857
486 0.3749999999990696 0.1250000000005498 0.2499999999996779
487 0.3749999999990738 0.1250000000005598 0.3749999999990584
488 0.3749999999990784 0.1250000000005698 0.4999999999992849
489 0.3749999999990831 0.1250000000005799 0.6249999999989541
490 0.3749999999990874 0.1250000000005899 0.7499999999996396
491 0.3749999999990918 0.1250000000006 0.8749999999996134
492 0.3749999999990804 0.250000000000569 0.1249999999997888
493 0.3749999999990865 0.2500000000004877 0.2499999999997239
494 0.3749999999990921 0.2500000000004065 0.3749999999990618
495 0.3749999999990982 0.2500000000003252 0.4999999999993869
496 0.3749999999991041 0.250000000000244 0.6249999999989397
497 0.3749999999991099 0.2500000000001625 0.7499999999996909
498 0.3749999999991158 0.2500000000000813 0.8749999999995991
499 0.3749999999990961 0.3750000000015803 0.1249999999997919
500 0.3749999999991034 0.3750000000015902 0.2499999999997699
501 0.3749999999991105 0.3750000000016006 0.3749999999990646
502 0.3749999999991181 0.3750000000016105 0.4999999999994891
503 0.3749999999991253 0.3750000000016207 0.6249999999989255
504 0.3749999999991327 0.3750000000016308 0.7499999999997424
505 0.3749999999991398 0.3750000000016407 0.8749999999995848
506 0.3749999999991116 0.500000000001126 0.1249999999997951
507 0.3749999999991201 0.5000000000009656 0.2499999999998159
508 0.3749999999991288 0.5000000000008045 0.3749999999990679
509 0.3749999999991375 0.5000000000006434 0.4999999999995912
510 0.3749999999991463 0.5000000000004828 0.6249999999989113
511 0.3749999999991552 0.5000000000003217 0.7499999999997939
512 0.3749999999991637 0.5000000000001609 0.8749999999995706
513 0.3749999999991274 0.6250000000011748 0.1249999999997982
514 0.3749999999991374 0.6250000000011785 0.2499999999998619
515 0.3749999999991474 0.6250000000011818 0.3749999999990712
516 0.3749999999991575 0.6250000000011856 0.4999999999996932
517 0.3749999999991676 0.6250000000011888 0.6249999999988971
518 0.3749999999991775 0.6250000000011924 0.7499999999998455
519 0.3749999999991879 0.6250000000011959 0.8749999999995567
520 0.3749999999991429 0.75000000000019 0.1249999999998013
521 0.3749999999991543 0.7500000000001623 0.249999999999908
522 0.3749999999991658 0.7500000000001354 0.3749999999990743
523 0.3749999999991774 0.7500000000001082 0.4999999999997958
524 0.3749999999991888 0.7500000000000813 0.6249999999988829
525 0.3749999999992003 0.7500000000000541 0.749999999999897
526 0.3749999999992114 0.7500000000000271 0.8749999999995423
527 0.3749999999991585 0.8749999999994623 0.1249999999998044
528 0.3749999999991716 0.8749999999994652 0.249999999999954
529 0.3749999999991843 0.8749999999994693 0.3749999999990774
530 0.3749999999991972 0.8749999999994724 0.4999999999998979
531 0.3749999999992101 0.8749999999994764 0.6249999999988687
532 0.3749999999992227 0.8749999999994799 0.7499999999999485
533 0.3749999999992355 0.8749999999994834 0.8749999999995277
534 0.4999999999989987 0.1250000000005414 0.1249999999997888
535 0.4999999999991415 0.1250000000005501 0.2499999999997423
536 0.4999999999992847 0.1250000000005587 0.3749999999990616
537 0.4999999999994277 0.1250000000005674 0.4999999999994277
538 0.4999999999995707 0.1250000000005762 0.6249999999989397
539 0.4999999999997137 0.1250000000005847 0.7499999999997117
540 0.4999999999998568 0.1250000000005935 0.8749999999995993
541 0.4999999999991417 0.2500000000004552 0.1249999999997919
542 0.4999999999992641 0.2500000000003901 0.2499999999997792
543 0.4999999999993869 0.2500000000003252 0.374999999999065
544 0.4999999999995094 0.2500000000002601 0.4999999999995095
545 0.499999999999632 0.2500000000001953 0.6249999999989254
546 0.4999999999997548 0.2500000000001301 0.7499999999997526
547 0.4999999999998773 0.250000000000065 0.8749999999995846
548 0.4999999999992846 0.3750000000015821 0.1249999999997951
549 0.499999999999387 0.3750000000015907 0.2499999999998159
550 0.4999999999994892 0.3750000000015994 0.374999999999068
551 0.4999999999995912 0.375000000001608 0.4999999999995912
552 0.4999999999996934 0.3750000000016167 0.6249999999989111
553 0.4999999999997957 0.3750000000016254 0.7499999999997939
554 0.4999999999998977 0.375000000001634 0.8749999999995708
555 0.4999999999994275 0.5000000000009009 0.1249999999997982
556 0.4999999999995095 0.5000000000007723 0.2499999999998527
557 0.4999999999995913 0.5000000000006435 0.3749999999990713
558 0.4999999999996729 0.5000000000005148 0.499999999999673
559 0.4999999999997545 0.5000000000003861 0.6249999999988971
560 0.4999999999998364 0.5000000000002573 0.749999999999835
561 0.4999999999999181 0.5000000000001287 0.8749999999995567
562 0.4999999999995708 0.6250000000011569 0.1249999999998013
563 0.4999999999996321 0.625000000001157 0.2499999999998895
564 0.4999999999996934 0.625000000001157 0.3749999999990743
565 0.4999999999997548 0.6250000000011573 0.4999999999997549
566 0.4999999999998164 0.6250000000011569 0.6249999999988829
567 0.4999999999998774 0.6250000000011571 0.7499999999998763
568 0.4999999999999386 0.6250000000011571 0.8749999999995426
569 0.4999999999997138 0.7500000000001514 0.1249999999998044
570 0.4999999999997545 0.7500000000001301 0.2499999999999263
571 0.4999999999997956 0.7500000000001081 0.3749999999990774
572 0.4999999999998365 0.7500000000000866 0.4999999999998364
573 0.4999999999998775 0.7500000000000646 0.6249999999988687
574 0.4999999999999181 0.7500000000000433 0.7499999999999178
575 0.4999999999999589 0.7500000000000218 0.8749999999995279
576 0.4999999999998568 0.8749999999994446 0.1249999999998075
577 0.4999999999998772 0.874999999999444 0.2499999999999631
578 0.4999999999998977 0.874999999999444 0.3749999999990805
579 0.4999999999999181 0.874999999999444 0.4999999999999184
580 0.4999999999999388 0.8749999999994444 0.6249999999988545
581 0.4999999999999589 0.8749999999994444 0.7499999999999587
582 0.4999999999999793 0.8749999999994443 0.8749999999995136
583 0.6249999999990146 0.1250000000005432 0.1249999999997919
584 0.6249999999990036 0.1250000000005504 0.2499999999998067
585 0.6249999999989934 0.1250000000005577 0.3749999999990648
586 0.6249999999989824 0.1250000000005651 0.499999999999571
587 0.6249999999989716 0.1250000000005723 0.6249999999989254
588 0.6249999999989609 0.1250000000005797 0.7499999999997837
589 0.6249999999989504 0.1250000000005869 0.8749999999995851
590 0.6249999999990319 0.2500000000003413 0.124999999999795
591 0.6249999999990249 0.2500000000002927 0.2499999999998344
592 0.624999999999018 0.2500000000002439 0.3749999999990682
593 0.6249999999990106 0.250000000000195 0.499999999999632
594 0.6249999999990036 0.2500000000001463 0.6249999999989113
595 0.6249999999989964 0.2500000000000974 0.7499999999998146
596 0.6249999999989893 0.2500000000000488 0.8749999999995705
597 0.6249999999990498 0.3750000000015837 0.1249999999997982
598 0.6249999999990467 0.3750000000015913 0.2499999999998619
599 0.624999999999043 0.3750000000015983 0.3749999999990713
600 0.6249999999990394 0.3750000000016056 0.4999999999996935
601 0.6249999999990355 0.3750000000016129 0.6249999999988969
602 0.6249999999990319 0.3750000000016204 0.7499999999998455
603 0.6249999999990289 0.3750000000016277 0.8749999999995564
604 0.624999999999068 0.5000000000006758 0.1249999999998012
605 0.6249999999990679 0.5000000000005794 0.2499999999998895
606 0.624999999999068 0.5000000000004828 0.3749999999990743
607 0.624999999999068 0.5000000000003861 0.4999999999997548
608 0.6249999999990679 0.5000000000002895 0.6249999999988828
609 0.6249999999990679 0.5000000000001933 0.7499999999998763
610 0.6249999999990679 0.5000000000000966 0.8749999999995424
611 0.6249999999990856 0.6250000000011393 0.1249999999998044
612 0.6249999999990891 0.6250000000011358 0.2499999999999172
613 0.6249999999990927 0.6250000000011322 0.3749999999990773
614 0.6249999999990963 0.6250000000011289 0.4999999999998159
615 0.6249999999991001 0.6250000000011249 0.6249999999988687
616 0.6249999999991034 0.6250000000011215 0.7499999999999072
617 0.6249999999991069 0.625000000001118 0.8749999999995284
618 0.6249999999991034 0.7500000000001139 0.1249999999998075
619 0.6249999999991105 0.7500000000000973 0.2499999999999448
620 0.6249999999991176 0.7500000000000813 0.3749999999990804
621 0.6249999999991247 0.7500000000000651 0.4999999999998774
622 0.6249999999991318 0.7500000000000488 0.6249999999988545
623 0.6249999999991389 0.7500000000000324 0.7499999999999383
624 0.624999999999146 0.7500000000000162 0.8749999999995136
625 0.6249999999991213 0.8749999999994268 0.1249999999998107
626 0.6249999999991318 0.8749999999994225 0.2499999999999724
627 0.6249999999991425 0.8749999999994196 0.3749999999990835
628 0.6249999999991531 0.8749999999994156 0.4999999999999387
629 0.6249999999991638 0.8749999999994125 0.6249999999988403
630 0.6249999999991743 0.8749999999994089 0.7499999999999691
631 0.6249999999991851 0.8749999999994054 0.8749999999994993
632 0.7499999999994953 0.1250000000005449 0.1249999999997951
633 0.749999999999567 0.1250000000005508 0.2499999999998712
634 0.7499999999996393 0.1250000000005567 0.3749999999990681
635 0.7499999999997116 0.1250000000005626 0.4999999999997139
636 0.7499999999997834 0.1250000000005686 0.6249999999989113
637 0.7499999999998559 0.1250000000005744 0.7499999999998561
638 0.7499999999999278 0.1250000000005803 0.8749999999995709
639 0.7499999999995672 0.2500000000002276 0.1249999999997981
640 0.7499999999996293 0.250000000000195 0.2499999999998895
641 0.7499999999996909 0.2500000000001625 0.3749999999990712
642 0.7499999999997531 0.2500000000001302 0.4999999999997548
643 0.7499999999998146 0.2500000000000976 0.6249999999988971
644 0.7499999999998763 0.2500000000000651 0.7499999999998763
645 0.7499999999999384 0.2500000000000325 0.874999999999556
646 0.7499999999996394 0.3750000000015855 0.1249999999998013
647 0.7499999999996909 0.3750000000015914 0.249999999999908
648 0.7499999999997424 0.3750000000015973 0.3749999999990743
649 0.7499999999997939 0.3750000000016032 0.4999999999997956
650 0.7499999999998455 0.3750000000016092 0.6249999999988827
651 0.7499999999998974 0.3750000000016151 0.749999999999897
652 0.7499999999999485 0.375000000001621 0.8749999999995425
653 0.749999999999712 0.5000000000004503 0.1249999999998044
654 0.7499999999997531 0.5000000000003861 0.2499999999999264
655 0.7499999999997939 0.500000000000322 0.3749999999990773
656 0.7499999999998354 0.5000000000002575 0.4999999999998367
657 0.7499999999998762 0.5000000000001933 0.6249999999988687
658 0.7499999999999176 0.5000000000001288 0.7499999999999176
659 0.749999999999959 0.5000000000000644 0.8749999999995283
660 0.7499999999997837 0.6250000000011214 0.1249999999998076
661 0.7499999999998146 0.6250000000011144 0.2499999999999448
662 0.7499999999998456 0.6250000000011073 0.3749999999990807
663 0.7499999999998763 0.6250000000011005 0.4999999999998775
664 0.7499999999999075 0.6250000000010929 0.6249999999988545
665 0.7499999999999385 0.625000000001086 0.7499999999999383
666 0.7499999999999691 0.6250000000010789 0.8749999999995142
667 0.7499999999998554 0.7500000000000759 0.1249999999998107
668 0.7499999999998768 0.7500000000000651 0.2499999999999632
669 0.749999999999897 0.750000000000054 0.3749999999990837
670 0.7499999999999176 0.7500000000000436 0.4999999999999183
671 0.7499999999999385 0.7500000000000323 0.6249999999988403
672 0.7499999999999591 0.7500000000000219 0.7499999999999588
673 0.7499999999999792 0.7500000000000111 0.8749999999994995
674 0.7499999999999278 0.874999999999409 0.1249999999998138
675 0.7499999999999383 0.8749999999994014 0.2499999999999816
676 0.7499999999999487 0.8749999999993946 0.3749999999990868
677 0.749999999999959 0.8749999999993872 0.4999999999999591
678 0.7499999999999691 0.8749999999993801 0.6249999999988261
679 0.7499999999999793 0.8749999999993735 0.7499999999999795
680 0.7499999999999899 0.8749999999993663 0.8749999999994852
681 0.8749999999996736 0.1250000000005467 0.1249999999997981
682 0.8749999999996629 0.1250000000005512 0.2499999999999356
683 0.8749999999996523 0.1250000000005557 0.3749999999990711
684 0.8749999999996416 0.1250000000005602 0.499999999999857
685 0.8749999999996311 0.1250000000005647 0.6249999999988973
686 0.8749999999996202 0.1250000000005692 0.7499999999999277
687 0.8749999999996095 0.1250000000005738 0.8749999999995567
688 0.8749999999996912 0.2500000000001138 0.1249999999998012
689 0.8749999999996841 0.2500000000000975 0.2499999999999448
690 0.8749999999996771 0.2500000000000813 0.3749999999990743
691 0.8749999999996705 0.2500000000000651 0.4999999999998775
692 0.8749999999996634 0.2500000000000489 0.6249999999988829
693 0.8749999999996557 0.2500000000000325 0.7499999999999383
694 0.8749999999996487 0.2500000000000162 0.874999999999542
695 0.8749999999997093 0.3750000000015871 0.1249999999998044
696 0.8749999999997055 0.3750000000015919 0.249999999999954
697 0.8749999999997029 0.3750000000015963 0.3749999999990774
698 0.8749999999996987 0.3750000000016007 0.4999999999998979
699 0.8749999999996954 0.3750000000016052 0.6249999999988688
700 0.8749999999996922 0.3750000000016099 0.7499999999999485
701 0.8749999999996882 0.3750000000016144 0.8749999999995282
702 0.8749999999997268 0.500000000000225 0.1249999999998075
703 0.8749999999997269 0.5000000000001933 0.2499999999999633
704 0.8749999999997267 0.5000000000001605 0.3749999999990805
705 0.8749999999997273 0.5000000000001288 0.4999999999999183
706 0.8749999999997273 0.5000000000000966 0.6249999999988545
707 0.8749999999997267 0.5000000000000644 0.7499999999999587
708 0.8749999999997269 0.5000000000000322 0.8749999999995142
709 0.8749999999997444 0.6250000000011039 0.1249999999998107
710 0.8749999999997482 0.6250000000010931 0.2499999999999724
711 0.8749999999997518 0.625000000001082 0.3749999999990835
712 0.8749999999997558 0.625000000001072 0.4999999999999387
713 0.8749999999997591 0.6250000000010609 0.6249999999988403
714 0.8749999999997623 0.6250000000010504 0.7499999999999686
715 0.874999999999766 0.6250000000010398 0.8749999999994995
716 0.8749999999997626 0.750000000000038 0.1249999999998138
717 0.8749999999997694 0.7500000000000323 0.2499999999999816
718 0.8749999999997774 0.750000000000027 0.3749999999990867
719 0.8749999999997841 0.7500000000000219 0.4999999999999591
720 0.8749999999997911 0.7500000000000161 0.6249999999988261
721 0.8749999999997986 0.7500000000000105 0.7499999999999793
722 0.8749999999998053 0.7500000000000051 0.8749999999994851
723 0.8749999999997805 0.8749999999993913 0.1249999999998169
724 0.8749999999997906 0.8749999999993802 0.2499999999999908
725 0.8749999999998022 0.8749999999993694 0.3749999999990897
726 0.8749999999998124 0.8749999999993587 0.4999999999999796
727 0.874999999999823 0.8749999999993482 0.624999999998812
728 0.8749999999998341 0.8749999999993379 0.7499999999999898
729 0.8749999999998445 0.8749999999993272 0.874999999999471
$EndNodes
$Elements
896
1 3 2 55 1 1 9 93 36
2 3 2 55 1 36 93 94 35
3 3 2 55 1 35 94 95 34
4 3 2 55 1 34 95 96 33
5 3 2 55 1 33 96 97 32
6 3 2 55 1 32 97 98 31
7 3 2 55 1 31 98 99 30
8 3 2 55 1 30 99 29 4
9 3 2 55 1 9 10 100 93
10 3 2 55 1 93 100 101 94
11 3 2 55 1 94 101 102 95
12 3 2 55 1 95 102 103 96
13 3 2 55 1 96 103 104 97
14 3 2 55 1 97 104 105 98
15 3 2 55 1 98 105 106 99
16 3 2 55 1 99 106 28 29
17 3 2 55 1 10 11 107 100
18 3 2 55 1 100 107 108 101
19 3 2 55 1 101 108 109 102
20 3 2 55 1 102 109 110 103
21 3 2 55 1 103 110 111 104
22 3 2 55 1 104 111 112 105
23 3 2 55 1 105 112 113 106
24 3 2 55 1 106 113 27 28
25 3 2 55 1 11 12 114 107
26 3 2 55 1 107 114 115 108
27 3 2 55 1 108 115 116 109
28 3 2 55 1 109 116 117 110
29 3 2 55 1 110 117 118 111
30 3 2 55 1 111 118 119 112
31 3 2 55 1 112 119 120 113
32 3 2 55 1 113 120 26 27
33 3 2 55 1 12 13 121 114
34 3 2 55 1 114 121 122 115
35 3 2 55 1 115 122 123 116
36 3 2 55 1 116 123 124 117
37 3 2 55 1 117 124 125 118
38 3 2 55 1 118 125 126 119
39 3 2 55 1 119 126 127 120
40 3 2 55 1 120 127 25 26
41 3 2 55 1 13 14 128 121
42 3 2 55 1 121 128 129 122
43 3 2 55 1 122 129 130 123
44 3 2 55 1 123 130 131 124
45 3 2 55 1 124 131 132 125
46 3 2 55 1 125 132 133 126
47 3 2 55 1 126 133 134 127
48 3 2 55 1 127 134 24 25
49 3 2 55 1 14 15 135 128
50 3 2 55 1 128 135 136 129
51 3 2 55 1 129 136 137 130
52 3 2 55 1 130 137 138 131
53 3 2 55 1 131 138 139 132
54 3 2 55 1 132 139 140 133
55 3 2 55 1 133 140 141 134
56 3 2 55 1 134 141 23 24
57 3 2 55 1 15 2 16 135
58 3 2 55 1 135 16 17 136
59 3 2 55 1 136 17 18 137
60 3 2 55 1 137 18 19 138
61 3 2 55 1 138 19 20 139
62 3 2 55 1 139 20 21 140
63 3 2 55 1 140 21 22 141
64 3 2 55 1 141 22 3 23
65 3 2 66 2 5 37 142 64
66 3 2 66 2 64 142 143 63
67 3 2 66 2 63 143 144 62
68 3 2 66 2 62 144 145 61
69 3 2 66 2 61 145 146 60
70 3 2 66 2 60 146 147 59
71 3 2 66 2 59 147 148 58
72 3 2 66 2 58 148 57 8
73 3 2 66 2 37 38 149 142
74 3 2 66 2 142 149 150 143
75 3 2 66 2 143 150 151 144
76 3 2 66 2 144 151 152 145
77 3 2 66 2 145 152 153 146
78 3 2 66 2 146 153 154 147
79 3 2 66 2 147 154 155 148
80 3 2 66 2 148 155 56 57
81 3 2 66 2 38 39 156 149
82 3 2 66 2 149 156 157 150
83 3 2 66 2 150 157 158 151
84 3 2 66 2 151 158 159 152
85 3 2 66 2 152 159 160 153
86 3 2 66 2 153 160 161 154
87 3 2 66 2 154 161 162 155
88 3 2 66 2 155 162 55 56
89 3 2 66 2 39 40 163 156
90 3 2 66 2 156 163 164 157
91 3 2 66 2 157 164 165 158
92 3 2 66 2 158 165 166 159
93 3 2 66 2 159 166 167 160
94 3 2 66 2 160 167 168 161
95 3 2 66 2 161 168 169 162
96 3 2 66 2 162 169 54 55
97 3 2 66 2 40 41 170 163
98 3 2 66 2 163 170 171 164
99 3 2 66 2 164 171 172 165
100 3 2 66 2 165 172 173 166
101 3 2 66 2 166 173 174 167
102 3 2 66 2 167 174 175 168
103 3 2 66 2 168 175 176 169
104 3 2 66 2 169 176 53 54
105 3 2 66 2 41 42 177 170
106 3 2 66 2 170 177 178 171
107 3 2 66 2 171 178 179 172
108 3 2 66 2 172 179 180 173
109 3 2 66 2 173 180 181 174
110 3 2 66 2 174 181 182 175
111 3 2 66 2 175 182 183 176
112 3 2 66 2 176 183 52 53
113 3 2 66 2 42 43 184 177
114 3 2 66 2 177 184 185 178
115 3 2 66 2 178 185 186 179
116 3 2 66 2 179 186 187 180
117 3 2 66 2 180 187 188 181
118 3 2 66 2 181 188 189 182
119 3 2 66 2 182 189 190 183
120 3 2 66 2 183 190 51 52
121 3 2 66 2 43 6 44 184
122 3 2 66 2 184 44 45 185
123 3 2 66 2 185 45 46 186
124 3 2 66 2 186 46 47 187
125 3 2 66 2 187 47 48 188
126 3 2 66 2 188 48 49 189
127 3 2 66 2 189 49 50 190
128 3 2 66 2 190 50 7 51
129 3 2 44 3 1 9 191 65
130 3 2 44 3 65 191 192 66
131 3 2 44 3 66 192 193 67
132 3 2 44 3 67 193 194 68
133 3 2 44 3 68 194 195 69
134 3 2 44 3 69 195 196 70
135 3 2 44 3 70 196 197 71
136 3 2 44 3 71 197 37 5
137 3 2 44 3 9 10 198 191
138 3 2 44 3 191 198 199 192
139 3 2 44 3 192 199 200 193
140 3 2 44 3 193 200 201 194
141 3 2 44 3 194 201 202 195
142 3 2 44 3 195 202 203 196
143 3 2 44 3 196 203 204 197
144 3 2 44 3 197 204 38 37
145 3 2 44 3 10 11 205 198
146 3 2 44 3 198 205 206 199
147 3 2 44 3 199 206 207 200
148 3 2 44 3 200 207 208 201
149 3 2 44 3 201 208 209 202
150 3 2 44 3 202 209 210 203
151 3 2 44 3 203 210 211 204
152 3 2 44 3 204 211 39 38
153 3 2 44 3 11 12 212 205
154 3 2 44 3 205 212 213 206
155 3 2 44 3 206 213 214 207
156 3 2 44 3 207 214 215 208
157 3 2 44 3 208 215 216 209
158 3 2 44 3 209 216 217 210
159 3 2 44 3 210 217 218 211
160 3 2 44 3 211 218 40 39
161 3 2 44 3 12 13 219 212
162 3 2 44 3 212 219 220 213
163 3 2 44 3 213 220 221 214
164 3 2 44 3 214 221 222 215
165 3 2 44 3 215 222 223 216
166 3 2 44 3 216 223 224 217
167 3 2 44 3 217 224 225 218
168 3 2 44 3 218 225 41 40
169 3 2 44 3 13 14 226 219
170 3 2 44 3 219 226 227 220
171 3 2 44 3 220 227 228 221
172 3 2 44 3 221 228 229 222
173 3 2 44 3 222 229 230 223
174 3 2 44 3 223 230 231 224
175 3 2 44 3 224 231 232 225
176 3 2 44 3 225 232 42 41
177 3 2 44 3 14 15 233 226
178 3 2 44 3 226 233 234 227
179 3 2 44 3 227 234 235 228
180 3 2 44 3 228 235 236 229
181 3 2 44 3 229 236 237 230
182 3 2 44 3 230 237 238 231
183 3 2 44 3 231 238 239 232
184 3 2 44 3 232 239 43 42
185 3 2 44 3 15 2 72 233
186 3 2 44 3 233 72 73 234
187 3 2 44 3 234 73 74 235
188 3 2 44 3 235 74 75 236
189 3 2 44 3 236 75 76 237
190 3 2 44 3 237 76 77 238
191 3 2 44 3 238 77 78 239
192 3 2 44 3 239 78 6 43
193 3 2 33 4 3 23 240 79
194 3 2 33 4 79 240 241 80
195 3 2 33 4 80 241 242 81
196 3 2 33 4 81 242 243 82
197 3 2 33 4 82 243 244 83
198 3 2 33 4 83 244 245 84
199 3 2 33 4 84 245 246 85
200 3 2 33 4 85 246 51 7
201 3 2 33 4 23 24 247 240
202 3 2 33 4 240 247 248 241
203 3 2 33 4 241 248 249 242
204 3 2 33 4 242 249 250 243
205 3 2 33 4 243 250 251 244
206 3 2 33 4 244 251 252 245
207 3 2 33 4 245 252 253 246
208 3 2 33 4 246 253 52 51
209 3 2 33 4 24 25 254 247
210 3 2 33 4 247 254 255 248
211 3 2 33 4 248 255 256 249
212 3 2 33 4 249 256 257 250
213 3 2 33 4 250 257 258 251
214 3 2 33 4 251 258 259 252
215 3 2 33 4 252 259 260 253
216 3 2 33 4 253 260 53 52
217 3 2 33 4 25 26 261 254
218 3 2 33 4 254 261 262 255
219 3 2 33 4 255 262 263 256
220 3 2 33 4 256 263 264 257
221 3 2 33 4 257 264 265 258
222 3 2 33 4 258 265 266 259
223 3 2 33 4 259 266 267 260
224 3 2 33 4 260 267 54 53
225 3 2 33 4 26 27 268 261
226 3 2 33 4 261 268 269 262
227 3 2 33 4 262 269 270 263
228 3 2 33 4 263 270 271 264
229 3 2 33 4 264 271 272 265
230 3 2 33 4 265 272 273 266
231 3 2 33 4 266 273 274 267
232 3 2 33 4 267 274 55 54
233 3 2 33 4 27 28 275 268
234 3 2 33 4 268 275 276 269
235 3 2 33 4 269 276 277 270
236 3 2 33 4 270 277 278 271
237 3 2 33 4 271 278 279 272
238 3 2 33 4 272 279 280 273
239 3 2 33 4 273 280 281 274
240 3 2 33 4 274 281 56 55
241 3 2 33 4 28 29 282 275
242 3 2 33 4 275 282 283 276
243 3 2 33 4 276 283 284 277
244 3 2 33 4 277 284 285 278
245 3 2 33 4 278 285 286 279
246 3 2 33 4 279 286 287 280
247 3 2 33 4 280 287 288 281
248 3 2 33 4 281 288 57 56
249 3 2 33 4 29 4 86 282
250 3 2 33 4 282 86 87 283
251 3 2 33 4 283 87 88 284
252 3 2 33 4 284 88 89 285
253 3 2 33 4 285 89 90 286
254 3 2 33 4 286 90 91 287
255 3 2 33 4 287 91 92 288
256 3 2 33 4 288 92 8 57
257 3 2 11 5 4 30 289 86
258 3 2 11 5 86 289 290 87
259 3 2 11 5 87 290 291 88
260 3 2 11 5 88 291 292 89
261 3 2 11 5 89 292 293 90
262 3 2 11 5 90 293 294 91
263 3 2 11 5 91 294 295 92
264 3 2 11 5 92 295 58 8
265 3 2 11 5 30 31 296 289
266 3 2 11 5 289 296 297 290
267 3 2 11 5 290 297 298 291
268 3 2 11 5 291 298 299 292
269 3 2 11 5 292 299 300 293
270 3 2 11 5 293 300 301 294
271 3 2 11 5 294 301 302 295
272 3 2 11 5 295 302 59 58
273 3 2 11 5 31 32 303 296
274 3 2 11 5 296 303 304 297
275 3 2 11 5 297 304 305 298
276 3 2 11 5 298 305 306 299
277 3 2 11 5 299 306 307 300
278 3 2 11 5 300 307 308 301
279 3 2 11 5 301 308 309 302
280 3 2 11 5 302 309 60 59
281 3 2 11 5 32 33 310 303
282 3 2 11 5 303 310 311 304
283 3 2 11 5 304 311 312 305
284 3 2 11 5 305 312 313 306
285 3 2 11 5 306 313 314 307
286 3 2 11 5 307 314 315 308
287 3 2 11 5 308 315 316 309
288 3 2 11 5 309 316 61 60
289 3 2 11 5 33 34 317 310
290 3 2 11 5 310 317 318 311
291 3 2 11 5 311 318 319 312
292 3 2 11 5 312 319 320 313
293 3 2 11 5 313 320 321 314
294 3 2 11 5 314 321 322 315
295 3 2 11 5 315 322 323 316
296 3 2 11 5 316 323 62 61
297 3 2 11 5 34 35 324 317
298 3 2 11 5 317 324 325 318
299 3 2 11 5 318 325 326 319
300 3 2 11 5 319 326 327 320
301 3 2 11 5 320 327 328 321
302 3 2 11 5 321 328 329 322
303 3 2 11 5 322 329 330 323
304 3 2 11 5 323 330 63 62
305 3 2 11 5 35 36 331 324
306 3 2 11 5 324 331 332 325
307 3 2 11 5 325 332 333 326
308 3 2 11 5 326 333 334 327
309 3 2 11 5 327 334 335 328
310 3 2 11 5 328 335 336 329
311 3 2 11 5 329 336 337 330
312 3 2 11 5 330 337 64 63
313 3 2 11 5 36 1 65 331
314 3 2 11 5 331 65 66 332
315 3 2 11 5 332 66 67 333
316 3 2 11 5 333 67 68 334
317 3 2 11 5 334 68 69 335
318 3 2 11 5 335 69 70 336
319 3 2 11 5 336 70 71 337
320 3 2 11 5 337 71 5 64
321 3 2 22 6 2 16 338 72
322 3 2 22 6 72 338 339 73
323 3 2 22 6 73 339 340 74
324 3 2 22 6 74 340 341 75
325 3 2 22 6 75 341 342 76
326 3 2 22 6 76 342 343 77
327 3 2 22 6 77 343 344 78
328 3 2 22 6 78 344 44 6
329 3 2 22 6 16 17 345 338
330 3 2 22 6 338 345 346 339
331 3 2 22 6 339 346 347 340
332 3 2 22 6 340 347 348 341
333 3 2 22 6 341 348 349 342
334 3 2 22 6 342 349 350 343
335 3 2 22 6 343 350 351 344
336 3 2 22 6 344 351 45 44
337 3 2 22 6 17 18 352 345
338 3 2 22 6 345 352 353 346
339 3 2 22 6 346 353 354 347
340 3 2 22 6 347 354 355 348
341 3 2 22 6 348 355 356 349
342 3 2 22 6 349 356 357 350
343 3 2 22 6 350 357 358 351
344 3 2 22 6 351 358 46 45
345 3 2 22 6 18 19 359 352
346 3 2 22 6 352 359 360 353
347 3 2 22 6 353 360 361 354
348 3 2 22 6 354 361 362 355
349 3 2 22 6 355 362 363 356
350 3 2 22 6 356 363 364 357
351 3 2 22 6 357 364 365 358
352 3 2 22 6 358 365 47 46
353 3 2 22 6 19 20 366 359
354 3 2 22 6 359 366 367 360
355 3 2 22 6 360 367 368 361
356 3 2 22 6 361 368 369 362
357 3 2 22 6 362 369 370 363
358 3 2 22 6 363 370 371 364
359 3 2 22 6 364 371 372 365
360 3 2 22 6 365 372 48 47
361 3 2 22 6 20 21 373 366
362 3 2 22 6 366 373 374 367
363 3 2 22 6 367 374 375 368
364 3 2 22 6 368 375 376 369
365 3 2 22 6 369 376 377 370
366 3 2 22 6 370 377 378 371
367 3 2 22 6 371 378 379 372
368 3 2 22 6 372 379 49 48
369 3 2 22 6 21 22 380 373
370 3 2 22 6 373 380 381 374
371 3 2 22 6 374 381 382 375
372 3 2 22 6 375 382 383 376
373 3 2 22 6 376 383 384 377
374 3 2 22 6 377 384 385 378
375 3 2 22 6 378 385 386 379
376 3 2 22 6 379 386 50 49
377 3 2 22 6 22 3 79 380
378 3 2 22 6 380 79 80 381
379 3 2 22 6 381 80 81 382
380 3 2 22 6 382 81 82 383
381 3 2 22 6 383 82 83 384
382 3 2 22 6 384 83 84 385
383 3 2 22 6 385 84 85 386
384 3 2 22 6 386 85 7 50
385 5 2 1 1 1 9 93 36 65 191 387 331
386 5 2 1 1 65 191 387 331 66 192 388 332
387 5 2 1 1 66 192 388 332 67 193 389 333
388 5 2 1 1 67 193 389 333 68 194 390 334
389 5 2 1 1 68 194 390 334 69 195 391 335
390 5 2 1 1 69 195 391 335 70 196 392 336
391 5 2 1 1 70 196 392 336 71 197 393 337
392 5 2 1 1 71 197 393 337 5 37 142 64
393 5 2 1 1 36 93 94 35 331 387 394 324
394 5 2 1 1 331 387 394 324 332 388 395 325
395 5 2 1 1 332 388 395 325 333 389 396 326
396 5 2 1 1 333 389 396 326 334 390 397 327
397 5 2 1 1 334 390 397 327 335 391 398 328
398 5 2 1 1 335 391 398 328 336 392 399 329
399 5 2 1 1 336 392 399 329 337 393 400 330
400 5 2 1 1 337 393 400 330 64 142 143 63
401 5 2 1 1 35 94 95 34 324 394 401 317
402 5 2 1 1 324 394 401 317 325 395 402 318
403 5 2 1 1 325 395 402 318 326 396 403 319
404 5 2 1 1 326 396 403 319 327 397 404 320
405 5 2 1 1 327 397 404 320 328 398 405 321
406 5 2 1 1 328 398 405 321 329 399 406 322
407 5 2 1 1 329 399 406 322 330 400 407 323
408 5 2 1 1 330 400 407 323 63 143 144 62
409 5 2 1 1 34 95 96 33 317 401 408 310
410 5 2 1 1 317 401 408 310 318 402 409 311
411 5 2 1 1 318 402 409 311 319 403 410 312
412 5 2 1 1 319 403 410 312 320 404 411 313
413 5 2 1 1 320 404 411 313 321 405 412 314
414 5 2 1 1 321 405 412 314 322 406 413 315
415 5 2 1 1 322 406 413 315 323 407 414 316
416 5 2 1 1 323 407 414 316 62 144 145 61
417 5 2 1 1 33 96 97 32 310 408 415 303
418 5 2 1 1 310 408 415 303 311 409 416 304
419 5 2 1 1 311 409 416 304 312 410 417 305
420 5 2 1 1 312 410 417 305 313 411 418 306
421 5 2 1 1 313 411 418 306 314 412 419 307
422 5 2 1 1 314 412 419 307 315 413 420 308
423 5 2 1 1 315 413 420 308 316 414 421 309
424 5 2 1 1 316 414 421 309 61 145 146 60
425 5 2 1 1 32 97 98 31 303 415 422 296
426 5 2 1 1 303 415 422 296 304 416 423 297
427 5 2 1 1 304 416 423 297 305 417 424 298
428 5 2 1 1 305 417 424 298 306 418 425 299
429 5 2 1 1 306 418 425 299 307 419 426 300
430 5 2 1 1 307 419 426 300 308 420 427 301
431 5 2 1 1 308 420 427 301 309 421 428 302
432 5 2 1 1 309 421 428 302 60 146 147 59
433 5 2 1 1 31 98 99 30 296 422 429 289
434 5 2 1 1 296 422 429 289 297 423 430 290
435 5 2 1 1 297 423 430 290 298 424 431 291
436 5 2 1 1 298 424 431 291 299 425 432 292
437 5 2 1 1 299 425 432 292 300 426 433 293
438 5 2 1 1 300 426 433 293 301 427 434 294
439 5 2 1 1 301 427 434 294 302 428 435 295
440 5 2 1 1 302 428 435 295 59 147 148 58
441 5 2 1 1 30 99 29 4 289 429 282 86
442 5 2 1 1 289 429 282 86 290 430 283 87
443 5 2 1 1 290 430 283 87 291 431 284 88
444 5 2 1 1 291 431 284 88 292 432 285 89
445 5 2 1 1 292 432 285 89 293 433 286 90
446 5 2 1 1 293 433 286 90 294 434 287 91
447 5 2 1 1 294 434 287 91 295 435 288 92
448 5 2 1 1 295 435 288 92 58 148 57 8
449 5 2 1 1 9 10 100 93 191 198 436 387
450 5 2 1 1 191 198 436 387 192 199 437 388
451 5 2 1 1 192 199 437 388 193 200 438 389
452 5 2 1 1 193 200 438 389 194 201 439 390
453 5 2 1 1 194 201 439 390 195 202 440 391
454 5 2 1 1 195 202 440 391 196 203 441 392
455 5 2 1 1 196 203 441 392 197 204 442 393
456 5 2 1 1 197 204 442 393 37 38 149 142
457 5 2 1 1 93 100 101 94 387 436 443 394
458 5 2 1 1 387 436 443 394 388 437 444 395
459 5 2 1 1 388 437 444 395 389 438 445 396
460 5 2 1 1 389 438 445 396 390 439 446 397
461 5 2 1 1 390 439 446 397 391 440 447 398
462 5 2 1 1 391 440 447 398 392 441 448 399
463 5 2 1 1 392 441 448 399 393 442 449 400
464 5 2 1 1 393 442 449 400 142 149 150 143
465 5 2 1 1 94 101 102 95 394 443 450 401
466 5 2 1 1 394 443 450 401 395 444 451 402
467 5 2 1 1 395 444 451 402 396 445 452 403
468 5 2 1 1 396 445 452 403 397 446 453 404
469 5 2 1 1 397 446 453 404 398 447 454 405
470 5 2 1 1 398 447 454 405 399 448 455 406
471 5 2 1 1 399 448 455 406 400 449 456 407
472 5 2 1 1 400 449 456 407 143 150 151 144
473 5 2 1 1 95 102 103 96 401 450 457 408
474 5 2 1 1 401 450 457 408 402 451 458 409
475 5 2 1 1 402 451 458 409 403 452 459 410
476 5 2 1 1 403 452 459 410 404 453 460 411
477 5 2 1 1 404 453 460 411 405 454 461 412
478 5 2 1 1 405 454 461 412 406 455 462 413
479 5 2 1 1 406 455 462 413 407 456 463 414
480 5 2 1 1 407 456 463 414 144 151 152 145
481 5 2 1 1 96 103 104 97 408 457 464 415
482 5 2 1 1 408 457 464 415 409 458 465 416
483 5 2 1 1 409 458 465 416 410 459 466 417
484 5 2 1 1 410 459 466 417 411 460 467 418
485 5 2 1 1 411 460 467 418 412 461 468 419
486 5 2 1 1 412 461 468 419 413 462 469 420
487 5 2 1 1 413 462 469 420 414 463 470 421
488 5 2 1 1 414 463 470 421 145 152 153 146
489 5 2 1 1 97 104 105 98 415 464 471 422
490 5 2 1 1 415 464 471 422 416 465 472 423
491 5 2 1 1 416 465 472 423 417 466 473 424
492 5 2 1 1 417 466 473 424 418 467 474 425
493 5 2 1 1 418 467 474 425 419 468 475 426
494 5 2 1 1 419 468 475 426 420 469 476 427
495 5 2 1 1 420 469 476 427 421 470 477 428
496 5 2 1 1 421 470 477 428 146 153 154 147
497 5 2 1 1 98 105 106 99 422 471 478 429
498 5 2 1 1 422 471 478 429 423 472 479 430
499 5 2 1 1 423 472 479 430 424 473 480 431
500 5 2 1 1 424 473 480 431 425 474 481 432
501 5 2 1 1 425 474 481 432 426 475 482 433
502 5 2 1 1 426 475 482 433 427 476 483 434
503 5 2 1 1 427 476 483 434 428 477 484 435
504 5 2 1 1 428 477 484 435 147 154 155 148
505 5 2 1 1 99 106 28 29 429 478 275 282
506 5 2 1 1 429 478 275 282 430 479 276 283
507 5 2 1 1 430 479 276 283 431 480 277 284
508 5 2 1 1 431 480 277 284 432 481 278 285
509 5 2 1 1 432 481 278 285 433 482 279 286
510 5 2 1 1 433 482 279 286 434 483 280 287
511 5 2 1 1 434 483 280 287 435 484 281 288
512 5 2 1 1 435 484 281 288 148 155 56 57
513 5 2 1 1 10 11 107 100 198 205 485 436
514 5 2 1 1 198 205 485 436 199 206 486 437
515 5 2 1 1 199 206 486 437 200 207 487 438
516 5 2 1 1 200 207 487 438 201 208 488 439
517 5 2 1 1 201 208 488 439 202 209 489 440
518 5 2 1 1 202 209 489 440 203 210 490 441
519 5 2 1 1 203 210 490 441 204 211 491 442
520 5 2 1 1 204 211 491 442 38 39 156 149
521 5 2 1 1 100 107 108 101 436 485 492 443
522 5 2 1 1 436 485 492 443 437 486 493 444
523 5 2 1 1 437 486 493 444 438 487 494 445
524 5 2 1 1 438 487 494 445 439 488 495 446
525 5 2 1 1 439 488 495 446 440 489 496 447
526 5 2 1 1 440 489 496 447 441 490 497 448
527 5 2 1 1 441 490 497 448 442 491 498 449
528 5 2 1 1 442 491 498 449 149 156 157 150
529 5 2 1 1 101 108 109 102 443 492 499 450
530 5 2 1 1 443 492 499 450 444 493 500 451
531 5 2 1 1 444 493 500 451 445 494 501 452
532 5 2 1 1 445 494 501 452 446 495 502 453
533 5 2 1 1 446 495 502 453 447 496 503 454
534 5 2 1 1 447 496 503 454 448 497 504 455
535 5 2 1 1 448 497 504 455 449 498 505 456
536 5 2 1 1 449 498 505 456 150 157 158 151
537 5 2 1 1 102 109 110 103 450 499 506 457
538 5 2 1 1 450 499 506 457 451 500 507 458
539 5 2 1 1 451 500 507 458 452 501 508 459
540 5 2 1 1 452 501 508 459 453 502 509 460
541 5 2 1 1 453 502 509 460 454 503 510 461
542 5 2 1 1 454 503 510 461 455 504 511 462
543 5 2 1 1 455 504 511 462 456 505 512 463
544 5 2 1 1 456 505 512 463 151 158 159 152
545 5 2 1 1 103 110 111 104 457 506 513 464
546 5 2 1 1 457 506 513 464 458 507 514 465
547 5 2 1 1 458 507 514 465 459 508 515 466
548 5 2 1 1 459 508 515 466 460 509 516 467
549 5 2 1 1 460 509 516 467 461 510 517 468
550 5 2 1 1 461 510 517 468 462 511 518 469
551 5 2 1 1 462 511 518 469 463 512 519 470
552 5 2 1 1 463 512 519 470 152 159 160 153
553 5 2 1 1 104 111 112 105 464 513 520 471
554 5 2 1 1 464 513 520 471 465 514 521 472
555 5 2 1 1 465 514 521 472 466 515 522 473
556 5 2 1 1 466 515 522 473 467 516 523 474
557 5 2 1 1 467 516 523 474 468 517 524 475
558 5 2 1 1 468 517 524 475 469 518 525 476
559 5 2 1 1 469 518 525 476 470 519 526 477
560 5 2 1 1 470 519 526 477 153 160 161 154
561 5 2 1 1 105 112 113 106 471 520 527 478
562 5 2 1 1 471 520 527 478 472 521 528 479
563 5 2 1 1 472 521 528 479 473 522 529 480
564 5 2 1 1 473 522 529 480 474 523 530 481
565 5 2 1 1 474 523 530 481 475 524 531 482
566 5 2 1 1 475 524 531 482 476 525 532 483
567 5 2 1 1 476 525 532 483 477 526 533 484
568 5 2 1 1 477 526 533 484 154 161 162 155
569 5 2 1 1 106 113 27 28 478 527 268 275
570 5 2 1 1 478 527 268 275 479 528 269 276
571 5 2 1 1 479 528 269 276 480 529 270 277
572 5 2 1 1 480 529 270 277 481 530 271 278
573 5 2 1 1 481 530 271 278 482 531 272 279
574 5 2 1 1 482 531 272 279 483 532 273 280
575 5 2 1 1 483 532 273 280 484 533 274 281
576 5 2 1 1 484 533 274 281 155 162 55 56
577 5 2 1 1 11 12 114 107 205 212 534 485
578 5 2 1 1 205 212 534 485 206 213 535 486
579 5 2 1 1 206 213 535 486 207 214 536 487
580 5 2 1 1 207 214 536 487 208 215 537 488
581 5 2 1 1 208 215 537 488 209 216 538 489
582 5 2 1 1 209 216 538 489 210 217 539 490
583 5 2 1 1 210 217 539 490 211 218 540 491
584 5 2 1 1 211 218 540 491 39 40 163 156
585 5 2 1 1 107 114 115 108 485 534 541 492
586 5 2 1 1 485 534 541 492 486 535 542 493
587 5 2 1 1 486 535 542 493 487 536 543 494
588 5 2 1 1 487 536 543 494 488 537 544 495
589 5 2 1 1 488 537 544 495 489 538 545 496
590 5 2 1 1 489 538 545 496 490 539 546 497
591 5 2 1 1 490 539 546 497 491 540 547 498
592 5 2 1 1 491 540 547 498 156 163 164 157
593 5 2 1 1 108 115 116 109 492 541 548 499
594 5 2 1 1 492 541 548 499 493 542 549 500
595 5 2 1 1 493 542 549 500 494 543 550 501
596 5 2 1 1 494 543 550 501 495 544 551 502
597 5 2 1 1 495 544 551 502 496 545 552 503
598 5 2 1 1 496 545 552 503 497 546 553 504
599 5 2 1 1 497 546 553 504 498 547 554 505
600 5 2 1 1 498 547 554 505 157 164 165 158
601 5 2 1 1 109 116 117 110 499 548 555 506
602 5 2 1 1 499 548 555 506 500 549 556 507
603 5 2 1 1 500 549 556 507 501 550 557 508
604 5 2 1 1 501 550 557 508 502 551 558 509
605 5 2 1 1 502 551 558 509 503 552 559 510
606 5 2 1 1 503 552 559 510 504 553 560 511
607 5 2 1 1 504 553 560 511 505 554 561 512
608 5 2 1 1 505 554 561 512 158 165 166 159
609 5 2 1 1 110 117 118 111 506 555 562 513
610 5 2 1 1 506 555 562 513 507 556 563 514
611 5 2 1 1 507 556 563 514 508 557 564 515
612 5 2 1 1 508 557 564 515 509 558 565 516
613 5 2 1 1 509 558 565 516 510 559 566 517
614 5 2 1 1 510 559 566 517 511 560 567 518
615 5 2 1 1 511 560 567 518 512 561 568 519
616 5 2 1 1 512 561 568 519 159 166 167 160
617 5 2 1 1 111 118 119 112 513 562 569 520
618 5 2 1 1 513 562 569 520 514 563 570 521
619 5 2 1 1 514 563 570 521 515 564 571 522
620 5 2 1 1 515 564 571 522 516 565 572 523
621 5 2 1 1 516 565 572 523 517 566 573 524
622 5 2 1 1 517 566 573 524 518 567 574 525
623 5 2 1 1 518 567 574 525 519 568 575 526
624 5 2 1 1 519 568 575 526 160 167 168 161
625 5 2 1 1 112 119 120 113 520 569 576 527
626 5 2 1 1 520 569 576 527 521 570 577 528
627 5 2 1 1 521 570 577 528 522 571 578 529
628 5 2 1 1 522 571 578 529 523 572 579 530
629 5 2 1 1 523 572 579 530 524 573 580 531
630 5 2 1 1 524 573 580 531 525 574 581 532
631 5 2 1 1 525 574 581 532 526 575 582 533
632 5 2 1 1 526 575 582 533 161 168 169 162
633 5 2 1 1 113 120 26 27 527 576 261 268
634 5 2 1 1 527 576 261 268 528 577 262 269
635 5 2 1 1 528 577 262 269 529 578 263 270
636 5 2 1 1 529 578 263 270 530 579 264 271
637 5 2 1 1 530 579 264 271 531 580 265 272
638 5 2 1 1 531 580 265 272 532 581 266 273
639 5 2 1 1 532 581 266 273 533 582 267 274
640 5 2 1 1 533 582 267 274 162 169 54 55
641 5 2 1 1 12 13 121 114 212 219 583 534
642 5 2 1 1 212 219 583 534 213 220 584 535
643 5 2 1 1 213 220 584 535 214 221 585 536
644 5 2 1 1 214 221 585 536 215 222 586 537
645 5 2 1 1 215 222 586 537 216 223 587 538
646 5 2 1 1 216 223 587 538 217 224 588 539
647 5 2 1 1 217 224 588 539 218 225 589 540
648 5 2 1 1 218 225 589 540 40 41 170 163
649 5 2 1 1 114 121 122 115 534 583 590 541
650 5 2 1 1 534 583 590 541 535 584 591 542
651 5 2 1 1 535 584 591 542 536 585 592 543
652 5 2 1 1 536 585 592 543 537 586 593 544
653 5 2 1 1 537 586 593 544 538 587 594 545
654 5 2 1 1 538 587 594 545 539 588 595 546
655 5 2 1 1 539 588 595 546 540 589 596 547
656 5 2 1 1 540 589 596 547 163 170 171 164
657 5 2 1 1 115 122 123 116 541 590 597 548
658 5 2 1 1 541 590 597 548 542 591 598 549
659 5 2 1 1 542 591 598 549 543 592 599 550
660 5 2 1 1 543 592 599 550 544 593 600 551
661 5 2 1 1 544 593 600 551 545 594 601 552
662 5 2 1 1 545 594 601 552 546 595 602 553
663 5 2 1 1 546 595 602 553 547 596 603 554
664 5 2 1 1 547 596 603 554 164 171 172 165
665 5 2 1 1 116 123 124 117 548 597 604 555
666 5 2 1 1 548 597 604 555 549 598 605 556
667 5 2 1 1 549 598 605 556 550 599 606 557
668 5 2 1 1 550 599 606 557 551 600 607 558
669 5 2 1 1 551 600 607 558 552 601 608 559
670 5 2 1 1 552 601 608 559 553 602 609 560
671 5 2 1 1 553 602 609 560 554 603 610 561
672 5 2 1 1 554 603 610 561 165 172 173 166
673 5 2 1 1 117 124 125 118 555 604 611 562
674 5 2 1 1 555 604 611 562 556 605 612 563
675 5 2 1 1 556 605 612 563 557 606 613 564
676 5 2 1 1 557 606 613 564 558 607 614 565
677 5 2 1 1 558 607 614 565 559 608 615 566
678 5 2 1 1 559 608 615 566 560 609 616 567
679 5 2 1 1 560 609 616 567 561 610 617 568
680 5 2 1 1 561 610 617 568 166 173 174 167
681 5 2 1 1 118 125 126 119 562 611 618 569
682 5 2 1 1 562 611 618 569 563 612 619 570
683 5 2 1 1 563 612 619 570 564 613 620 571
684 5 2 1 1 564 613 620 571 565 614 621 572
685 5 2 1 1 565 614 621 572 566 615 622 573
686 5 2 1 1 566 615 622 573 567 616 623 574
687 5 2 1 1 567 616 623 574 568 617 624 575
688 5 2 1 1 568 617 624 575 167 174 175 168
689 5 2 1 1 119 126 127 120 569 618 625 576
690 5 2 1 1 569 618 625 576 570 619 626 577
691 5 2 1 1 570 619 626 577 571 620 627 578
692 5 2 1 1 571 620 627 578 572 621 628 579
693 5 2 1 1 572 621 628 579 573 622 629 580
694 5 2 1 1 573 622 629 580 574 623 630 581
695 5 2 1 1 574 623 630 581 575 624 631 582
696 5 2 1 1 575 624 631 582 168 175 176 169
697 5 2 1 1 120 127 25 26 576 625 254 261
698 5 2 1 1 576 625 254 261 577 626 255 262
699 5 2 1 1 577 626 255 262 578 627 256 263
700 5 2 1 1 578 627 256 263 579 628 257 264
701 5 2 1 1 579 628 257 264 580 629 258 265
702 5 2 1 1 580 629 258 265 581 630 259 266
703 5 2 1 1 581 630 259 266 582 631 260 267
704 5 2 1 1 582 631 260 267 169 176 53 54
705 5 2 1 1 13 14 128 121 219 226 632 583
706 5 2 1 1 219 226 632 583 220 227 633 584
707 5 2 1 1 220 227 633 584 221 228 634 585
708 5 2 1 1 221 228 634 585 222 229 635 586
709 5 2 1 1 222 229 635 586 223 230 636 587
710 5 2 1 1 223 230 636 587 224 231 637 588
711 5 2 1 1 224 231 637 588 225 232 638 589
712 5 2 1 1 225 232 638 589 41 42 177 170
713 5 2 1 1 121 128 129 122 583 632 639 590
714 5 2 1 1 583 632 639 590 584 633 640 591
715 5 2 1 1 584 633 640 591 585 634 641 592
716 5 2 1 1 585 634 641 592 586 635 642 593
717 5 2 1 1 586 635 642 593 587 636 643 594
718 5 2 1 1 587 636 643 594 588 637 644 595
719 5 2 1 1 588 637 644 595 589 638 645 596
720 5 2 1 1 589 638 645 596 170 177 178 171
721 5 2 1 1 122 129 130 123 590 639 646 597
722 5 2 1 1 590 639 646 597 591 640 647 598
723 5 2 1 1 591 640 647 598 592 641 648 599
724 5 2 1 1 592 641 648 599 593 642 649 600
725 5 2 1 1 593 642 649 600 594 643 650 601
726 5 2 1 1 594 643 650 601 595 644 651 602
727 5 2 1 1 595 644 651 602 596 645 652 603
728 5 2 1 1 596 645 652 603 171 178 179 172
729 5 2 1 1 123 130 131 124 597 646 653 604
730 5 2 1 1 597 646 653 604 598 647 654 605
731 5 2 1 1 598 647 654 605 599 648 655 606
732 5 2 1 1 599 648 655 606 600 649 656 607
733 5 2 1 1 600 649 656 607 601 650 657 608
734 5 2 1 1 601 650 657 608 602 651 658 609
735 5 2 1 1 602 651 658 609 603 652 659 610
736 5 2 1 1 603 652 659 610 172 179 180 173
737 5 2 1 1 124 131 132 125 604 653 660 611
738 5 2 1 1 604 653 660 611 605 654 661 612
739 5 2 1 1 605 654 661 612 606 655 662 613
740 5 2 1 1 606 655 662 613 607 656 663 614
741 5 2 1 1 607 656 663 614 608 657 664 615
742 5 2 1 1 608 657 664 615 609 658 665 616
743 5 2 1 1 609 658 665 616 610 659 666 617
744 5 2 1 1 610 659 666 617 173 180 181 174
745 5 2 1 1 125 132 133 126 611 660 667 618
746 5 2 1 1 611 660 667 618 612 661 668 619
747 5 2 1 1 612 661 668 619 613 662 669 620
748 5 2 1 1 613 662 669 620 614 663 670 621
749 5 2 1 1 614 663 670 621 615 664 671 622
750 5 2 1 1 615 664 671 622 616 665 672 623
751 5 2 1 1 616 665 672 623 617 666 673 624
752 5 2 1 1 617 666 673 624 174 181 182 175
753 5 2 1 1 126 133 134 127 618 667 674 625
754 5 2 1 1 618 667 674 625 619 668 675 626
755 5 2 1 1 619 668 675 626 620 669 676 627
756 5 2 1 1 620 669 676 627 621 670 677 628
757 5 2 1 1 621 670 677 628 622 671 678 629
758 5 2 1 1 622 671 678 629 623 672 679 630
759 5 2 1 1 623 672 679 630 624 673 680 631
760 5 2 1 1 624 673 680 631 175 182 183 176
761 5 2 1 1 127 134 24 25 625 674 247 254
762 5 2 1 1 625 674 247 254 626 675 248 255
763 5 2 1 1 626 675 248 255 627 676 249 256
764 5 2 1 1 627 676 249 256 628 677 250 257
765 5 2 1 1 628 677 250 257 629 678 251 258
766 5 2 1 1 629 678 251 258 630 679 252 259
767 5 2 1 1 630 679 252 259 631 680 253 260
768 5 2 1 1 631 680 253 260 176 183 52 53
769 5 2 1 1 14 15 135 128 226 233 681 632
770 5 2 1 1 226 233 681 632 227 234 682 633
771 5 2 1 1 227 234 682 633 228 235 683 634
772 5 2 1 1 228 235 683 634 229 236 684 635
773 5 2 1 1 229 236 684 635 230 237 685 636
774 5 2 1 1 230 237 685 636 231 238 686 637
775 5 2 1 1 231 238 686 637 232 239 687 638
776 5 2 1 1 232 239 687 638 42 43 184 177
777 5 2 1 1 128 135 136 129 632 681 688 639
778 5 2 1 1 632 681 688 639 633 682 689 640
779 5 2 1 1 633 682 689 640 634 683 690 641
780 5 2 1 1 634 683 690 641 635 684 691 642
781 5 2 1 1 635 684 691 642 636 685 692 643
782 5 2 1 1 636 685 692 643 637 686 693 644
783 5 2 1 1 637 686 693 644 638 687 694 645
784 5 2 1 1 638 687 694 645 177 184 185 178
785 5 2 1 1 129 136 137 130 639 688 695 646
786 5 2 1 1 639 688 695 646 640 689 696 647
787 5 2 1 1 640 689 696 647 641 690 697 648
788 5 2 1 1 641 690 697 648 642 691 698 649
789 5 2 1 1 642 691 698 649 643 692 699 650
790 5 2 1 1 643 692 699 650 644 693 700 651
791 5 2 1 1 644 693 700 651 645 694 701 652
792 5 2 1 1 645 694 701 652 178 185 186 179
793 5 2 1 1 130 137 138 131 646 695 702 653
794 5 2 1 1 646 695 702 653 647 696 703 654
795 5 2 1 1 647 696 703 654 648 697 704 655
796 5 2 1 1 648 697 704 655 649 698 705 656
797 5 2 1 1 649 698 705 656 650 699 706 657
798 5 2 1 1 650 699 706 657 651 700 707 658
799 5 2 1 1 651 700 707 658 652 701 708 659
800 5 2 1 1 652 701 708 659 179 186 187 180
801 5 2 1 1 131 138 139 132 653 702 709 660
802 5 2 1 1 653 702 709 660 654 703 710 661
803 5 2 1 1 654 703 710 661 655 704 711 662
804 5 2 1 1 655 704 711 662 656 705 712 663
805 5 2 1 1 656 705 712 663 657 706 713 664
806 5 2 1 1 657 706 713 664 658 707 714 665
807 5 2 1 1 658 707 714 665 659 708 715 666
808 5 2 1 1 659 708 715 666 180 187 188 181
809 5 2 1 1 132 139 140 133 660 709 716 667
810 5 2 1 1 660 709 716 667 661 710 717 668
811 5 2 1 1 661 710 717 668 662 711 718 669
812 5 2 1 1 662 711 718 669 663 712 719 670
813 5 2 1 1 663 712 719 670 664 713 720 671
814 5 2 1 1 664 713 720 671 665 714 721 672
815 5 2 1 1 665 714 721 672 666 715 722 673
816 5 2 1 1 666 715 722 673 181 188 189 182
817 5 2 1 1 133 140 141 134 667 716 723 674
818 5 2 1 1 667 716 723 674 668 717 724 675
819 5 2 1 1 668 717 724 675 669 718 725 676
820 5 2 1 1 669 718 725 676 670 719 726 677
821 5 2 1 1 670 719 726 677 671 720 727 678
822 5 2 1 1 671 720 727 678 672 721 728 679
823 5 2 1 1 672 721 728 679 673 722 729 680
824 5 2 1 1 673 722 729 680 182 189 190 183
825 5 2 1 1 134 141 23 24 674 723 240 247
826 5 2 1 1 674 723 240 247 675 724 241 248
827 5 2 1 1 675 724 241 248 676 725 242 249
828 5 2 1 1 676 725 242 249 677 726 243 250
829 5 2 1 1 677 726 243 250 678 727 244 251
830 5 2 1 1 678 727 244 251 679 728 245 252
831 5 2 1 1 679 728 245 252 680 729 246 253
832 5 2 1 1 680 729 246 253 183 190 51 52
833 5 2 1 1 15 2 16 135 233 72 338 681
834 5 2 1 1 233 72 338 681 234 73 339 682
835 5 2 1 1 234 73 339 682 235 74 340 683
836 5 2 1 1 235 74 340 683 236 75 341 684
837 5 2 1 1 236 75 341 684 237 76 342 685
838 5 2 1 1 237 76 342 685 238 77 343 686
839 5 2 1 1 238 77 343 686 239 78 344 687
840 5 2 1 1 239 78 344 687 43 6 44 184
841 5 2 1 1 135 16 17 136 681 338 345 688
842 5 2 1 1 681 338 345 688 682 339 346 689
843 5 2 1 1 682 339 346 689 683 340 347 690
844 5 2 1 1 683 340 347 690 684 341 348 691
845 5 2 1 1 684 341 348 691 685 342 349 692
846 5 2 1 1 685 342 349 692 686 343 350 693
847 5 2 1 1 686 343 350 693 687 344 351 694
848 5 2 1 1 687 344 351 694 184 44 45 185
849 5 2 1 1 136 17 18 137 688 345 352 695
850 5 2 1 1 688 345 352 695 689 346 353 696
851 5 2 1 1 689 346 353 696 690 347 354 697
852 5 2 1 1 690 347 354 697 691 348 355 698
853 5 2 1 1 691 348 355 698 692 349 356 699
854 5 2 1 1 692 349 356 699 693 350 357 700
855 5 2 1 1 693 350 357 700 694 351 358 701
856 5 2 1 1 694 351 358 701 185 45 46 186
857 5 2 1 1 137 18 19 138 695 352 359 702
858 5 2 1 1 695 352 359 702 696 353 360 703
859 5 2 1 1 696 353 360 703 697 354 361 704
860 5 2 1 1 697 354 361 704 698 355 362 705
861 5 2 1 1 698 355 362 705 699 356 363 706
862 5 2 1 1 699 356 363 706 700 357 364 707
863 5 2 1 1 700 357 364 707 701 358 365 708
864 5 2 1 1 701 358 365 708 186 46 47 187
865 5 2 1 1 138 19 20 139 702 359 366 709
866 5 2 1 1 702 359 366 709 703 360 367 710
867 5 2 1 1 703 360 367 710 704 361 368 711
868 5 2 1 1 704 361 368 711 705 362 369 712
869 5 2 1 1 705 362 369 712 706 363 370 713
870 5 2 1 1 706 363 370 713 707 364 371 714
871 5 2 1 1 707 364 371 714 708 365 372 715
872 5 2 1 1 708 365 372 715 187 47 48 188
873 5 2 1 1 139 20 21 140 709 366 373 716
874 5 2 1 1 709 366 373 716 710 367 374 717
875 5 2 1 1 710 367 374 717 711 368 375 718
876 5 2 1 1 711 368 375 718 712 369 376 719
877 5 2 1 1 712 369 376 719 713 370 377 720
878 5 2 1 1 713 370 377 720 714 371 378 721
879 5 2 1 1 714 371 378 721 715 372 379 722
880 5 2 1 1 715 372 379 722 188 48 49 189
881 5 2 1 1 140 21 22 141 716 373 380 723
882 5 2 1 1 716 373 380 723 717 374 381 724
883 5 2 1 1 717 374 381 724 718 375 382 725
884 5 2 1 1 718 375 382 725 719 376 383 726
885 5 2 1 1 719 376 383 726 720 377 384 727
886 5 2 1 1 720 377 384 727 721 378 385 728
887 5 2 1 1 721 378 385 728 722 379 386 729
888 5 2 1 1 722 379 386 729 189 49 50 190
889 5 2 1 1 141 22 3 23 723 380 79 240
890 5 2 1 1 723 380 79 240 724 381 80 241
891 5 2 1 1 724 381 80 241 725 382 81 242
892 5 2 1 1 725 382 81 242 726 383 82 243
893 5 2 1 1 726 383 82 243 727 384 83 244
894 5 2 1 1 727 384 83 244 728 385 84 245
895 5 2 1 1 728 385 84 245 729 386 85 246
896 5 2 1 1 729 386 85 246 190 50 7 51
$EndElements
$Periodic
3
2 2 1
Affine 1 0 0 0 0 1 0 0 0 0 1 1 0 0 0 1
0
2 4 3
Affine 1 0 0 0 0 1 0 1 0 0 1 0 0 0 0 1
0
2 6 5
Affine 1 0 0 1 0 1 0 0 0 0 1 0 0 0 0 1
0
$EndPeriodic
