$MeshFormat
2.2 0 8
$EndMeshFormat
$Nodes
1008
1 0 0 0
2 0.1 0 0
3 0.1 0.02 0
4 0 0.02 0
5 0.001587301587298715 0 0
6 0.003174603174597368 0 0
7 0.004761904761895586 0 0
8 0.006349206349194049 0 0
9 0.007936507936493366 0 0
10 0.009523809523792745 0 0
11 0.01111111111109218 0 0
12 0.01269841269839076 0 0
13 0.01428571428568803 0 0
14 0.01587301587298506 0 0
15 0.01746031746028209 0 0
16 0.01904761904757818 0 0
17 0.02063492063487479 0 0
18 0.02222222222217182 0 0
19 0.02380952380946884 0 0
20 0.02539682539676587 0 0
21 0.0269841269840629 0 0
22 0.02857142857135993 0 0
23 0.03015873015865696 0 0
24 0.03174603174595399 0 0
25 0.03333333333325102 0 0
26 0.03492063492054805 0 0
27 0.03650793650784509 0 0
28 0.03809523809513973 0 0
29 0.03968253968243644 0 0
30 0.04126984126973347 0 0
31 0.0428571428570305 0 0
32 0.04444444444432753 0 0
33 0.04603174603162457 0 0
34 0.0476190476189216 0 0
35 0.04920634920621864 0 0
36 0.05079365079351979 0 0
37 0.05238095238082643 0 0
38 0.05396825396813172 0 0
39 0.05555555555543715 0 0
40 0.05714285714274364 0 0
41 0.05873015873004894 0 0
42 0.06031746031735558 0 0
43 0.06190476190466087 0 0
44 0.06349206349196652 0 0
45 0.06507936507927375 0 0
46 0.0666666666665772 0 0
47 0.06825396825388523 0 0
48 0.06984126984118948 0 0
49 0.0714285714284959 0 0
50 0.07301587301580269 0 0
51 0.07460317460310656 0 0
52 0.07619047619041319 0 0
53 0.07777777777771722 0 0
54 0.07936507936502527 0 0
55 0.08095238095232893 0 0
56 0.08253968253963594 0 0
57 0.08412698412694213 0 0
58 0.08571428571424661 0 0
59 0.08730158730155463 0 0
60 0.08888888888885786 0 0
61 0.0904761904761653 0 0
62 0.09206349206347107 0 0
63 0.09365079365077597 0 0
64 0.09523809523808401 0 0
65 0.09682539682538681 0 0
66 0.09841269841269468 0 0
67 0.1 0.001538461538458631 0
68 0.1 0.003076923076916952 0
69 0.1 0.004615384615373892 0
70 0.1 0.006153846153830764 0
71 0.1 0.007692307692288113 0
72 0.1 0.009230769230745417 0
73 0.1 0.01076923076920719 0
74 0.1 0.01230769230767259 0
75 0.1 0.01384615384613767 0
76 0.1 0.01538461538460225 0
77 0.1 0.01692307692306985 0
78 0.1 0.01846153846153222 0
79 0.09841269841270281 0.02 0
80 0.09682539682540561 0.02 0
81 0.09523809523810842 0.02 0
82 0.09365079365081122 0.02 0
83 0.09206349206351402 0.02 0
84 0.09047619047621683 0.02 0
85 0.08888888888891963 0.02 0
86 0.08730158730162244 0.02 0
87 0.08571428571432524 0.02 0
88 0.08412698412702804 0.02 0
89 0.08253968253973083 0.02 0
90 0.08095238095243364 0.02 0
91 0.07936507936513644 0.02 0
92 0.07777777777783926 0.02 0
93 0.07619047619054205 0.02 0
94 0.07460317460324485 0.02 0
95 0.07301587301594765 0.02 0
96 0.07142857142865044 0.02 0
97 0.06984126984135325 0.02 0
98 0.06825396825405605 0.02 0
99 0.06666666666675883 0.02 0
100 0.06507936507946163 0.02 0
101 0.06349206349216444 0.02 0
102 0.06190476190486724 0.02 0
103 0.06031746031757004 0.02 0
104 0.05873015873027283 0.02 0
105 0.05714285714297563 0.02 0
106 0.05555555555567843 0.02 0
107 0.05396825396838122 0.02 0
108 0.05238095238108403 0.02 0
109 0.05079365079378682 0.02 0
110 0.04920634920648549 0.02 0
111 0.04761904761917868 0.02 0
112 0.04603174603187322 0.02 0
113 0.04444444444456761 0.02 0
114 0.04285714285726096 0.02 0
115 0.04126984126995548 0.02 0
116 0.03968253968264867 0.02 0
117 0.03809523809534321 0.02 0
118 0.03650793650803739 0.02 0
119 0.03492063492073 0.02 0
120 0.03333333333342638 0.02 0
121 0.03174603174611818 0.02 0
122 0.03015873015881375 0.02 0
123 0.02857142857150717 0.02 0
124 0.0269841269842002 0.02 0
125 0.02539682539689617 0.02 0
126 0.02380952380958937 0.02 0
127 0.02222222222228516 0.02 0
128 0.02063492063497695 0.02 0
129 0.01904761904767313 0.02 0
130 0.01746031746036594 0.02 0
131 0.01587301587305959 0.02 0
132 0.01428571428575494 0.02 0
133 0.01269841269844674 0.02 0
134 0.01111111111114334 0.02 0
135 0.009523809523835719 0.02 0
136 0.007936507936529794 0.02 0
137 0.006349206349224729 0.02 0
138 0.004761904761916513 0.02 0
139 0.003174603174613544 0.02 0
140 0.001587301587305495 0.02 0
141 0 0.01846153846154075 0
142 0 0.01692307692308625 0
143 0 0.01538461538462562 0
144 0 0.01384615384616978 0
145 0 0.01230769230771275 0
146 0 0.01076923076925496 0
147 0 0.009230769230793134 0
148 0 0.007692307692327682 0
149 0 0.006153846153862545 0
150 0 0.004615384615397913 0
151 0 0.00307692307693026 0
152 0 0.001538461538467834 0
153 0.09871583124733316 0.009865675893750387 0
154 0.001369328437441384 0.009998337363500944 0
155 0.01981783674197803 0.001367394824389405 0
156 0.0356998783109678 0.001390667211604203 0
157 0.01348899184976323 0.001373480758885636 0
158 0.08779036417973332 0.01873207191815898 0
159 0.08010940616440619 0.01846543447634631 0
160 0.02616630239795609 0.001370925327749553 0
161 0.07377204536952017 0.01851710532796313 0
162 0.06582478804605237 0.01852069135022597 0
163 0.04204424905728138 0.001416577378530674 0
164 0.05947558486858169 0.01851621922656546 0
165 0.0483934214398503 0.001435255607291981 0
166 0.05317460314024947 0.01872007323441993 0
167 0.03095237831987163 0.01871316494175557 0
168 0.07059674664477357 0.001542947886650256 0
169 0.08489496251978998 0.001495839438360765 0
170 0.01666645413833476 0.01869564609197089 0
171 0.02301587301593726 0.01862535650192719 0
172 0.07696470606562356 0.001516835778887781 0
173 0.0626790654742654 0.001476509943731077 0
174 0.03888888832341343 0.01871561587619797 0
175 0.05632127755435447 0.001463765861545768 0
176 0.04523809523822042 0.01862535650192604 0
177 0.01031795350917272 0.01869192370043065 0
178 0.08968253968251158 0.001374643498073062 0
179 0.03094522551521661 0.001378358007769485 0
180 0.008723219903355062 0.001373832391826273 0
181 0.09279470856141159 0.01846423722680549 0
182 0.005462475829825034 0.01859278940869424 0
183 0.09438471290651022 0.001415472641225829 0
184 0.001408752429183469 0.005427089318893593 0
185 0.09876733843674637 0.01462986867457893 0
186 0.00138631627155939 0.01454830211302943 0
187 0.09861390159389621 0.005408110149060899 0
188 0.005549742789493973 0.00137109372487634 0
189 0.08014003751453719 0.001488862275771828 0
190 0.03412698412707818 0.01862535650192769 0
191 0.05155539499442842 0.001447311764668032 0
192 0.01984126984132517 0.01866663803248997 0
193 0.07379012230297073 0.001507944808510313 0
194 0.02619047619054819 0.01862535650192733 0
195 0.06585543079785902 0.001459093442135363 0
196 0.0484126984128321 0.01862535650192789 0
197 0.01349208053374657 0.01869377538081384 0
198 0.04206349206360822 0.01862535650192608 0
199 0.05950447768950881 0.001467428460059652 0
200 0.06904761904770468 0.01862535650193326 0
201 0.08331912879605308 0.01853583747579434 0
202 0.022992126921106 0.001370074399306057 0
203 0.0769350059361618 0.01846274271678525 0
204 0.06265018648507202 0.01851845853966732 0
205 0.01665354495686735 0.001354919482316665 0
206 0.04521883474810429 0.001425944679742784 0
207 0.05634920634932705 0.01862535650193325 0
208 0.03886197585931777 0.001420155146701008 0
209 0.09594289491707707 0.01843268333575672 0
210 0.002512034093641738 0.01864968581979444 0
211 0.09755468642073258 0.001334466002864273 0
212 0.00244616887806055 0.001333771248450707 0
213 0.09881374220971829 0.01766637605459529 0
214 0.003977247962106984 0.001363330187523308 0
215 0.004756141304072158 0.002737047027508289 0
216 0.006332146824064825 0.002740756899859099 0
217 0.005537532779452478 0.004100716408000801 0
218 0.007109078248137141 0.00410881477436082 0
219 0.006315560495153049 0.00546568400640509 0
220 0.007886607221969686 0.005473698576950277 0
221 0.00709296048106798 0.006830536094763567 0
222 0.008665456014155592 0.006838421934615528 0
223 0.007871800063443613 0.008195570958419442 0
224 0.009445238335163416 0.008204575876417985 0
225 0.008649945701757823 0.009564142386092427 0
226 0.01022584826020877 0.009572629252836045 0
227 0.0110210335743422 0.008211883884254319 0
228 0.01180321931953426 0.009581744017342568 0
229 0.01259985330136384 0.008222349575158298 0
230 0.01338309253844743 0.009591838036152331 0
231 0.01418071258141593 0.008230416738036183 0
232 0.0149648464242834 0.009601068699270862 0
233 0.01576345355302128 0.008216412263927293 0
234 0.01654804686780765 0.009606284715015503 0
235 0.01734731999422808 0.008219995314587033 0
236 0.01813238812178429 0.009613627538004236 0
237 0.01893205467894046 0.008231192335424639 0
238 0.01971740827813454 0.009637842219189043 0
239 0.02051749637869703 0.008242361566400069 0
240 0.02130311865265439 0.009649442058391218 0
241 0.02210341764858297 0.008255611667637358 0
242 0.02288926898447855 0.009656205941787914 0
243 0.02368973733627475 0.008264334341211918 0
244 0.02447572985069826 0.00966439079626112 0
245 0.02527471911059392 0.008274094711035854 0
246 0.02606213222118405 0.009671873297670138 0
247 0.02685811714962898 0.008278874203964507 0
248 0.02764835269028545 0.00967948014598006 0
249 0.02844586951315493 0.008294387865105257 0
250 0.02923534114393214 0.009687877800697063 0
251 0.03003743075316994 0.008303166062808042 0
252 0.03082314277545268 0.009696279613286346 0
253 0.03162604442316012 0.008311894911422106 0
254 0.03241061564317285 0.009706031620707651 0
255 0.03321211581145046 0.008324686374945883 0
256 0.03399764698202533 0.009715315185438557 0
257 0.03479821811065074 0.008330762311157152 0
258 0.03558468886846729 0.009711797095211685 0
259 0.03638543895601863 0.008336936289829686 0
260 0.03717395448830656 0.009724520787122765 0
261 0.03797300021841499 0.008346223752098531 0
262 0.03876266707371806 0.009743086652690136 0
263 0.03956054020778089 0.008356370110561563 0
264 0.04034813023115345 0.009746625168744432 0
265 0.04114753839522008 0.008364780893477563 0
266 0.04193597959004564 0.009750211396127381 0
267 0.04273485289926107 0.008372287397395303 0
268 0.04352438607556683 0.009765547735368127 0
269 0.04432231319438565 0.008382221060798448 0
270 0.04510985555710353 0.009769809709727122 0
271 0.04590931446012224 0.008390095540054075 0
272 0.04669749054361664 0.009773658997962321 0
273 0.04749659853443614 0.008398161352213575 0
274 0.04828571171604231 0.009787549823589831 0
275 0.0490840322759382 0.008407330103222069 0
276 0.04987142438906748 0.009792613891555991 0
277 0.05067107228950336 0.008415520095028217 0
278 0.05145961674165263 0.009799161862274816 0
279 0.05225845981501024 0.008423962302061367 0
280 0.05304810090967743 0.00980657985072611 0
281 0.05384595860215818 0.008431793266895679 0
282 0.05463301469528296 0.009809193148393952 0
283 0.05543287802553768 0.008439351590365027 0
284 0.05621929001327529 0.009819841154312713 0
285 0.05701992972078637 0.008447895946320016 0
286 0.05780636387144511 0.009828550187606613 0
287 0.05860714085558606 0.008455497663807111 0
288 0.05939360220902338 0.009835887826306457 0
289 0.06019440205641426 0.008463497613895317 0
290 0.06098087181585508 0.009843954326063756 0
291 0.06178167692990801 0.008471685424745412 0
292 0.06256816557017404 0.009848990828086185 0
293 0.06336895760906192 0.008479455138360374 0
294 0.06415544783079731 0.009856635393707472 0
295 0.06495622968899221 0.00848918308131121 0
296 0.06574271929936108 0.009866479813733947 0
297 0.06654351693280962 0.008496017390129168 0
298 0.06732999902469949 0.009874769773420224 0
299 0.06813078717667705 0.008506141604782795 0
300 0.06891727979202875 0.009882874206428308 0
301 0.06971807534139919 0.008512830024314567 0
302 0.07050456126843084 0.009890849855133511 0
303 0.07130535678885686 0.008520813038877558 0
304 0.07209183928745841 0.009899494563591521 0
305 0.07289263686633729 0.008529065614017456 0
306 0.07367912496844094 0.009906671974704967 0
307 0.07447991784602383 0.008537147428691135 0
308 0.07526640610219998 0.009914725342220774 0
309 0.07606719822524104 0.008545346776730016 0
310 0.07685579458854071 0.009923727803422754 0
311 0.07765482973489829 0.008553723898101856 0
312 0.07844403626303759 0.009930642969486534 0
313 0.07924231266222087 0.008564850143177488 0
314 0.08002939524538741 0.009939523769925589 0
315 0.08083206756870481 0.008575314475304924 0
316 0.08161820255725136 0.009948736524478566 0
317 0.08241997666630366 0.00858113036473559 0
318 0.08320763625940204 0.009955519197353538 0
319 0.08400338117644555 0.008587051240845476 0
320 0.08479217631077096 0.009963894727518022 0
321 0.08559418681205817 0.008599577343949373 0
322 0.0863766839215922 0.00997380769813469 0
323 0.08717899711318303 0.008606778202001671 0
324 0.08796098942724467 0.009981348445376478 0
325 0.08876116862559308 0.008614842173027699 0
326 0.08954457363604368 0.009987506096150645 0
327 0.09034199161215298 0.008624494695300383 0
328 0.09112437494004545 0.009994498865818074 0
329 0.02843863380551071 0.01108013301054568 0
330 0.03637843317729272 0.01111593588624688 0
331 0.05066256684885374 0.01118089383170233 0
332 0.07129104097733682 0.01127006264111194 0
333 0.09032842378968207 0.01135590100457047 0
334 0.08558214050203278 0.01133943838512447 0
335 0.009430118698882573 0.0109321297425557 0
336 0.01574830689576836 0.01097594598198364 0
337 0.02209189146743871 0.01105598304698694 0
338 0.09190427978988032 0.01136414874989864 0
339 0.04113904877582603 0.0111379566995972 0
340 0.09191828854743048 0.008639651528715655 0
341 0.007854714242707905 0.01092552575283824 0
342 0.05542450871039807 0.01119867737825881 0
343 0.04590058328920649 0.01115863932057488 0
344 0.06177094674654671 0.01122178396148253 0
345 0.07606048691018506 0.01129142201580437 0
346 0.06652920111388048 0.01124526680605672 0
347 0.08082341118410322 0.01131366772800049 0
348 0.02526501149982045 0.01106657926645284 0
349 0.018908915240811 0.01100895204207512 0
350 0.05859636320251711 0.01121265003062037 0
351 0.03161982960507576 0.01109442935142115 0
352 0.01258455451520461 0.01095413785404596 0
353 0.008634758444222462 0.01229125434078024 0
354 0.09111263640540851 0.01272289831164744 0
355 0.0926854427125391 0.01272683729874687 0
356 0.00706116642395079 0.0122842994550478 0
357 0.08798196129762477 0.007245236090348248 0
358 0.08322683987468066 0.007220068543178249 0
359 0.091139393017744 0.007266282972919015 0
360 0.09271237720112928 0.007280242524529306 0
361 0.06893154583632596 0.007137071935986229 0
362 0.07845902058937707 0.007190257794620341 0
363 0.07528071473913249 0.007166851267030272 0
364 0.05464959845843432 0.007061465318362293 0
365 0.07210615468757092 0.007150320834261753 0
366 0.06417372267828135 0.007113617699311191 0
367 0.06099855573357866 0.007093358053345766 0
368 0.05782401396202477 0.007077211574615913 0
369 0.03401595699282946 0.006943220315707346 0
370 0.04988424833909801 0.007034613540220519 0
371 0.02925040529267359 0.006919955756857512 0
372 0.04671061466352625 0.007017500260948965 0
373 0.04353698744786529 0.006999103668292038 0
374 0.04036319778863882 0.00697979674366903 0
375 0.009468407411474623 0.005482111910159955 0
376 0.03718862304893649 0.006962058094649633 0
377 0.02448897966924697 0.00688404060648195 0
378 0.02131704646126808 0.006849379553021371 0
379 0.007839730389458788 0.01364903700482031 0
380 0.009414398697224175 0.01365968147615239 0
381 0.01814565411990868 0.006820088350494473 0
382 0.01497810635251414 0.006858646521536109 0
383 0.09347517951455918 0.01137231354787328 0
384 0.09193488007525133 0.005909726070410279 0
385 0.09350066492272455 0.005916548711268361 0
386 0.006296418257862928 0.008200218419960712 0
387 0.006268218878468141 0.0136376359805043 0
388 0.09419301669462339 0.007341159118336017 0
389 0.08953478808893421 0.01271900002411497 0
390 0.09032129832173093 0.01408630368962354 0
391 0.08874151960965593 0.01408306108803373 0
392 0.09425363571813036 0.01273330276240084 0
393 0.005491869347455956 0.0122774502675928 0
394 0.09346577351204283 0.01408777618339622 0
395 0.008618130313007333 0.01495496789212387 0
396 0.01019512788671175 0.01495410300699501 0
397 0.09504031619809729 0.01138105598191774 0
398 0.09503220989453345 0.01409260168996673 0
399 0.09275236568485691 0.00447674739035052 0
400 0.09437545010393274 0.004312555733925743 0
401 0.09116044040819295 0.004528270277847886 0
402 0.004744388128551168 0.005473028276245876 0
403 0.09424582590125072 0.01549079489487919 0
404 0.08958336644943744 0.01542114010906946 0
405 0.08793458196132918 0.01561301240446765 0
406 0.004699568106164662 0.0136277408428343 0
407 0.005475105391155109 0.01498931754103921 0
408 0.003927913798792836 0.01226911057021569 0
409 0.09580922348946577 0.01545827966594409 0
410 0.004715851722119034 0.01092132988378422 0
411 0.09111524829017721 0.01544793530188431 0
412 0.01182805615522215 0.006857298995396814 0
413 0.08715769613421424 0.01410640571348345 0
414 0.0863635081451912 0.01544427277621766 0
415 0.01099155679544359 0.01365696201795207 0
416 0.01177428990759011 0.01496097369259309 0
417 0.01257080008393393 0.01366418709838034 0
418 0.01335536447958939 0.01496806595669945 0
419 0.0141528884952987 0.01367343326839967 0
420 0.01493828947587144 0.01497801634420505 0
421 0.01573629553080267 0.01368314338894256 0
422 0.01652250962298034 0.01498598245394758 0
423 0.01732076227019582 0.01369250339179802 0
424 0.01810759969183335 0.01499942960796245 0
425 0.08557534443640775 0.0140787686178286 0
426 0.08477803872144524 0.01549590279727166 0
427 0.08399013684675072 0.01407654436377387 0
428 0.08319212979100112 0.01550074655168103 0
429 0.08240455907699604 0.01407124328162728 0
430 0.08160574587223852 0.01549844977123252 0
431 0.08081797016362643 0.01406811531842767 0
432 0.0800189005727881 0.01549394237637642 0
433 0.0792304001032931 0.01406265011787177 0
434 0.07843172849646612 0.0154900772635141 0
435 0.07764326456523094 0.01405542627957032 0
436 0.07684452854073222 0.01548454442318087 0
437 0.07605604274360384 0.01405094020686094 0
438 0.07525728180729208 0.01548066353796122 0
439 0.07446867295561775 0.01404575283846507 0
440 0.07366999541362537 0.01547544839324031 0
441 0.07288137853870265 0.01403985790231367 0
442 0.07208291755473861 0.01541072251100773 0
443 0.07129413914372229 0.01402075328037772 0
444 0.07049545794307263 0.01545444301744101 0
445 0.06970681870208872 0.01402454044546705 0
446 0.0689081352077438 0.01545865096591879 0
447 0.06811951980688695 0.01402171096707105 0
448 0.06732083283368985 0.0154566543605903 0
449 0.06653222566852758 0.01401721936832147 0
450 0.06573353935359867 0.01545186232427295 0
451 0.06494493441977814 0.0140117115170565 0
452 0.06414624247624218 0.01544791281600386 0
453 0.06335765522312939 0.01400267685338645 0
454 0.0625589521288748 0.0154420379124285 0
455 0.06177036595001568 0.01399648099168295 0
456 0.06097165602228789 0.01543778682108587 0
457 0.06018306099443055 0.01399475236595663 0
458 0.05938436153010654 0.01543307926908543 0
459 0.05859576681964478 0.01398996878188477 0
460 0.0577973000363806 0.01536195071095198 0
461 0.05700853230123654 0.01396817495880747 0
462 0.05621005652497389 0.01534275269246109 0
463 0.05542123953334713 0.01396306310185977 0
464 0.05462626373591947 0.01533299107434767 0
465 0.0538345312943531 0.01395687342312234 0
466 0.05303998661053407 0.01523149814143109 0
467 0.05224750655011993 0.0139352156447153 0
468 0.05144941864372235 0.01520926104015584 0
469 0.05065971419508964 0.01392418922629986 0
470 0.04986116507055745 0.01529512946703229 0
471 0.04907218005553866 0.01393295241085733 0
472 0.04827367427683632 0.01530719032710555 0
473 0.04748481659961038 0.0139327127276291 0
474 0.04668633955076172 0.01530544912754499 0
475 0.04589750828375447 0.01392867253005772 0
476 0.04509904102227984 0.01530077424548835 0
477 0.04431021631627657 0.01392351034812206 0
478 0.04351175267865671 0.01529542318307918 0
479 0.0427229302806434 0.01391804872727104 0
480 0.04192446858080987 0.01528990952943519 0
481 0.04113564772800053 0.01391251074328112 0
482 0.04033922615856188 0.01528318922093339 0
483 0.03954870865357957 0.01390675953573616 0
484 0.03875266279454801 0.01518712283056604 0
485 0.03796160970897111 0.01388608247098559 0
486 0.03716350119373457 0.01516512035922424 0
487 0.03637405509776032 0.01387526381126158 0
488 0.03557555780654501 0.01524621068970926 0
489 0.03478663463358711 0.01388327272430662 0
490 0.03398816529506845 0.01525734674842524 0
491 0.03319931594586792 0.01388471114400619 0
492 0.03240206412001316 0.01525505927275797 0
493 0.0316218451617719 0.01387434963844261 0
494 0.03081696626184165 0.01516164725280993 0
495 0.03003347732847293 0.01385153930408051 0
496 0.02922875509529342 0.01513923017704908 0
497 0.02843951769521282 0.01384423988426518 0
498 0.02763998754881899 0.01521813422422378 0
499 0.0268509802999056 0.01385250173675816 0
500 0.02605238125828095 0.01522893394581227 0
501 0.02526358673504483 0.0138521344155899 0
502 0.02446516031467651 0.01522820101569466 0
503 0.02367651012292871 0.01384829844172693 0
504 0.02287822612511376 0.01522242625678472 0
505 0.02208056613247716 0.01383054599835404 0
506 0.02844458087624634 0.01660001079910408 0
507 0.02127893651202778 0.01518022575133765 0
508 0.03638068987711667 0.01662534530521846 0
509 0.05066627197966932 0.0166706854887542 0
510 0.01890890030512485 0.01371528439347138 0
511 0.07128945534793166 0.01680887767170727 0
512 0.09191189059980087 0.003073919728162091 0
513 0.08556666626809636 0.01681483313664906 0
514 0.09038759036552632 0.01678057673102798 0
515 0.003947322970134402 0.01500147987695102 0
516 0.03399675932247189 0.01250428405845387 0
517 0.03875871002183667 0.0125249927418558 0
518 0.04352027638789858 0.01254424274439855 0
519 0.04828171678081265 0.01255934083226668 0
520 0.09426456557430314 0.0100231640972287 0
521 0.09580321569767326 0.01004409590794804 0
522 0.09665965975648544 0.01142643893708301 0
523 0.05304429513754356 0.01257152437084023 0
524 0.06415616456530317 0.01261858896576306 0
525 0.06891803700061383 0.01263529062485392 0
526 0.07367562380066987 0.01266023832114046 0
527 0.07844018370095043 0.01267860125632095 0
528 0.08320285306897587 0.01269793814337324 0
529 0.004688662481730837 0.01628597284225492 0
530 0.006192561004532128 0.01618765708359301 0
531 0.003156516333107 0.01627289564299632 0
532 0.009454783624882591 0.01629568959386354 0
533 0.01262036608564985 0.01630270307847041 0
534 0.01578968904889154 0.01631155206348552 0
535 0.09652679269700644 0.01405780951295976 0
536 0.02186238304843379 0.01651808749984179 0
537 0.02503860391567904 0.01653307200149283 0
538 0.02023476099232631 0.01645481615704826 0
539 0.03297599997040835 0.01655605157309559 0
540 0.04091338671126946 0.01658009782502827 0
541 0.0440855882625994 0.01659150921952639 0
542 0.0472601842420536 0.0166001146812875 0
543 0.05520071224012105 0.01662238514349056 0
544 0.05841537017989713 0.01708695442843849 0
545 0.06179006359048642 0.01695655603117147 0
546 0.09508270491122141 0.01692800365913394 0
547 0.09658497704712224 0.01697609613752893 0
548 0.06496465945125077 0.01696292133385496 0
549 0.06814499778037966 0.0169809451032553 0
550 0.07607531016270952 0.01695319467803966 0
551 0.09189524647742339 0.01682633020820264 0
552 0.07924970328683555 0.01695958794757605 0
553 0.002879814972409552 0.0108380383319268 0
554 0.003940456064677691 0.009568078096335402 0
555 0.002458735555126618 0.01226081512479759 0
556 0.08242780013588129 0.01697343349520771 0
557 0.09036234071415329 0.00309132554118449 0
558 0.08957767958360544 0.004514411060699442 0
559 0.08880878223957515 0.003051769179654458 0
560 0.0879995298010734 0.004497979575188374 0
561 0.08721608178572759 0.00313634662718736 0
562 0.08641433176175768 0.004505094893697738 0
563 0.08564062342991238 0.003089915670290605 0
564 0.08483225861437944 0.004493946837206221 0
565 0.08561589232105124 0.005871978071856107 0
566 0.08405470083705416 0.003054713139643293 0
567 0.0832465078943922 0.004476492148574895 0
568 0.08245753630026202 0.003115342226140262 0
569 0.08165602634913455 0.004478310859403507 0
570 0.09119680440232172 0.01837270543127872 0
571 0.08088249318869228 0.003065516396407093 0
572 0.0800721267942784 0.004465864022470289 0
573 0.08085566693645735 0.005841003221689938 0
574 0.07930721990142736 0.003036571749401494 0
575 0.07848272186815483 0.004460529874550178 0
576 0.07772146992772312 0.003032153322844649 0
577 0.07689380954298461 0.004454383356130935 0
578 0.07613417221522691 0.003024184427865774 0
579 0.07530686761426707 0.004439945512172071 0
580 0.003964391424256848 0.01764779630297666 0
581 0.07454694624742095 0.003015599717802518 0
582 0.07371928599705246 0.004434180971280857 0
583 0.07295962169568149 0.003006972915584713 0
584 0.07213224184679545 0.004421266265755726 0
585 0.07136924130291872 0.0030058479659134 0
586 0.07054474910581275 0.004413970771379044 0
587 0.06977037143830649 0.002992362921704956 0
588 0.06895582128954904 0.004394651932412571 0
589 0.06817259701402223 0.003024196825557908 0
590 0.06736819767449641 0.004391206650690889 0
591 0.08805721273305279 0.001555828732726161 0
592 0.06659889795911329 0.00298553216668857 0
593 0.06578549951431349 0.004378108968853972 0
594 0.06656586940605655 0.005760935820889704 0
595 0.06502200057609156 0.002960336909696789 0
596 0.06419567188771659 0.004373548161685437 0
597 0.06343572908158837 0.00295491175175583 0
598 0.06260840256314289 0.004363442460130688 0
599 0.06183632358940005 0.00296449270887303 0
600 0.06102113326429432 0.004353336752915801 0
601 0.08329393057920456 0.001567826550246725 0
602 0.06025931514613339 0.002941013001208255 0
603 0.05943386401193698 0.004343231031026123 0
604 0.05866161593962176 0.002945950106341478 0
605 0.05784659481534971 0.004333125301044958 0
606 0.06900851931455115 0.001535094071319852 0
607 0.05708329417652062 0.002924201567899817 0
608 0.05626292875183021 0.004317205528724907 0
609 0.05547444308003408 0.00294335137737935 0
610 0.05467266131704405 0.00431131428524821 0
611 0.05389443041300458 0.002900329742050197 0
612 0.0530861021290828 0.004296424851671545 0
613 0.05471596784184717 0.001478329551570485 0
614 0.05231521803379646 0.002867914062040935 0
615 0.05150029051683756 0.004282433700796852 0
616 0.05228240164845292 0.005672369516590827 0
617 0.05073442058592607 0.002878866500946856 0
618 0.04991025102015919 0.004282596164083227 0
619 0.04914986290730369 0.002875341014545771 0
620 0.04832706659069478 0.004267723444616344 0
621 0.04755639771354531 0.002873503959082902 0
622 0.04673944604070233 0.00425836943851041 0
623 0.04597534872461522 0.002858990668366681 0
624 0.04515315684410345 0.004247653731239732 0
625 0.04438192661826146 0.002855209573570487 0
626 0.04356502832070444 0.004238499666248826 0
627 0.09436191346598168 0.0184820362137184 0
628 0.02288329529319771 0.01246080452469632 0
629 0.02128340528176695 0.01243962488217848 0
630 0.02605861029907038 0.01246976894055371 0
631 0.02923943671730596 0.01247891298877048 0
632 0.04280082602868428 0.002841162862724614 0
633 0.04197864761427515 0.00422789439617339 0
634 0.04120738612972687 0.002836740763912549 0
635 0.04039050352899942 0.00421865115060214 0
636 0.07854604842534227 0.001512403854484292 0
637 0.03962499552410982 0.002825426613312467 0
638 0.03880390858847776 0.004208485064858457 0
639 0.03803175300010539 0.002820073973077081 0
640 0.03721574575664884 0.004200753188309367 0
641 0.07537159960412697 0.001510760788844397 0
642 0.005505172805333332 0.009565519000268256 0
643 0.07219336273177383 0.001510618929443113 0
644 0.09495333918957129 0.008726207166556359 0
645 0.09640948651518016 0.008629701757990922 0
646 0.007917224489389096 0.00274296045587368 0
647 0.05621808254711162 0.01258891813883359 0
648 0.004724423890702778 0.008219668788464283 0
649 0.003200123613741528 0.00819649116913509 0
650 0.003948642741162375 0.006869497536257639 0
651 0.00240314129343811 0.006857672836981684 0
652 0.001518155381831483 0.00833533528644324 0
653 0.00313695489925114 0.005472865209531444 0
654 0.002395365314873782 0.004063576850297609 0
655 0.03644515726766878 0.002809712187227042 0
656 0.03562845496455506 0.004190994802204212 0
657 0.03485700215322448 0.002799081233819761 0
658 0.03404107513484805 0.004179256244392533 0
659 0.03325278795598074 0.00280187604620162 0
660 0.03245100187994233 0.004171105382833849 0
661 0.06426060908350742 0.00147514200788651 0
662 0.05939429000050823 0.01260188982074059 0
663 0.03482157650258196 0.005565144780962988 0
664 0.061083567353554 0.001474907352312002 0
665 0.003191032223581611 0.002721601614960406 0
666 0.03799624981508719 0.005583906501707827 0
667 0.09348645448402072 0.01700216923294253 0
668 0.005520398999083379 0.006843105520349526 0
669 0.03411883310128752 0.001388761488560472 0
670 0.05790728020546637 0.001466890999307785 0
671 0.04117128131161345 0.005601874798389395 0
672 0.01964501456991436 0.01509754882714383 0
673 0.01863400516732774 0.01625396404569862 0
674 0.09581514280211023 0.01273755680564362 0
675 0.09736754599996479 0.01278243215839342 0
676 0.09603699318907447 0.00137161405037279 0
677 0.09681443814204901 0.002727313592447273 0
678 0.09852907902046604 0.002551790527451018 0
679 0.09762108654124582 0.004026678529097967 0
680 0.09598778619181327 0.004192343608405933 0
681 0.09688031782666696 0.005531936114374011 0
682 0.09769940662340923 0.006603555613253275 0
683 0.09649334361710311 0.007036951323561406 0
684 0.04434606360534653 0.005621835107929037 0
685 0.003963446477636565 0.004094511987642557 0
686 0.007076570852354963 0.009562942506259128 0
687 0.04752059724795022 0.005642050015484778 0
688 0.002895468295334954 0.01371341293586928 0
689 0.04997218332120781 0.001439462481242106 0
690 0.0934743735808554 0.008668446873865822 0
691 0.04679913271277687 0.001432282485747391 0
692 0.09521099217582144 0.002794248987042546 0
693 0.09356044050063345 0.002893395318899836 0
694 0.09268420090730324 0.001571609225925778 0
695 0.02049267278306816 0.01102738597014356 0
696 0.007181229004999218 0.0186621476173736 0
697 0.008736898982474279 0.01870914673460966 0
698 0.008147273895115008 0.01740734690187574 0
699 0.0436245706256149 0.001423149082428093 0
700 0.01190497895609595 0.01871640587487032 0
701 0.01107109153056811 0.01733141482143372 0
702 0.01031448525683772 0.001373062373379516 0
703 0.009509193286561938 0.00274438656528953 0
704 0.01110344680487715 0.002743784039873148 0
705 0.01031560165203616 0.004113864926490507 0
706 0.0118836036347238 0.004117087320533704 0
707 0.02367999771737749 0.01106163473802588 0
708 0.001469012269374052 0.002543576319761361 0
709 0.04044849792043429 0.001416483317076117 0
710 0.08956199542833673 0.007256035386249828 0
711 0.055455410141414 0.005689685275914784 0
712 0.01268815786521605 0.00274343206114773 0
713 0.01346004587191725 0.004113352792093843 0
714 0.01263784777067709 0.005495241409533471 0
715 0.08716613438076364 0.01134573012677335 0
716 0.01507923503235772 0.01871893029184618 0
717 0.014241737029277 0.01733926658265019 0
718 0.03728163673388406 0.001408683584606845 0
719 0.02447116861123992 0.0124598700545076 0
720 0.02685361950580181 0.01107397641255352 0
721 0.0918963252662123 0.01408637512213744 0
722 0.02764679972046788 0.01246658882890779 0
723 0.03002944516855829 0.011099564618122 0
724 0.03082889253479396 0.01248618086021047 0
725 0.007135597933111403 0.001371228517598407 0
726 0.03323437615031094 0.005557636552009585 0
727 0.0316473073069815 0.0055462370406749 0
728 0.03086320937201469 0.004162230567068529 0
729 0.03006091513558354 0.005530811443655716 0
730 0.02927491169413766 0.004154497472470044 0
731 0.03007839570802276 0.002781755942551411 0
732 0.02849120714586305 0.002771669187608507 0
733 0.0276868971330645 0.004145132026965634 0
734 0.03084372199661981 0.006918530854563434 0
735 0.02846585878256756 0.005526183479509761 0
736 0.0268764100564663 0.005507856189543356 0
737 0.02610049634917503 0.004125801136266499 0
738 0.0252917101323131 0.005491667724115677 0
739 0.02451427764451405 0.004109582551704862 0
740 0.02370699608243471 0.005475177304786673 0
741 0.0229273922511555 0.004086041195218502 0
742 0.0221208235010473 0.005455823996393108 0
743 0.02134063645996893 0.004066200975178936 0
744 0.02053449967592748 0.005435683287765513 0
745 0.0197540109286046 0.004046495184583408 0
746 0.01894831064371023 0.005417247624258315 0
747 0.01817908285672424 0.004040536251878304 0
748 0.01736453065840612 0.005399632409039637 0
749 0.01659201620540711 0.004043876625720002 0
750 0.01577806101453874 0.005402542317550022 0
751 0.02533881525887675 0.002747128668318593 0
752 0.02766069934688668 0.006898434749736073 0
753 0.01656277189573581 0.006802057621998069 0
754 0.01973251032640866 0.006832658786227397 0
755 0.0229045001164758 0.00686406124492206 0
756 0.03560324243589535 0.006953162460928014 0
757 0.03640917034930432 0.005577388924355847 0
758 0.03877560108013375 0.006967938945574036 0
759 0.03558200885712831 0.01249710007325564 0
760 0.03717131631281244 0.0125111880061077 0
761 0.03796619064731004 0.01113012001347618 0
762 0.03958345701882506 0.005593442200800147 0
763 0.04195006956164357 0.006987185739354107 0
764 0.04034471422074449 0.01253064864221277 0
765 0.04193246620276492 0.0125329070112961 0
766 0.04272761740025648 0.01115137523543948 0
767 0.04275801297690807 0.005612732229397799 0
768 0.04510634950354714 0.01254830254692887 0
769 0.04593268017449184 0.005632117273536147 0
770 0.04669388621393326 0.01254991383487127 0
771 0.04748897340842211 0.01117030146304712 0
772 0.04986928547252834 0.0125645126913357 0
773 0.05145783438229683 0.01257405968665453 0
774 0.05225390166263363 0.01119324339445324 0
775 0.05069392387329009 0.005661786224516511 0
776 0.05462997328311892 0.01257577557220314 0
777 0.05701007938257985 0.01120863367399405 0
778 0.07287677358001712 0.01681006814612114 0
779 0.0721196237716254 0.01830744076575858 0
780 0.07448323804216123 0.01703687876730487 0
781 0.07534320838405659 0.01849498691501547 0
782 0.07768416145091082 0.01696320441275564 0
783 0.07852018899688165 0.01847516159224387 0
784 0.08085907835239337 0.01697022669820369 0
785 0.08171315127835754 0.01847359062375139 0
786 0.08403381569039295 0.01699762195121382 0
787 0.08512516180945701 0.01850386475880568 0
788 0.08660292195093724 0.01780859991121049 0
789 0.08795199079259461 0.01725617669634593 0
790 0.04512442954757513 0.007006728015790066 0
791 0.05780385237559968 0.0125950392341468 0
792 0.06018321560939197 0.01122161526947552 0
793 0.06097847178205745 0.01260453405021202 0
794 0.06256471511063728 0.01261069468039721 0
795 0.05000000000013607 0.01862535650193146 0
796 0.05158730156088814 0.01873570179916187 0
797 0.05236052784944382 0.01734613537089008 0
798 0.02142857142863325 0.01862535650192728 0
799 0.03253968242555627 0.01867509824641237 0
800 0.04682539682552831 0.01862535650192662 0
801 0.02460317460324127 0.01862535650192728 0
802 0.01825393283262283 0.01871818355241438 0
803 0.01736755010063982 0.01733895347158444 0
804 0.04047619047630118 0.01862535650192621 0
805 0.04365079365091348 0.01862535650192618 0
806 0.03571428571438368 0.01862535650192675 0
807 0.0373015868692644 0.01873011889047691 0
808 0.03807437507216593 0.01733690479810431 0
809 0.02777777777785371 0.01862535650192646 0
810 0.02936507736006529 0.01872703260645104 0
811 0.03013763733950159 0.01733178850339773 0
812 0.01823566720548418 0.001353203095832064 0
813 0.05476190476202977 0.01862535650193335 0
814 0.02139709545995929 0.001368873333377578 0
815 0.01506408892616419 0.001363700106287706 0
816 0.06740989269509264 0.01854252533293156 0
817 0.06969592760328211 0.01713038421727181 0
818 0.06422629420455858 0.01852132764346073 0
819 0.06656645169334396 0.01698593330085517 0
820 0.06105169097376925 0.0185191375690038 0
821 0.06338939972274744 0.01697486904609781 0
822 0.05793650793662429 0.01862535650193332 0
823 0.06018145452752148 0.01699162222422509 0
824 0.07687033221284968 0.007180944561664376 0
825 0.07369343470651679 0.007158586059497078 0
826 0.0728826431794988 0.01127802417903476 0
827 0.06494448478340341 0.01123779784486126 0
828 0.07051886642172478 0.00714337821266002 0
829 0.06811648103459612 0.01125353206701142 0
830 0.06258705454602455 0.007102753068100765 0
831 0.05672030861333779 0.01667881254314942 0
832 0.05941240438618596 0.007085205614276472 0
833 0.04881444873246391 0.01658325818845738 0
834 0.04560122392568936 0.01656855828816288 0
835 0.04242703006009182 0.01655958913688163 0
836 0.03478776977430018 0.01110442739959089 0
837 0.03320179435867028 0.01112378571230298 0
838 0.03452906353388224 0.01654222457231159 0
839 0.02659275099668676 0.01651939125760837 0
840 0.04829793304417265 0.007026095403329772 0
841 0.02337935323929626 0.01650416926844732 0
842 0.06574345547035043 0.01262429977895617 0
843 0.01425810538184399 0.00273519511234086 0
844 0.03167131565687841 0.002789291420172528 0
845 0.01733276711698458 0.01098557583214892 0
846 0.07685332740341888 0.01267385573767782 0
847 0.01416628172868515 0.01096491307565574 0
848 0.0491072983859435 0.005651492843992135 0
849 0.0673307417792397 0.01263121974108699 0
850 0.05147319862604637 0.007044248156414319 0
851 0.08874866379255644 0.01135085027586624 0
852 0.01100607436567275 0.01094120274321026 0
853 0.09883711901717541 0.008456224460520518 0
854 0.09839588368272868 0.01147787302876412 0
855 0.006284224232320329 0.01092284447763174 0
856 0.06970560142133196 0.01126040502675044 0
857 0.05306195234930754 0.007052634294308572 0
858 0.01190076759769618 0.001372293205547671 0
859 0.09269788400269226 0.01001350909312203 0
860 0.01021004129226159 0.0122982923002071 0
861 0.01024258941622841 0.006849341679037113 0
862 0.05386908468284705 0.0056794060996626 0
863 0.09036089206466374 0.005894890214783353 0
864 0.001560043147714479 0.01618018379781152 0
865 0.0705053115181116 0.01264505909128872 0
866 0.06498018130059995 0.005748813274746463 0
867 0.09736467063592022 0.01546027050666334 0
868 0.008701018718261438 0.00411097286818746 0
869 0.08161526139172862 0.01269322918641121 0
870 0.03242953325276404 0.006937265278795108 0
871 0.03253556834478723 0.001390378284062752 0
872 0.05623767909381605 0.007068778201542821 0
873 0.09268414565518786 0.01549023015724038 0
874 0.02935780325986043 0.001372636552362874 0
875 0.0720904314286947 0.01265215900871471 0
876 0.05704379968098307 0.005697660308853936 0
877 0.007035540405066204 0.01490277376228427 0
878 0.0490766131026211 0.01117586875558294 0
879 0.05863069918741351 0.005707467544369041 0
880 0.04431484470226317 0.0111563195487395 0
881 0.03955324349509812 0.01113557165309608 0
882 0.07447190420669884 0.01128614925991471 0
883 0.05383845623106653 0.01118766982900064 0
884 0.01178819369221411 0.01230576873039738 0
885 0.08795707343267041 0.01271561595821153 0
886 0.06021879440741322 0.00571542598336284 0
887 0.0313492965014304 0.01636321616571619 0
888 0.07526434300336569 0.01266805972997723 0
889 0.06180606956807541 0.005724609376865182 0
890 0.06335998743447699 0.01123241527904962 0
891 0.06339227737633589 0.005736653161807589 0
892 0.07764742997708272 0.01130011485435922 0
893 0.06575831100998983 0.007126291718960035 0
894 0.02607510591085598 0.006889161364146235 0
895 0.01336613510076817 0.01231983036858855 0
896 0.0277697399895573 0.001368570816101808 0
897 0.07923553322179266 0.0113081794182771 0
898 0.08878005310531062 0.00588028330151684 0
899 0.06734465429100511 0.007135542230726251 0
900 0.08647079224738066 0.001546321744760815 0
901 0.08002758843690018 0.01268715538822343 0
902 0.06814828960858677 0.005766343284883257 0
903 0.07926513324150904 0.005830691672832182 0
904 0.08241134037219364 0.01132298439129931 0
905 0.01494915385923228 0.01232879215465732 0
906 0.08399835030219555 0.01133037822099657 0
907 0.06973647871937491 0.005773483516006592 0
908 0.08637112637651237 0.0127153672749158 0
909 0.08478792404182842 0.01270628675411829 0
910 0.07132422768017711 0.005782848613683804 0
911 0.03928592398302782 0.0163814258268385 0
912 0.08402896193564542 0.005856502672909805 0
913 0.01653228282131725 0.01233887423805805 0
914 0.01811711475247161 0.01234833185499388 0
915 0.0729115825717746 0.005791843571714634 0
916 0.08171101017911016 0.001539591241427651 0
917 0.07449888523465698 0.00580074185036197 0
918 0.02692557637908211 0.002754871193835098 0
919 0.07608823559219025 0.005809885076731081 0
920 0.08719965940430592 0.005872848942421409 0
921 0.07767654217451089 0.005821115389421515 0
922 0.08639971009397775 0.00723765458809294 0
923 0.08005010348386878 0.007201957362210399 0
924 0.08163748518863946 0.007210629441161551 0
925 0.08481188070296318 0.007231336891878918 0
926 0.08244191469649159 0.005847167814486323 0
927 0.0324165247470049 0.01250138511784045 0
928 0.01104537527897571 0.005493628340800112 0
929 0.06742601333433468 0.001500652750950282 0
930 0.01340943739560948 0.006861617641811455 0
931 0.05357246065371921 0.01641367116916943 0
932 0.02457361730622377 0.001373577036039237 0
933 0.09525494492085014 0.005990054525751357 0
934 0.05314032808268285 0.001422895347606882 0
935 0.02374109181740999 0.002749405147458853 0
936 0.07057041117342459 0.01847867652611182 0
937 0.0987872663610066 0.01616103913159962 0
938 0.01420783875134013 0.005468651182375424 0
939 0.02215589523313855 0.002735821319212949 0
940 0.08939396610091364 0.01825303941752286 0
941 0.02046719117056744 0.01376657078640665 0
942 0.02056430682943933 0.002732726052445142 0
943 0.01969636658896833 0.01238435832154484 0
944 0.01898626823382068 0.002715113939128287 0
945 0.01740735529404949 0.002702221820352646 0
946 0.09760375839423199 0.0184085197007753 0
947 0.0158080801868945 0.002708495569715178 0
948 0.001295127663359937 0.01762784229985316 0
949 0.01500079114319541 0.004079577426134913 0
950 0.09874638565126656 0.01311432823281033 0
951 0.00131517117308938 0.01306133687593946 0
952 0.09724859003157493 0.01011671805833716 0
953 0.09115253200375407 0.001622138164470606 0
954 0.001296552769563884 0.01147259587291362 0
955 0.002581575694020328 0.009387256049468296 0
956 0.002585515701080197 0.01513229877409001 0
957 0.001066009820890612 0.006893250257701748 0
958 0.09893647181242782 0.003936135175014677 0
959 0.001071149979904303 0.003924953357542016 0
960 0.003968253968265029 0.01898080789492052 0
961 0.005413100323313019 0.01727411902211113 0
962 0.09896186150345578 0.006954477131723397 0
963 0.007770970467294767 0.01607451739518572 0
964 0.08906593360108311 0.0166297451458484 0
965 0.009545600308442542 0.01768710435044266 0
966 0.01102313180708048 0.01596897683867115 0
967 0.01266605082706749 0.0176767131476477 0
968 0.001164657935074449 0.01884798408485757 0
969 0.002501662265658508 0.01733639828570709 0
970 0.001169894731618964 0.001157418959200267 0
971 0.09883010526837313 0.001157418959204793 0
972 0.01418908922385584 0.01597992080510213 0
973 0.01582893306990017 0.01768086970030745 0
974 0.09761360393936061 0.007891642381630882 0
975 0.01728427072633456 0.01597797632853572 0
976 0.09896603980333062 0.01890728684338056 0
977 0.00668750343545093 0.01740432508908418 0
978 0.01910550385066458 0.01761215645918208 0
979 0.09783088292959986 0.01693446030623249 0
980 0.09775576830490147 0.01391262856684811 0
981 0.08684696547192025 0.01658771138262835 0
982 0.02068868567226 0.01770193661424163 0
983 0.02222222222228523 0.01776000799345378 0
984 0.02384418426078141 0.01773003760281069 0
985 0.02539682539689479 0.01776650237058891 0
986 0.02711139798471522 0.0176853378420541 0
987 0.09776492615012485 0.008991992510445974 0
988 0.02856729426767643 0.01779390525058668 0
989 0.03001707957069959 0.01609719814890419 0
990 0.03184271477153287 0.01762952826816776 0
991 0.03341284691749265 0.01770763547936538 0
992 0.03511196772429415 0.01765249080870128 0
993 0.08650717056743189 0.01905313520904228 0
994 0.03651658105144496 0.01779404326088554 0
995 0.03977936917553441 0.01763565800580377 0
996 0.03795335347897307 0.01610897348595933 0
997 0.04130878180360116 0.01775685675499556 0
998 0.0428934677020224 0.01776513398104627 0
999 0.04444444444456696 0.01780513701108968 0
1000 0.04606636338332507 0.01777304717240207 0
1001 0.09540852034336184 0.007571299166332514 0
1002 0.04761904761918086 0.01781159764589558 0
1003 0.04933349471574824 0.0177249902311592 0
1004 0.05078951922117712 0.01782057387837936 0
1005 0.05406542544349485 0.01765726737528456 0
1006 0.05223901951791562 0.01613000403538399 0
1007 0.05563268831224435 0.0177490054219389 0
1008 0.057108485822513 0.01781075048526638 0
$EndNodes
$Elements
2014
1 1 2 4 1 1 5
2 1 2 4 1 5 6
3 1 2 4 1 6 7
4 1 2 4 1 7 8
5 1 2 4 1 8 9
6 1 2 4 1 9 10
7 1 2 4 1 10 11
8 1 2 4 1 11 12
9 1 2 4 1 12 13
10 1 2 4 1 13 14
11 1 2 4 1 14 15
12 1 2 4 1 15 16
13 1 2 4 1 16 17
14 1 2 4 1 17 18
15 1 2 4 1 18 19
16 1 2 4 1 19 20
17 1 2 4 1 20 21
18 1 2 4 1 21 22
19 1 2 4 1 22 23
20 1 2 4 1 23 24
21 1 2 4 1 24 25
22 1 2 4 1 25 26
23 1 2 4 1 26 27
24 1 2 4 1 27 28
25 1 2 4 1 28 29
26 1 2 4 1 29 30
27 1 2 4 1 30 31
28 1 2 4 1 31 32
29 1 2 4 1 32 33
30 1 2 4 1 33 34
31 1 2 4 1 34 35
32 1 2 4 1 35 36
33 1 2 4 1 36 37
34 1 2 4 1 37 38
35 1 2 4 1 38 39
36 1 2 4 1 39 40
37 1 2 4 1 40 41
38 1 2 4 1 41 42
39 1 2 4 1 42 43
40 1 2 4 1 43 44
41 1 2 4 1 44 45
42 1 2 4 1 45 46
43 1 2 4 1 46 47
44 1 2 4 1 47 48
45 1 2 4 1 48 49
46 1 2 4 1 49 50
47 1 2 4 1 50 51
48 1 2 4 1 51 52
49 1 2 4 1 52 53
50 1 2 4 1 53 54
51 1 2 4 1 54 55
52 1 2 4 1 55 56
53 1 2 4 1 56 57
54 1 2 4 1 57 58
55 1 2 4 1 58 59
56 1 2 4 1 59 60
57 1 2 4 1 60 61
58 1 2 4 1 61 62
59 1 2 4 1 62 63
60 1 2 4 1 63 64
61 1 2 4 1 64 65
62 1 2 4 1 65 66
63 1 2 4 1 66 2
64 1 2 2 2 2 67
65 1 2 2 2 67 68
66 1 2 2 2 68 69
67 1 2 2 2 69 70
68 1 2 2 2 70 71
69 1 2 2 2 71 72
70 1 2 2 2 72 73
71 1 2 2 2 73 74
72 1 2 2 2 74 75
73 1 2 2 2 75 76
74 1 2 2 2 76 77
75 1 2 2 2 77 78
76 1 2 2 2 78 3
77 1 2 3 3 3 79
78 1 2 3 3 79 80
79 1 2 3 3 80 81
80 1 2 3 3 81 82
81 1 2 3 3 82 83
82 1 2 3 3 83 84
83 1 2 3 3 84 85
84 1 2 3 3 85 86
85 1 2 3 3 86 87
86 1 2 3 3 87 88
87 1 2 3 3 88 89
88 1 2 3 3 89 90
89 1 2 3 3 90 91
90 1 2 3 3 91 92
91 1 2 3 3 92 93
92 1 2 3 3 93 94
93 1 2 3 3 94 95
94 1 2 3 3 95 96
95 1 2 3 3 96 97
96 1 2 3 3 97 98
97 1 2 3 3 98 99
98 1 2 3 3 99 100
99 1 2 3 3 100 101
100 1 2 3 3 101 102
101 1 2 3 3 102 103
102 1 2 3 3 103 104
103 1 2 3 3 104 105
104 1 2 3 3 105 106
105 1 2 3 3 106 107
106 1 2 3 3 107 108
107 1 2 3 3 108 109
108 1 2 3 3 109 110
109 1 2 3 3 110 111
110 1 2 3 3 111 112
111 1 2 3 3 112 113
112 1 2 3 3 113 114
113 1 2 3 3 114 115
114 1 2 3 3 115 116
115 1 2 3 3 116 117
116 1 2 3 3 117 118
117 1 2 3 3 118 119
118 1 2 3 3 119 120
119 1 2 3 3 120 121
120 1 2 3 3 121 122
121 1 2 3 3 122 123
122 1 2 3 3 123 124
123 1 2 3 3 124 125
124 1 2 3 3 125 126
125 1 2 3 3 126 127
126 1 2 3 3 127 128
127 1 2 3 3 128 129
128 1 2 3 3 129 130
129 1 2 3 3 130 131
130 1 2 3 3 131 132
131 1 2 3 3 132 133
132 1 2 3 3 133 134
133 1 2 3 3 134 135
134 1 2 3 3 135 136
135 1 2 3 3 136 137
136 1 2 3 3 137 138
137 1 2 3 3 138 139
138 1 2 3 3 139 140
139 1 2 3 3 140 4
140 1 2 1 4 4 141
141 1 2 1 4 141 142
142 1 2 1 4 142 143
143 1 2 1 4 143 144
144 1 2 1 4 144 145
145 1 2 1 4 145 146
146 1 2 1 4 146 147
147 1 2 1 4 147 148
148 1 2 1 4 148 149
149 1 2 1 4 149 150
150 1 2 1 4 150 151
151 1 2 1 4 151 152
152 1 2 1 4 152 1
153 2 2 5 1 544 164 822
154 2 2 5 1 61 62 953
155 2 2 5 1 854 522 952
156 2 2 5 1 545 204 820
157 2 2 5 1 548 162 818
158 2 2 5 1 549 200 816
159 2 2 5 1 95 96 779
160 2 2 5 1 209 546 547
161 2 2 5 1 692 400 693
162 2 2 5 1 154 553 954
163 2 2 5 1 688 186 951
164 2 2 5 1 209 547 946
165 2 2 5 1 63 183 694
166 2 2 5 1 680 681 933
167 2 2 5 1 84 85 940
168 2 2 5 1 400 399 693
169 2 2 5 1 675 522 854
170 2 2 5 1 83 84 570
171 2 2 5 1 400 680 933
172 2 2 5 1 680 400 692
173 2 2 5 1 570 84 940
174 2 2 5 1 62 694 953
175 2 2 5 1 161 95 779
176 2 2 5 1 178 557 559
177 2 2 5 1 164 544 823
178 2 2 5 1 778 161 779
179 2 2 5 1 204 545 821
180 2 2 5 1 181 83 570
181 2 2 5 1 550 203 781
182 2 2 5 1 551 181 570
183 2 2 5 1 162 548 819
184 2 2 5 1 58 59 900
185 2 2 5 1 546 209 627
186 2 2 5 1 946 547 979
187 2 2 5 1 552 159 783
188 2 2 5 1 458 456 823
189 2 2 5 1 200 549 817
190 2 2 5 1 399 512 693
191 2 2 5 1 556 201 785
192 2 2 5 1 454 452 821
193 2 2 5 1 169 563 566
194 2 2 5 1 161 778 780
195 2 2 5 1 450 448 819
196 2 2 5 1 186 688 956
197 2 2 5 1 151 152 708
198 2 2 5 1 154 147 652
199 2 2 5 1 545 820 823
200 2 2 5 1 203 550 782
201 2 2 5 1 67 68 678
202 2 2 5 1 446 444 817
203 2 2 5 1 55 56 916
204 2 2 5 1 817 511 936
205 2 2 5 1 181 551 667
206 2 2 5 1 548 818 821
207 2 2 5 1 159 552 784
208 2 2 5 1 178 559 591
209 2 2 5 1 440 438 780
210 2 2 5 1 189 571 574
211 2 2 5 1 549 816 819
212 2 2 5 1 201 556 786
213 2 2 5 1 553 154 955
214 2 2 5 1 436 434 782
215 2 2 5 1 59 591 900
216 2 2 5 1 62 63 694
217 2 2 5 1 432 430 784
218 2 2 5 1 172 576 578
219 2 2 5 1 651 184 653
220 2 2 5 1 428 426 786
221 2 2 5 1 169 566 601
222 2 2 5 1 153 854 952
223 2 2 5 1 147 148 652
224 2 2 5 1 81 82 627
225 2 2 5 1 56 601 916
226 2 2 5 1 193 581 583
227 2 2 5 1 87 88 787
228 2 2 5 1 158 789 940
229 2 2 5 1 183 693 694
230 2 2 5 1 708 152 970
231 2 2 5 1 67 678 971
232 2 2 5 1 168 585 587
233 2 2 5 1 59 60 591
234 2 2 5 1 88 201 787
235 2 2 5 1 511 779 936
236 2 2 5 1 46 47 929
237 2 2 5 1 53 54 636
238 2 2 5 1 940 789 964
239 2 2 5 1 544 822 1008
240 2 2 5 1 553 555 954
241 2 2 5 1 56 57 601
242 2 2 5 1 653 184 654
243 2 2 5 1 195 592 595
244 2 2 5 1 403 667 873
245 2 2 5 1 681 187 682
246 2 2 5 1 51 52 641
247 2 2 5 1 544 458 823
248 2 2 5 1 456 545 823
249 2 2 5 1 168 587 606
250 2 2 5 1 779 96 936
251 2 2 5 1 452 548 821
252 2 2 5 1 545 454 821
253 2 2 5 1 189 574 636
254 2 2 5 1 679 187 681
255 2 2 5 1 448 549 819
256 2 2 5 1 548 450 819
257 2 2 5 1 173 597 599
258 2 2 5 1 49 50 643
259 2 2 5 1 85 158 940
260 2 2 5 1 444 511 817
261 2 2 5 1 549 446 817
262 2 2 5 1 60 178 591
263 2 2 5 1 172 578 641
264 2 2 5 1 555 688 951
265 2 2 5 1 178 61 953
266 2 2 5 1 778 440 780
267 2 2 5 1 438 550 780
268 2 2 5 1 47 606 929
269 2 2 5 1 576 172 636
270 2 2 5 1 199 602 604
271 2 2 5 1 434 552 782
272 2 2 5 1 550 436 782
273 2 2 5 1 169 58 900
274 2 2 5 1 193 583 643
275 2 2 5 1 57 169 601
276 2 2 5 1 430 556 784
277 2 2 5 1 552 432 784
278 2 2 5 1 581 193 641
279 2 2 5 1 426 513 786
280 2 2 5 1 563 169 900
281 2 2 5 1 556 428 786
282 2 2 5 1 209 81 627
283 2 2 5 1 82 181 627
284 2 2 5 1 175 607 609
285 2 2 5 1 93 94 781
286 2 2 5 1 44 45 661
287 2 2 5 1 611 614 934
288 2 2 5 1 189 55 916
289 2 2 5 1 91 92 783
290 2 2 5 1 89 90 785
291 2 2 5 1 585 168 643
292 2 2 5 1 38 39 613
293 2 2 5 1 47 48 606
294 2 2 5 1 681 683 933
295 2 2 5 1 571 189 916
296 2 2 5 1 195 595 661
297 2 2 5 1 42 43 664
298 2 2 5 1 191 614 617
299 2 2 5 1 175 609 613
300 2 2 5 1 54 189 636
301 2 2 5 1 172 53 636
302 2 2 5 1 173 599 664
303 2 2 5 1 39 175 613
304 2 2 5 1 614 191 934
305 2 2 5 1 693 512 694
306 2 2 5 1 557 178 953
307 2 2 5 1 532 701 965
308 2 2 5 1 40 41 670
309 2 2 5 1 580 182 960
310 2 2 5 1 48 168 606
311 2 2 5 1 597 173 661
312 2 2 5 1 701 532 966
313 2 2 5 1 951 145 954
314 2 2 5 1 533 717 967
315 2 2 5 1 717 533 972
316 2 2 5 1 52 172 641
317 2 2 5 1 193 51 641
318 2 2 5 1 182 580 961
319 2 2 5 1 667 551 873
320 2 2 5 1 199 604 670
321 2 2 5 1 165 619 621
322 2 2 5 1 403 546 667
323 2 2 5 1 534 803 973
324 2 2 5 1 803 534 975
325 2 2 5 1 602 199 664
326 2 2 5 1 50 193 643
327 2 2 5 1 168 49 643
328 2 2 5 1 645 683 974
329 2 2 5 1 820 164 823
330 2 2 5 1 195 46 929
331 2 2 5 1 780 550 781
332 2 2 5 1 818 204 821
333 2 2 5 1 816 162 819
334 2 2 5 1 607 175 670
335 2 2 5 1 206 623 625
336 2 2 5 1 782 552 783
337 2 2 5 1 154 652 955
338 2 2 5 1 530 963 977
339 2 2 5 1 784 556 785
340 2 2 5 1 592 195 929
341 2 2 5 1 559 561 591
342 2 2 5 1 191 617 689
343 2 2 5 1 203 93 781
344 2 2 5 1 200 817 936
345 2 2 5 1 201 786 787
346 2 2 5 1 159 91 783
347 2 2 5 1 35 36 689
348 2 2 5 1 201 89 785
349 2 2 5 1 184 651 957
350 2 2 5 1 45 195 661
351 2 2 5 1 173 44 661
352 2 2 5 1 94 161 781
353 2 2 5 1 163 632 634
354 2 2 5 1 653 654 685
355 2 2 5 1 92 203 783
356 2 2 5 1 963 698 977
357 2 2 5 1 90 159 785
358 2 2 5 1 566 568 601
359 2 2 5 1 235 233 753
360 2 2 5 1 864 531 969
361 2 2 5 1 746 381 748
362 2 2 5 1 165 621 691
363 2 2 5 1 43 173 664
364 2 2 5 1 199 42 664
365 2 2 5 1 531 864 956
366 2 2 5 1 619 165 689
367 2 2 5 1 33 34 691
368 2 2 5 1 505 507 941
369 2 2 5 1 675 854 950
370 2 2 5 1 206 625 699
371 2 2 5 1 238 240 695
372 2 2 5 1 587 589 606
373 2 2 5 1 208 637 639
374 2 2 5 1 683 645 1001
375 2 2 5 1 175 40 670
376 2 2 5 1 41 199 670
377 2 2 5 1 623 206 691
378 2 2 5 1 337 628 629
379 2 2 5 1 672 538 673
380 2 2 5 1 239 237 754
381 2 2 5 1 613 611 934
382 2 2 5 1 163 634 709
383 2 2 5 1 627 181 667
384 2 2 5 1 706 714 928
385 2 2 5 1 742 378 744
386 2 2 5 1 632 163 699
387 2 2 5 1 31 32 699
388 2 2 5 1 382 750 753
389 2 2 5 1 507 538 672
390 2 2 5 1 242 244 707
391 2 2 5 1 348 630 719
392 2 2 5 1 156 655 657
393 2 2 5 1 254 256 837
394 2 2 5 1 574 576 636
395 2 2 5 1 208 639 718
396 2 2 5 1 38 613 934
397 2 2 5 1 246 248 720
398 2 2 5 1 637 208 709
399 2 2 5 1 506 811 988
400 2 2 5 1 811 506 989
401 2 2 5 1 156 657 669
402 2 2 5 1 329 631 722
403 2 2 5 1 578 581 641
404 2 2 5 1 681 682 683
405 2 2 5 1 165 35 689
406 2 2 5 1 36 191 689
407 2 2 5 1 748 381 753
408 2 2 5 1 583 585 643
409 2 2 5 1 250 252 723
410 2 2 5 1 759 516 836
411 2 2 5 1 330 759 836
412 2 2 5 1 381 746 754
413 2 2 5 1 402 653 685
414 2 2 5 1 759 330 760
415 2 2 5 1 29 30 709
416 2 2 5 1 508 808 994
417 2 2 5 1 654 665 685
418 2 2 5 1 808 508 996
419 2 2 5 1 233 382 753
420 2 2 5 1 243 241 755
421 2 2 5 1 714 412 928
422 2 2 5 1 381 235 753
423 2 2 5 1 655 156 718
424 2 2 5 1 262 264 881
425 2 2 5 1 595 597 661
426 2 2 5 1 703 705 868
427 2 2 5 1 555 951 954
428 2 2 5 1 538 536 982
429 2 2 5 1 591 561 900
430 2 2 5 1 599 602 664
431 2 2 5 1 982 536 983
432 2 2 5 1 495 631 724
433 2 2 5 1 738 377 740
434 2 2 5 1 206 33 691
435 2 2 5 1 34 165 691
436 2 2 5 1 705 375 868
437 2 2 5 1 604 607 670
438 2 2 5 1 536 841 983
439 2 2 5 1 983 841 984
440 2 2 5 1 764 339 765
441 2 2 5 1 349 238 695
442 2 2 5 1 628 337 707
443 2 2 5 1 240 337 695
444 2 2 5 1 507 672 941
445 2 2 5 1 841 537 984
446 2 2 5 1 650 402 668
447 2 2 5 1 402 650 653
448 2 2 5 1 760 330 761
449 2 2 5 1 984 537 985
450 2 2 5 1 247 245 894
451 2 2 5 1 268 270 880
452 2 2 5 1 962 853 974
453 2 2 5 1 617 619 689
454 2 2 5 1 537 839 985
455 2 2 5 1 657 659 669
456 2 2 5 1 744 378 754
457 2 2 5 1 630 348 720
458 2 2 5 1 985 839 986
459 2 2 5 1 621 623 691
460 2 2 5 1 351 837 927
461 2 2 5 1 378 742 755
462 2 2 5 1 625 632 699
463 2 2 5 1 337 629 695
464 2 2 5 1 761 262 881
465 2 2 5 1 839 506 986
466 2 2 5 1 986 506 988
467 2 2 5 1 765 339 766
468 2 2 5 1 237 381 754
469 2 2 5 1 634 637 709
470 2 2 5 1 601 568 916
471 2 2 5 1 378 239 754
472 2 2 5 1 631 329 723
473 2 2 5 1 639 655 718
474 2 2 5 1 646 180 703
475 2 2 5 1 768 343 770
476 2 2 5 1 509 797 1004
477 2 2 5 1 797 509 1006
478 2 2 5 1 32 206 699
479 2 2 5 1 163 31 699
480 2 2 5 1 731 179 844
481 2 2 5 1 646 703 868
482 2 2 5 1 260 262 761
483 2 2 5 1 724 351 927
484 2 2 5 1 210 580 960
485 2 2 5 1 493 495 724
486 2 2 5 1 337 242 707
487 2 2 5 1 244 348 707
488 2 2 5 1 27 28 718
489 2 2 5 1 179 731 874
490 2 2 5 1 274 276 878
491 2 2 5 1 669 659 871
492 2 2 5 1 770 343 771
493 2 2 5 1 351 254 837
494 2 2 5 1 256 836 837
495 2 2 5 1 731 732 874
496 2 2 5 1 546 627 667
497 2 2 5 1 766 268 880
498 2 2 5 1 348 246 720
499 2 2 5 1 990 539 991
500 2 2 5 1 248 329 720
501 2 2 5 1 386 648 668
502 2 2 5 1 539 838 991
503 2 2 5 1 659 844 871
504 2 2 5 1 844 179 871
505 2 2 5 1 991 838 992
506 2 2 5 1 673 538 978
507 2 2 5 1 887 539 990
508 2 2 5 1 665 654 708
509 2 2 5 1 360 388 690
510 2 2 5 1 87 787 993
511 2 2 5 1 772 331 773
512 2 2 5 1 161 780 781
513 2 2 5 1 874 732 896
514 2 2 5 1 388 644 690
515 2 2 5 1 160 896 918
516 2 2 5 1 838 508 992
517 2 2 5 1 266 268 766
518 2 2 5 1 992 508 994
519 2 2 5 1 203 782 783
520 2 2 5 1 329 250 723
521 2 2 5 1 776 523 883
522 2 2 5 1 252 351 723
523 2 2 5 1 896 732 918
524 2 2 5 1 330 260 761
525 2 2 5 1 278 280 774
526 2 2 5 1 707 348 719
527 2 2 5 1 740 377 755
528 2 2 5 1 30 163 709
529 2 2 5 1 208 29 709
530 2 2 5 1 159 784 785
531 2 2 5 1 648 650 668
532 2 2 5 1 241 378 755
533 2 2 5 1 836 516 837
534 2 2 5 1 377 243 755
535 2 2 5 1 642 386 686
536 2 2 5 1 786 513 787
537 2 2 5 1 606 589 929
538 2 2 5 1 386 642 648
539 2 2 5 1 773 331 774
540 2 2 5 1 771 274 878
541 2 2 5 1 752 247 894
542 2 2 5 1 339 266 766
543 2 2 5 1 720 329 722
544 2 2 5 1 331 278 774
545 2 2 5 1 371 249 752
546 2 2 5 1 342 647 776
547 2 2 5 1 750 382 938
548 2 2 5 1 727 726 870
549 2 2 5 1 272 274 771
550 2 2 5 1 253 251 734
551 2 2 5 1 932 751 935
552 2 2 5 1 540 835 997
553 2 2 5 1 180 646 725
554 2 2 5 1 997 835 998
555 2 2 5 1 995 540 997
556 2 2 5 1 729 371 735
557 2 2 5 1 342 776 883
558 2 2 5 1 264 339 881
559 2 2 5 1 705 706 928
560 2 2 5 1 631 723 724
561 2 2 5 1 835 541 998
562 2 2 5 1 453 455 794
563 2 2 5 1 343 272 771
564 2 2 5 1 998 541 999
565 2 2 5 1 340 360 690
566 2 2 5 1 663 369 726
567 2 2 5 1 424 672 673
568 2 2 5 1 911 540 995
569 2 2 5 1 249 247 752
570 2 2 5 1 371 729 734
571 2 2 5 1 350 662 791
572 2 2 5 1 541 834 999
573 2 2 5 1 202 932 935
574 2 2 5 1 726 369 870
575 2 2 5 1 999 834 1000
576 2 2 5 1 156 27 718
577 2 2 5 1 28 208 718
578 2 2 5 1 251 371 734
579 2 2 5 1 270 343 880
580 2 2 5 1 158 788 789
581 2 2 5 1 214 188 215
582 2 2 5 1 339 764 881
583 2 2 5 1 629 941 943
584 2 2 5 1 733 730 735
585 2 2 5 1 834 542 1000
586 2 2 5 1 1000 542 1002
587 2 2 5 1 978 538 982
588 2 2 5 1 214 215 665
589 2 2 5 1 647 342 777
590 2 2 5 1 245 377 894
591 2 2 5 1 397 522 674
592 2 2 5 1 542 833 1002
593 2 2 5 1 1002 833 1003
594 2 2 5 1 284 286 777
595 2 2 5 1 24 25 871
596 2 2 5 1 827 524 890
597 2 2 5 1 535 674 675
598 2 2 5 1 730 729 735
599 2 2 5 1 517 760 761
600 2 2 5 1 665 215 685
601 2 2 5 1 735 371 752
602 2 2 5 1 276 331 878
603 2 2 5 1 7 188 214
604 2 2 5 1 497 499 722
605 2 2 5 1 343 768 880
606 2 2 5 1 677 211 678
607 2 2 5 1 518 765 766
608 2 2 5 1 259 257 756
609 2 2 5 1 377 738 894
610 2 2 5 1 833 509 1003
611 2 2 5 1 501 503 719
612 2 2 5 1 25 26 669
613 2 2 5 1 26 156 669
614 2 2 5 1 662 350 792
615 2 2 5 1 777 350 791
616 2 2 5 1 671 374 762
617 2 2 5 1 1003 509 1004
618 2 2 5 1 695 629 943
619 2 2 5 1 674 522 675
620 2 2 5 1 519 770 771
621 2 2 5 1 217 402 685
622 2 2 5 1 328 340 859
623 2 2 5 1 369 663 756
624 2 2 5 1 392 397 674
625 2 2 5 1 750 748 753
626 2 2 5 1 402 219 668
627 2 2 5 1 666 376 757
628 2 2 5 1 183 64 676
629 2 2 5 1 219 221 668
630 2 2 5 1 331 772 878
631 2 2 5 1 686 341 855
632 2 2 5 1 555 408 688
633 2 2 5 1 25 669 871
634 2 2 5 1 340 690 859
635 2 2 5 1 212 214 665
636 2 2 5 1 376 666 758
637 2 2 5 1 455 793 794
638 2 2 5 1 524 453 794
639 2 2 5 1 792 344 793
640 2 2 5 1 677 678 679
641 2 2 5 1 733 735 736
642 2 2 5 1 642 686 855
643 2 2 5 1 263 261 758
644 2 2 5 1 523 774 883
645 2 2 5 1 205 945 947
646 2 2 5 1 676 677 692
647 2 2 5 1 288 290 792
648 2 2 5 1 677 680 692
649 2 2 5 1 676 211 677
650 2 2 5 1 215 217 685
651 2 2 5 1 684 373 767
652 2 2 5 1 524 794 890
653 2 2 5 1 221 386 668
654 2 2 5 1 746 744 754
655 2 2 5 1 345 310 892
656 2 2 5 1 524 827 842
657 2 2 5 1 9 180 725
658 2 2 5 1 656 640 757
659 2 2 5 1 734 727 870
660 2 2 5 1 374 671 763
661 2 2 5 1 374 758 762
662 2 2 5 1 183 676 692
663 2 2 5 1 213 946 979
664 2 2 5 1 629 505 941
665 2 2 5 1 216 188 725
666 2 2 5 1 386 223 686
667 2 2 5 1 412 714 930
668 2 2 5 1 408 406 688
669 2 2 5 1 212 6 214
670 2 2 5 1 774 280 883
671 2 2 5 1 827 346 842
672 2 2 5 1 5 6 212
673 2 2 5 1 646 216 725
674 2 2 5 1 253 734 870
675 2 2 5 1 742 740 755
676 2 2 5 1 139 140 210
677 2 2 5 1 65 66 211
678 2 2 5 1 212 665 708
679 2 2 5 1 342 284 777
680 2 2 5 1 286 350 777
681 2 2 5 1 65 211 676
682 2 2 5 1 223 225 686
683 2 2 5 1 842 346 849
684 2 2 5 1 12 157 858
685 2 2 5 1 499 630 722
686 2 2 5 1 712 157 843
687 2 2 5 1 373 684 790
688 2 2 5 1 751 160 918
689 2 2 5 1 631 497 722
690 2 2 5 1 373 763 767
691 2 2 5 1 347 316 904
692 2 2 5 1 257 369 756
693 2 2 5 1 647 777 791
694 2 2 5 1 376 259 756
695 2 2 5 1 662 792 793
696 2 2 5 1 503 628 719
697 2 2 5 1 630 501 719
698 2 2 5 1 215 188 216
699 2 2 5 1 346 829 849
700 2 2 5 1 267 265 763
701 2 2 5 1 409 398 535
702 2 2 5 1 787 513 788
703 2 2 5 1 553 408 555
704 2 2 5 1 651 649 652
705 2 2 5 1 393 406 408
706 2 2 5 1 713 712 843
707 2 2 5 1 225 341 686
708 2 2 5 1 525 856 865
709 2 2 5 1 687 372 769
710 2 2 5 1 326 327 328
711 2 2 5 1 697 696 698
712 2 2 5 1 137 182 696
713 2 2 5 1 392 383 397
714 2 2 5 1 406 515 688
715 2 2 5 1 945 749 947
716 2 2 5 1 356 387 393
717 2 2 5 1 543 831 1007
718 2 2 5 1 397 521 522
719 2 2 5 1 856 332 865
720 2 2 5 1 217 219 402
721 2 2 5 1 355 338 383
722 2 2 5 1 80 81 209
723 2 2 5 1 136 696 697
724 2 2 5 1 393 387 406
725 2 2 5 1 769 372 790
726 2 2 5 1 372 687 840
727 2 2 5 1 1007 831 1008
728 2 2 5 1 328 327 340
729 2 2 5 1 411 390 721
730 2 2 5 1 355 383 392
731 2 2 5 1 360 385 388
732 2 2 5 1 409 535 867
733 2 2 5 1 261 376 758
734 2 2 5 1 215 216 217
735 2 2 5 1 374 263 758
736 2 2 5 1 398 392 674
737 2 2 5 1 840 687 848
738 2 2 5 1 350 288 792
739 2 2 5 1 290 344 792
740 2 2 5 1 410 408 553
741 2 2 5 1 7 8 188
742 2 2 5 1 829 525 849
743 2 2 5 1 650 649 651
744 2 2 5 1 640 666 757
745 2 2 5 1 684 769 790
746 2 2 5 1 763 671 767
747 2 2 5 1 758 666 762
748 2 2 5 1 326 325 327
749 2 2 5 1 370 840 848
750 2 2 5 1 663 656 757
751 2 2 5 1 375 705 928
752 2 2 5 1 526 882 888
753 2 2 5 1 521 644 645
754 2 2 5 1 525 829 856
755 2 2 5 1 179 24 871
756 2 2 5 1 397 520 521
757 2 2 5 1 648 554 649
758 2 2 5 1 160 751 932
759 2 2 5 1 535 398 674
760 2 2 5 1 333 328 338
761 2 2 5 1 700 177 701
762 2 2 5 1 793 344 794
763 2 2 5 1 134 177 700
764 2 2 5 1 831 544 1008
765 2 2 5 1 882 345 888
766 2 2 5 1 857 616 862
767 2 2 5 1 1005 543 1007
768 2 2 5 1 865 332 875
769 2 2 5 1 340 359 360
770 2 2 5 1 137 138 182
771 2 2 5 1 63 64 183
772 2 2 5 1 324 325 326
773 2 2 5 1 180 702 703
774 2 2 5 1 680 679 681
775 2 2 5 1 341 353 356
776 2 2 5 1 265 374 763
777 2 2 5 1 6 7 214
778 2 2 5 1 373 267 763
779 2 2 5 1 360 384 385
780 2 2 5 1 271 269 790
781 2 2 5 1 364 857 862
782 2 2 5 1 157 712 858
783 2 2 5 1 775 370 848
784 2 2 5 1 82 83 181
785 2 2 5 1 551 411 873
786 2 2 5 1 332 826 875
787 2 2 5 1 9 10 180
788 2 2 5 1 872 711 876
789 2 2 5 1 775 616 850
790 2 2 5 1 370 775 850
791 2 2 5 1 177 135 697
792 2 2 5 1 64 65 676
793 2 2 5 1 736 735 752
794 2 2 5 1 180 10 702
795 2 2 5 1 394 392 398
796 2 2 5 1 393 408 410
797 2 2 5 1 221 223 386
798 2 2 5 1 733 736 737
799 2 2 5 1 403 398 409
800 2 2 5 1 354 338 355
801 2 2 5 1 325 357 710
802 2 2 5 1 136 137 696
803 2 2 5 1 368 872 876
804 2 2 5 1 326 328 333
805 2 2 5 1 850 616 857
806 2 2 5 1 410 553 554
807 2 2 5 1 60 61 178
808 2 2 5 1 356 379 387
809 2 2 5 1 397 383 520
810 2 2 5 1 846 345 892
811 2 2 5 1 406 407 515
812 2 2 5 1 134 135 177
813 2 2 5 1 225 335 341
814 2 2 5 1 703 704 705
815 2 2 5 1 197 133 700
816 2 2 5 1 650 651 653
817 2 2 5 1 269 373 790
818 2 2 5 1 372 271 790
819 2 2 5 1 519 771 878
820 2 2 5 1 648 649 650
821 2 2 5 1 376 756 757
822 2 2 5 1 217 218 219
823 2 2 5 1 135 136 697
824 2 2 5 1 326 333 851
825 2 2 5 1 404 390 411
826 2 2 5 1 521 520 644
827 2 2 5 1 341 356 855
828 2 2 5 1 202 935 939
829 2 2 5 1 628 707 719
830 2 2 5 1 322 324 715
831 2 2 5 1 340 327 359
832 2 2 5 1 133 134 700
833 2 2 5 1 338 328 859
834 2 2 5 1 630 720 722
835 2 2 5 1 132 133 197
836 2 2 5 1 716 197 717
837 2 2 5 1 341 335 353
838 2 2 5 1 517 761 881
839 2 2 5 1 518 766 880
840 2 2 5 1 703 702 704
841 2 2 5 1 723 351 724
842 2 2 5 1 322 321 323
843 2 2 5 1 322 323 324
844 2 2 5 1 360 359 384
845 2 2 5 1 324 323 325
846 2 2 5 1 170 131 716
847 2 2 5 1 188 8 725
848 2 2 5 1 10 11 702
849 2 2 5 1 315 923 924
850 2 2 5 1 546 409 547
851 2 2 5 1 320 321 322
852 2 2 5 1 11 12 858
853 2 2 5 1 132 197 716
854 2 2 5 1 334 322 715
855 2 2 5 1 737 736 738
856 2 2 5 1 320 319 321
857 2 2 5 1 527 897 901
858 2 2 5 1 749 748 750
859 2 2 5 1 333 389 851
860 2 2 5 1 393 410 855
861 2 2 5 1 318 319 320
862 2 2 5 1 706 713 714
863 2 2 5 1 385 399 400
864 2 2 5 1 747 746 748
865 2 2 5 1 318 317 319
866 2 2 5 1 802 170 803
867 2 2 5 1 325 323 357
868 2 2 5 1 514 411 551
869 2 2 5 1 745 744 746
870 2 2 5 1 747 748 749
871 2 2 5 1 320 322 334
872 2 2 5 1 183 692 693
873 2 2 5 1 628 505 629
874 2 2 5 1 352 230 847
875 2 2 5 1 743 742 744
876 2 2 5 1 515 529 531
877 2 2 5 1 503 505 628
878 2 2 5 1 505 504 507
879 2 2 5 1 737 738 739
880 2 2 5 1 503 504 505
881 2 2 5 1 316 317 318
882 2 2 5 1 741 740 742
883 2 2 5 1 739 738 740
884 2 2 5 1 319 317 358
885 2 2 5 1 316 315 317
886 2 2 5 1 501 502 503
887 2 2 5 1 131 132 716
888 2 2 5 1 499 501 630
889 2 2 5 1 499 500 501
890 2 2 5 1 497 498 499
891 2 2 5 1 743 744 745
892 2 2 5 1 745 746 747
893 2 2 5 1 319 358 925
894 2 2 5 1 217 216 218
895 2 2 5 1 495 497 631
896 2 2 5 1 495 496 497
897 2 2 5 1 501 500 502
898 2 2 5 1 660 726 727
899 2 2 5 1 732 730 733
900 2 2 5 1 729 727 734
901 2 2 5 1 739 740 741
902 2 2 5 1 503 502 504
903 2 2 5 1 728 727 729
904 2 2 5 1 499 498 500
905 2 2 5 1 658 663 726
906 2 2 5 1 660 658 726
907 2 2 5 1 741 742 743
908 2 2 5 1 756 663 757
909 2 2 5 1 493 494 495
910 2 2 5 1 167 810 811
911 2 2 5 1 489 516 759
912 2 2 5 1 497 496 498
913 2 2 5 1 491 492 493
914 2 2 5 1 659 658 660
915 2 2 5 1 489 491 516
916 2 2 5 1 658 656 663
917 2 2 5 1 487 759 760
918 2 2 5 1 489 490 491
919 2 2 5 1 666 638 762
920 2 2 5 1 660 727 728
921 2 2 5 1 487 488 489
922 2 2 5 1 487 489 759
923 2 2 5 1 485 487 760
924 2 2 5 1 657 656 658
925 2 2 5 1 517 485 760
926 2 2 5 1 655 640 656
927 2 2 5 1 638 635 762
928 2 2 5 1 123 124 809
929 2 2 5 1 124 194 809
930 2 2 5 1 640 638 666
931 2 2 5 1 485 486 487
932 2 2 5 1 671 633 767
933 2 2 5 1 167 122 810
934 2 2 5 1 483 517 764
935 2 2 5 1 639 638 640
936 2 2 5 1 314 315 316
937 2 2 5 1 123 809 810
938 2 2 5 1 314 313 315
939 2 2 5 1 493 492 494
940 2 2 5 1 489 488 490
941 2 2 5 1 483 485 517
942 2 2 5 1 481 764 765
943 2 2 5 1 635 671 762
944 2 2 5 1 483 484 485
945 2 2 5 1 491 490 492
946 2 2 5 1 481 482 483
947 2 2 5 1 481 483 764
948 2 2 5 1 633 626 767
949 2 2 5 1 174 807 808
950 2 2 5 1 495 494 496
951 2 2 5 1 635 633 671
952 2 2 5 1 637 635 638
953 2 2 5 1 684 624 769
954 2 2 5 1 655 656 657
955 2 2 5 1 518 479 765
956 2 2 5 1 479 481 765
957 2 2 5 1 487 486 488
958 2 2 5 1 479 480 481
959 2 2 5 1 634 633 635
960 2 2 5 1 477 518 768
961 2 2 5 1 626 684 767
962 2 2 5 1 624 622 769
963 2 2 5 1 477 478 479
964 2 2 5 1 477 479 518
965 2 2 5 1 475 768 770
966 2 2 5 1 626 624 684
967 2 2 5 1 632 626 633
968 2 2 5 1 475 476 477
969 2 2 5 1 475 477 768
970 2 2 5 1 118 119 806
971 2 2 5 1 119 190 806
972 2 2 5 1 483 482 484
973 2 2 5 1 728 729 730
974 2 2 5 1 174 117 807
975 2 2 5 1 639 640 655
976 2 2 5 1 625 624 626
977 2 2 5 1 473 475 770
978 2 2 5 1 519 473 770
979 2 2 5 1 622 687 769
980 2 2 5 1 118 806 807
981 2 2 5 1 481 480 482
982 2 2 5 1 473 474 475
983 2 2 5 1 622 620 687
984 2 2 5 1 304 306 826
985 2 2 5 1 332 304 826
986 2 2 5 1 471 519 772
987 2 2 5 1 623 622 624
988 2 2 5 1 122 123 810
989 2 2 5 1 477 476 478
990 2 2 5 1 471 473 519
991 2 2 5 1 469 772 773
992 2 2 5 1 621 620 622
993 2 2 5 1 471 472 473
994 2 2 5 1 485 484 486
995 2 2 5 1 469 470 471
996 2 2 5 1 465 523 776
997 2 2 5 1 615 616 775
998 2 2 5 1 469 471 772
999 2 2 5 1 523 773 774
1000 2 2 5 1 618 615 775
1001 2 2 5 1 479 478 480
1002 2 2 5 1 523 467 773
1003 2 2 5 1 619 618 620
1004 2 2 5 1 467 469 773
1005 2 2 5 1 475 474 476
1006 2 2 5 1 463 465 776
1007 2 2 5 1 634 635 637
1008 2 2 5 1 615 612 616
1009 2 2 5 1 617 615 618
1010 2 2 5 1 467 468 469
1011 2 2 5 1 461 647 791
1012 2 2 5 1 614 612 615
1013 2 2 5 1 465 467 523
1014 2 2 5 1 471 470 472
1015 2 2 5 1 637 638 639
1016 2 2 5 1 465 466 467
1017 2 2 5 1 166 796 797
1018 2 2 5 1 647 463 776
1019 2 2 5 1 463 464 465
1020 2 2 5 1 610 608 711
1021 2 2 5 1 611 610 612
1022 2 2 5 1 625 626 632
1023 2 2 5 1 459 461 791
1024 2 2 5 1 117 118 807
1025 2 2 5 1 469 468 470
1026 2 2 5 1 461 463 647
1027 2 2 5 1 473 472 474
1028 2 2 5 1 461 462 463
1029 2 2 5 1 632 633 634
1030 2 2 5 1 607 605 608
1031 2 2 5 1 662 459 791
1032 2 2 5 1 346 298 829
1033 2 2 5 1 457 662 793
1034 2 2 5 1 298 300 829
1035 2 2 5 1 609 608 610
1036 2 2 5 1 457 459 662
1037 2 2 5 1 621 622 623
1038 2 2 5 1 459 460 461
1039 2 2 5 1 110 196 795
1040 2 2 5 1 109 110 795
1041 2 2 5 1 604 603 605
1042 2 2 5 1 465 464 466
1043 2 2 5 1 166 108 796
1044 2 2 5 1 457 458 459
1045 2 2 5 1 109 795 796
1046 2 2 5 1 611 612 614
1047 2 2 5 1 623 624 625
1048 2 2 5 1 463 462 464
1049 2 2 5 1 455 457 793
1050 2 2 5 1 602 600 603
1051 2 2 5 1 617 618 619
1052 2 2 5 1 455 456 457
1053 2 2 5 1 599 598 600
1054 2 2 5 1 467 466 468
1055 2 2 5 1 619 620 621
1056 2 2 5 1 597 596 598
1057 2 2 5 1 604 605 607
1058 2 2 5 1 459 458 460
1059 2 2 5 1 607 608 609
1060 2 2 5 1 461 460 462
1061 2 2 5 1 593 590 594
1062 2 2 5 1 595 593 596
1063 2 2 5 1 614 615 617
1064 2 2 5 1 108 109 796
1065 2 2 5 1 457 456 458
1066 2 2 5 1 599 600 602
1067 2 2 5 1 602 603 604
1068 2 2 5 1 592 590 593
1069 2 2 5 1 597 598 599
1070 2 2 5 1 36 37 191
1071 2 2 5 1 120 121 799
1072 2 2 5 1 110 111 196
1073 2 2 5 1 127 128 798
1074 2 2 5 1 128 192 798
1075 2 2 5 1 190 120 799
1076 2 2 5 1 112 176 800
1077 2 2 5 1 192 129 802
1078 2 2 5 1 194 125 801
1079 2 2 5 1 129 130 802
1080 2 2 5 1 125 126 801
1081 2 2 5 1 198 115 804
1082 2 2 5 1 176 113 805
1083 2 2 5 1 48 49 168
1084 2 2 5 1 41 42 199
1085 2 2 5 1 115 116 804
1086 2 2 5 1 39 40 175
1087 2 2 5 1 130 131 170
1088 2 2 5 1 113 114 805
1089 2 2 5 1 130 170 802
1090 2 2 5 1 26 27 156
1091 2 2 5 1 111 112 800
1092 2 2 5 1 196 111 800
1093 2 2 5 1 43 44 173
1094 2 2 5 1 116 174 804
1095 2 2 5 1 114 198 805
1096 2 2 5 1 112 113 176
1097 2 2 5 1 121 122 167
1098 2 2 5 1 126 171 801
1099 2 2 5 1 116 117 174
1100 2 2 5 1 114 115 198
1101 2 2 5 1 121 167 799
1102 2 2 5 1 57 58 169
1103 2 2 5 1 126 127 171
1104 2 2 5 1 52 53 172
1105 2 2 5 1 171 127 798
1106 2 2 5 1 124 125 194
1107 2 2 5 1 28 29 208
1108 2 2 5 1 23 24 179
1109 2 2 5 1 14 15 205
1110 2 2 5 1 107 108 166
1111 2 2 5 1 54 55 189
1112 2 2 5 1 16 17 155
1113 2 2 5 1 17 18 814
1114 2 2 5 1 50 51 193
1115 2 2 5 1 18 19 202
1116 2 2 5 1 18 202 814
1117 2 2 5 1 12 13 157
1118 2 2 5 1 105 106 207
1119 2 2 5 1 98 99 816
1120 2 2 5 1 106 107 813
1121 2 2 5 1 128 129 192
1122 2 2 5 1 107 166 813
1123 2 2 5 1 13 14 815
1124 2 2 5 1 207 106 813
1125 2 2 5 1 85 86 158
1126 2 2 5 1 99 100 162
1127 2 2 5 1 90 91 159
1128 2 2 5 1 88 89 201
1129 2 2 5 1 97 98 200
1130 2 2 5 1 92 93 203
1131 2 2 5 1 94 95 161
1132 2 2 5 1 20 21 160
1133 2 2 5 1 101 102 204
1134 2 2 5 1 103 104 164
1135 2 2 5 1 102 103 820
1136 2 2 5 1 104 105 822
1137 2 2 5 1 30 31 163
1138 2 2 5 1 32 33 206
1139 2 2 5 1 34 35 165
1140 2 2 5 1 119 120 190
1141 2 2 5 1 157 13 815
1142 2 2 5 1 105 207 822
1143 2 2 5 1 200 98 816
1144 2 2 5 1 99 162 816
1145 2 2 5 1 100 101 818
1146 2 2 5 1 155 17 814
1147 2 2 5 1 204 102 820
1148 2 2 5 1 14 205 815
1149 2 2 5 1 15 16 812
1150 2 2 5 1 101 204 818
1151 2 2 5 1 205 15 812
1152 2 2 5 1 164 104 822
1153 2 2 5 1 103 164 820
1154 2 2 5 1 16 155 812
1155 2 2 5 1 162 100 818
1156 2 2 5 1 45 46 195
1157 2 2 5 1 595 596 597
1158 2 2 5 1 294 296 827
1159 2 2 5 1 313 311 362
1160 2 2 5 1 312 313 314
1161 2 2 5 1 308 310 345
1162 2 2 5 1 312 311 313
1163 2 2 5 1 310 311 312
1164 2 2 5 1 310 309 311
1165 2 2 5 1 309 307 363
1166 2 2 5 1 308 309 310
1167 2 2 5 1 362 311 824
1168 2 2 5 1 308 307 309
1169 2 2 5 1 311 309 824
1170 2 2 5 1 306 307 308
1171 2 2 5 1 309 363 824
1172 2 2 5 1 296 346 827
1173 2 2 5 1 306 305 307
1174 2 2 5 1 305 303 365
1175 2 2 5 1 302 304 332
1176 2 2 5 1 304 305 306
1177 2 2 5 1 592 593 595
1178 2 2 5 1 363 307 825
1179 2 2 5 1 304 303 305
1180 2 2 5 1 301 299 361
1181 2 2 5 1 307 305 825
1182 2 2 5 1 302 303 304
1183 2 2 5 1 589 590 592
1184 2 2 5 1 305 365 825
1185 2 2 5 1 302 301 303
1186 2 2 5 1 589 588 590
1187 2 2 5 1 300 301 302
1188 2 2 5 1 296 298 346
1189 2 2 5 1 365 303 828
1190 2 2 5 1 453 454 455
1191 2 2 5 1 301 361 828
1192 2 2 5 1 300 299 301
1193 2 2 5 1 303 301 828
1194 2 2 5 1 455 454 456
1195 2 2 5 1 298 299 300
1196 2 2 5 1 314 316 347
1197 2 2 5 1 298 297 299
1198 2 2 5 1 609 610 611
1199 2 2 5 1 296 297 298
1200 2 2 5 1 286 288 350
1201 2 2 5 1 295 293 366
1202 2 2 5 1 296 295 297
1203 2 2 5 1 451 453 524
1204 2 2 5 1 294 295 296
1205 2 2 5 1 290 292 344
1206 2 2 5 1 294 293 295
1207 2 2 5 1 292 293 294
1208 2 2 5 1 456 454 545
1209 2 2 5 1 587 588 589
1210 2 2 5 1 292 291 293
1211 2 2 5 1 460 458 544
1212 2 2 5 1 291 289 367
1213 2 2 5 1 290 291 292
1214 2 2 5 1 451 452 453
1215 2 2 5 1 453 452 454
1216 2 2 5 1 366 293 830
1217 2 2 5 1 290 289 291
1218 2 2 5 1 587 586 588
1219 2 2 5 1 293 291 830
1220 2 2 5 1 464 462 543
1221 2 2 5 1 288 289 290
1222 2 2 5 1 291 367 830
1223 2 2 5 1 452 450 548
1224 2 2 5 1 288 287 289
1225 2 2 5 1 287 285 368
1226 2 2 5 1 609 611 613
1227 2 2 5 1 451 450 452
1228 2 2 5 1 282 284 342
1229 2 2 5 1 286 287 288
1230 2 2 5 1 460 544 831
1231 2 2 5 1 462 460 831
1232 2 2 5 1 367 289 832
1233 2 2 5 1 585 586 587
1234 2 2 5 1 286 285 287
1235 2 2 5 1 283 281 364
1236 2 2 5 1 543 462 831
1237 2 2 5 1 289 287 832
1238 2 2 5 1 449 450 451
1239 2 2 5 1 284 285 286
1240 2 2 5 1 470 468 509
1241 2 2 5 1 287 368 832
1242 2 2 5 1 284 283 285
1243 2 2 5 1 585 584 586
1244 2 2 5 1 282 283 284
1245 2 2 5 1 282 281 283
1246 2 2 5 1 442 440 778
1247 2 2 5 1 449 448 450
1248 2 2 5 1 472 470 833
1249 2 2 5 1 280 281 282
1250 2 2 5 1 280 279 281
1251 2 2 5 1 276 278 331
1252 2 2 5 1 445 447 525
1253 2 2 5 1 542 472 833
1254 2 2 5 1 448 446 549
1255 2 2 5 1 583 584 585
1256 2 2 5 1 447 448 449
1257 2 2 5 1 474 472 542
1258 2 2 5 1 278 279 280
1259 2 2 5 1 278 277 279
1260 2 2 5 1 277 275 370
1261 2 2 5 1 276 277 278
1262 2 2 5 1 470 509 833
1263 2 2 5 1 447 446 448
1264 2 2 5 1 583 582 584
1265 2 2 5 1 276 275 277
1266 2 2 5 1 445 446 447
1267 2 2 5 1 478 476 541
1268 2 2 5 1 274 275 276
1269 2 2 5 1 270 272 343
1270 2 2 5 1 445 444 446
1271 2 2 5 1 511 442 778
1272 2 2 5 1 273 271 372
1273 2 2 5 1 274 273 275
1274 2 2 5 1 657 658 659
1275 2 2 5 1 444 442 511
1276 2 2 5 1 272 273 274
1277 2 2 5 1 474 542 834
1278 2 2 5 1 476 474 834
1279 2 2 5 1 581 582 583
1280 2 2 5 1 272 271 273
1281 2 2 5 1 541 476 834
1282 2 2 5 1 443 444 445
1283 2 2 5 1 482 480 540
1284 2 2 5 1 270 271 272
1285 2 2 5 1 270 269 271
1286 2 2 5 1 511 778 779
1287 2 2 5 1 269 267 373
1288 2 2 5 1 443 442 444
1289 2 2 5 1 581 579 582
1290 2 2 5 1 478 541 835
1291 2 2 5 1 264 266 339
1292 2 2 5 1 268 269 270
1293 2 2 5 1 480 478 835
1294 2 2 5 1 441 442 443
1295 2 2 5 1 268 267 269
1296 2 2 5 1 540 480 835
1297 2 2 5 1 439 441 526
1298 2 2 5 1 266 267 268
1299 2 2 5 1 578 579 581
1300 2 2 5 1 488 486 508
1301 2 2 5 1 441 440 442
1302 2 2 5 1 266 265 267
1303 2 2 5 1 265 263 374
1304 2 2 5 1 264 265 266
1305 2 2 5 1 439 440 441
1306 2 2 5 1 264 263 265
1307 2 2 5 1 578 577 579
1308 2 2 5 1 262 263 264
1309 2 2 5 1 439 438 440
1310 2 2 5 1 262 261 263
1311 2 2 5 1 261 259 376
1312 2 2 5 1 492 490 539
1313 2 2 5 1 258 260 330
1314 2 2 5 1 260 261 262
1315 2 2 5 1 256 258 836
1316 2 2 5 1 507 536 538
1317 2 2 5 1 576 577 578
1318 2 2 5 1 260 259 261
1319 2 2 5 1 488 508 838
1320 2 2 5 1 257 255 369
1321 2 2 5 1 437 438 439
1322 2 2 5 1 438 436 550
1323 2 2 5 1 258 330 836
1324 2 2 5 1 258 259 260
1325 2 2 5 1 490 488 838
1326 2 2 5 1 258 257 259
1327 2 2 5 1 539 490 838
1328 2 2 5 1 576 575 577
1329 2 2 5 1 256 257 258
1330 2 2 5 1 507 504 536
1331 2 2 5 1 252 254 351
1332 2 2 5 1 520 383 859
1333 2 2 5 1 498 496 506
1334 2 2 5 1 437 436 438
1335 2 2 5 1 256 255 257
1336 2 2 5 1 731 730 732
1337 2 2 5 1 254 255 256
1338 2 2 5 1 370 275 840
1339 2 2 5 1 273 372 840
1340 2 2 5 1 728 730 731
1341 2 2 5 1 254 253 255
1342 2 2 5 1 433 435 527
1343 2 2 5 1 251 249 371
1344 2 2 5 1 737 739 751
1345 2 2 5 1 435 436 437
1346 2 2 5 1 677 679 680
1347 2 2 5 1 574 575 576
1348 2 2 5 1 252 253 254
1349 2 2 5 1 244 246 348
1350 2 2 5 1 252 251 253
1351 2 2 5 1 502 500 537
1352 2 2 5 1 355 392 394
1353 2 2 5 1 572 569 573
1354 2 2 5 1 250 251 252
1355 2 2 5 1 435 434 436
1356 2 2 5 1 248 250 329
1357 2 2 5 1 451 524 842
1358 2 2 5 1 574 572 575
1359 2 2 5 1 433 434 435
1360 2 2 5 1 250 249 251
1361 2 2 5 1 434 432 552
1362 2 2 5 1 275 273 840
1363 2 2 5 1 498 506 839
1364 2 2 5 1 248 249 250
1365 2 2 5 1 500 498 839
1366 2 2 5 1 433 432 434
1367 2 2 5 1 571 572 574
1368 2 2 5 1 537 500 839
1369 2 2 5 1 248 247 249
1370 2 2 5 1 333 338 354
1371 2 2 5 1 236 238 349
1372 2 2 5 1 246 247 248
1373 2 2 5 1 502 537 841
1374 2 2 5 1 571 569 572
1375 2 2 5 1 449 451 842
1376 2 2 5 1 245 243 377
1377 2 2 5 1 246 245 247
1378 2 2 5 1 336 234 845
1379 2 2 5 1 244 245 246
1380 2 2 5 1 431 432 433
1381 2 2 5 1 504 502 841
1382 2 2 5 1 568 569 571
1383 2 2 5 1 240 242 337
1384 2 2 5 1 536 504 841
1385 2 2 5 1 219 220 221
1386 2 2 5 1 244 243 245
1387 2 2 5 1 659 660 844
1388 2 2 5 1 568 567 569
1389 2 2 5 1 368 876 879
1390 2 2 5 1 242 243 244
1391 2 2 5 1 431 430 432
1392 2 2 5 1 234 236 845
1393 2 2 5 1 728 731 844
1394 2 2 5 1 705 704 706
1395 2 2 5 1 242 241 243
1396 2 2 5 1 427 429 528
1397 2 2 5 1 241 239 378
1398 2 2 5 1 564 562 565
1399 2 2 5 1 240 241 242
1400 2 2 5 1 430 428 556
1401 2 2 5 1 429 430 431
1402 2 2 5 1 157 815 843
1403 2 2 5 1 240 239 241
1404 2 2 5 1 566 567 568
1405 2 2 5 1 660 728 844
1406 2 2 5 1 435 437 846
1407 2 2 5 1 230 232 847
1408 2 2 5 1 424 423 510
1409 2 2 5 1 238 239 240
1410 2 2 5 1 429 428 430
1411 2 2 5 1 687 620 848
1412 2 2 5 1 618 775 848
1413 2 2 5 1 424 510 672
1414 2 2 5 1 236 349 845
1415 2 2 5 1 238 237 239
1416 2 2 5 1 427 428 429
1417 2 2 5 1 8 9 725
1418 2 2 5 1 237 235 381
1419 2 2 5 1 232 234 336
1420 2 2 5 1 236 237 238
1421 2 2 5 1 566 564 567
1422 2 2 5 1 356 353 379
1423 2 2 5 1 715 324 851
1424 2 2 5 1 832 368 879
1425 2 2 5 1 422 421 423
1426 2 2 5 1 228 230 352
1427 2 2 5 1 427 426 428
1428 2 2 5 1 525 447 849
1429 2 2 5 1 422 423 424
1430 2 2 5 1 711 364 862
1431 2 2 5 1 426 414 513
1432 2 2 5 1 406 387 407
1433 2 2 5 1 236 235 237
1434 2 2 5 1 404 411 514
1435 2 2 5 1 449 842 849
1436 2 2 5 1 527 435 846
1437 2 2 5 1 931 543 1005
1438 2 2 5 1 420 422 534
1439 2 2 5 1 234 235 236
1440 2 2 5 1 425 426 427
1441 2 2 5 1 826 526 875
1442 2 2 5 1 229 227 412
1443 2 2 5 1 277 370 850
1444 2 2 5 1 620 618 848
1445 2 2 5 1 390 354 721
1446 2 2 5 1 563 564 566
1447 2 2 5 1 234 233 235
1448 2 2 5 1 233 231 382
1449 2 2 5 1 832 879 886
1450 2 2 5 1 420 421 422
1451 2 2 5 1 410 642 855
1452 2 2 5 1 425 414 426
1453 2 2 5 1 394 398 403
1454 2 2 5 1 219 218 220
1455 2 2 5 1 364 711 872
1456 2 2 5 1 420 419 421
1457 2 2 5 1 412 227 861
1458 2 2 5 1 232 233 234
1459 2 2 5 1 563 562 564
1460 2 2 5 1 416 418 533
1461 2 2 5 1 413 414 425
1462 2 2 5 1 232 336 847
1463 2 2 5 1 829 300 856
1464 2 2 5 1 302 332 856
1465 2 2 5 1 364 281 857
1466 2 2 5 1 324 326 851
1467 2 2 5 1 447 449 849
1468 2 2 5 1 690 520 859
1469 2 2 5 1 232 231 233
1470 2 2 5 1 225 226 335
1471 2 2 5 1 561 562 563
1472 2 2 5 1 418 417 419
1473 2 2 5 1 642 554 648
1474 2 2 5 1 526 826 882
1475 2 2 5 1 869 347 904
1476 2 2 5 1 367 832 886
1477 2 2 5 1 772 519 878
1478 2 2 5 1 223 224 225
1479 2 2 5 1 385 384 399
1480 2 2 5 1 561 560 562
1481 2 2 5 1 418 419 420
1482 2 2 5 1 230 231 232
1483 2 2 5 1 493 724 927
1484 2 2 5 1 396 380 415
1485 2 2 5 1 897 347 901
1486 2 2 5 1 416 415 417
1487 2 2 5 1 221 222 223
1488 2 2 5 1 225 224 226
1489 2 2 5 1 413 405 414
1490 2 2 5 1 616 612 862
1491 2 2 5 1 610 711 862
1492 2 2 5 1 279 277 850
1493 2 2 5 1 356 393 855
1494 2 2 5 1 706 712 713
1495 2 2 5 1 327 325 710
1496 2 2 5 1 416 417 418
1497 2 2 5 1 394 403 873
1498 2 2 5 1 395 396 532
1499 2 2 5 1 367 886 889
1500 2 2 5 1 230 229 231
1501 2 2 5 1 445 525 865
1502 2 2 5 1 391 405 413
1503 2 2 5 1 411 721 873
1504 2 2 5 1 310 312 892
1505 2 2 5 1 596 593 866
1506 2 2 5 1 514 551 570
1507 2 2 5 1 383 338 859
1508 2 2 5 1 353 335 860
1509 2 2 5 1 255 253 870
1510 2 2 5 1 396 415 416
1511 2 2 5 1 226 224 227
1512 2 2 5 1 391 390 404
1513 2 2 5 1 228 229 230
1514 2 2 5 1 368 285 872
1515 2 2 5 1 283 364 872
1516 2 2 5 1 279 850 857
1517 2 2 5 1 575 903 921
1518 2 2 5 1 221 220 222
1519 2 2 5 1 596 866 891
1520 2 2 5 1 395 380 396
1521 2 2 5 1 559 560 561
1522 2 2 5 1 515 407 529
1523 2 2 5 1 228 352 852
1524 2 2 5 1 379 380 395
1525 2 2 5 1 389 354 390
1526 2 2 5 1 830 367 889
1527 2 2 5 1 706 704 712
1528 2 2 5 1 354 355 721
1529 2 2 5 1 223 222 224
1530 2 2 5 1 429 431 869
1531 2 2 5 1 391 404 405
1532 2 2 5 1 380 353 860
1533 2 2 5 1 23 179 874
1534 2 2 5 1 228 227 229
1535 2 2 5 1 557 401 558
1536 2 2 5 1 526 441 875
1537 2 2 5 1 711 608 876
1538 2 2 5 1 226 227 228
1539 2 2 5 1 300 302 856
1540 2 2 5 1 281 279 857
1541 2 2 5 1 335 226 852
1542 2 2 5 1 768 518 880
1543 2 2 5 1 830 889 891
1544 2 2 5 1 567 912 926
1545 2 2 5 1 702 11 858
1546 2 2 5 1 559 558 560
1547 2 2 5 1 359 327 710
1548 2 2 5 1 764 517 881
1549 2 2 5 1 389 390 391
1550 2 2 5 1 814 202 939
1551 2 2 5 1 826 306 882
1552 2 2 5 1 308 345 882
1553 2 2 5 1 366 830 891
1554 2 2 5 1 721 394 873
1555 2 2 5 1 280 282 883
1556 2 2 5 1 512 401 557
1557 2 2 5 1 222 220 375
1558 2 2 5 1 644 520 690
1559 2 2 5 1 226 228 852
1560 2 2 5 1 410 554 642
1561 2 2 5 1 846 437 888
1562 2 2 5 1 403 409 546
1563 2 2 5 1 557 558 559
1564 2 2 5 1 547 409 867
1565 2 2 5 1 612 610 862
1566 2 2 5 1 379 353 380
1567 2 2 5 1 923 573 924
1568 2 2 5 1 73 74 854
1569 2 2 5 1 333 354 389
1570 2 2 5 1 149 150 184
1571 2 2 5 1 415 380 860
1572 2 2 5 1 494 492 887
1573 2 2 5 1 72 73 153
1574 2 2 5 1 146 147 154
1575 2 2 5 1 439 526 888
1576 2 2 5 1 218 216 646
1577 2 2 5 1 345 846 888
1578 2 2 5 1 407 387 877
1579 2 2 5 1 561 563 900
1580 2 2 5 1 794 344 890
1581 2 2 5 1 443 445 865
1582 2 2 5 1 71 72 853
1583 2 2 5 1 869 431 901
1584 2 2 5 1 294 827 890
1585 2 2 5 1 344 292 890
1586 2 2 5 1 593 594 866
1587 2 2 5 1 399 401 512
1588 2 2 5 1 704 702 858
1589 2 2 5 1 922 321 925
1590 2 2 5 1 399 384 401
1591 2 2 5 1 417 415 884
1592 2 2 5 1 369 255 870
1593 2 2 5 1 866 366 891
1594 2 2 5 1 528 429 869
1595 2 2 5 1 335 852 860
1596 2 2 5 1 285 283 872
1597 2 2 5 1 531 529 580
1598 2 2 5 1 75 76 185
1599 2 2 5 1 417 884 895
1600 2 2 5 1 443 865 875
1601 2 2 5 1 715 851 885
1602 2 2 5 1 295 366 893
1603 2 2 5 1 355 394 721
1604 2 2 5 1 568 571 916
1605 2 2 5 1 851 389 885
1606 2 2 5 1 227 224 861
1607 2 2 5 1 712 704 858
1608 2 2 5 1 160 21 896
1609 2 2 5 1 919 577 921
1610 2 2 5 1 824 919 921
1611 2 2 5 1 389 391 885
1612 2 2 5 1 22 23 874
1613 2 2 5 1 224 222 861
1614 2 2 5 1 361 299 899
1615 2 2 5 1 441 443 875
1616 2 2 5 1 608 605 876
1617 2 2 5 1 893 594 899
1618 2 2 5 1 316 318 904
1619 2 2 5 1 69 70 187
1620 2 2 5 1 143 144 186
1621 2 2 5 1 589 592 929
1622 2 2 5 1 590 588 902
1623 2 2 5 1 433 527 901
1624 2 2 5 1 876 605 879
1625 2 2 5 1 384 359 863
1626 2 2 5 1 558 401 863
1627 2 2 5 1 902 588 907
1628 2 2 5 1 575 572 903
1629 2 2 5 1 334 715 908
1630 2 2 5 1 387 379 877
1631 2 2 5 1 220 218 868
1632 2 2 5 1 347 869 901
1633 2 2 5 1 222 375 861
1634 2 2 5 1 528 906 909
1635 2 2 5 1 904 318 906
1636 2 2 5 1 318 320 906
1637 2 2 5 1 605 603 879
1638 2 2 5 1 401 384 863
1639 2 2 5 1 142 143 864
1640 2 2 5 1 530 407 877
1641 2 2 5 1 361 899 902
1642 2 2 5 1 427 528 909
1643 2 2 5 1 359 710 863
1644 2 2 5 1 334 908 909
1645 2 2 5 1 306 308 882
1646 2 2 5 1 484 482 911
1647 2 2 5 1 529 407 530
1648 2 2 5 1 879 603 886
1649 2 2 5 1 588 586 907
1650 2 2 5 1 282 342 883
1651 2 2 5 1 366 866 893
1652 2 2 5 1 314 347 897
1653 2 2 5 1 375 220 868
1654 2 2 5 1 603 600 886
1655 2 2 5 1 866 594 893
1656 2 2 5 1 907 586 910
1657 2 2 5 1 567 564 912
1658 2 2 5 1 558 863 898
1659 2 2 5 1 77 78 213
1660 2 2 5 1 710 357 898
1661 2 2 5 1 153 73 854
1662 2 2 5 1 886 600 889
1663 2 2 5 1 379 395 877
1664 2 2 5 1 863 710 898
1665 2 2 5 1 22 874 896
1666 2 2 5 1 586 584 910
1667 2 2 5 1 218 646 868
1668 2 2 5 1 492 539 887
1669 2 2 5 1 437 439 888
1670 2 2 5 1 72 153 853
1671 2 2 5 1 419 417 895
1672 2 2 5 1 391 413 885
1673 2 2 5 1 600 598 889
1674 2 2 5 1 884 352 895
1675 2 2 5 1 910 584 915
1676 2 2 5 1 738 736 894
1677 2 2 5 1 292 294 890
1678 2 2 5 1 903 362 921
1679 2 2 5 1 565 562 920
1680 2 2 5 1 889 598 891
1681 2 2 5 1 737 751 918
1682 2 2 5 1 323 321 922
1683 2 2 5 1 312 314 897
1684 2 2 5 1 584 582 915
1685 2 2 5 1 814 939 942
1686 2 2 5 1 313 362 923
1687 2 2 5 1 852 352 884
1688 2 2 5 1 388 385 933
1689 2 2 5 1 317 315 924
1690 2 2 5 1 715 885 908
1691 2 2 5 1 598 596 891
1692 2 2 5 1 382 930 938
1693 2 2 5 1 915 582 917
1694 2 2 5 1 419 895 905
1695 2 2 5 1 860 852 884
1696 2 2 5 1 573 569 926
1697 2 2 5 1 415 860 884
1698 2 2 5 1 736 752 894
1699 2 2 5 1 582 579 917
1700 2 2 5 1 527 846 892
1701 2 2 5 1 912 358 926
1702 2 2 5 1 297 295 893
1703 2 2 5 1 421 419 905
1704 2 2 5 1 352 847 895
1705 2 2 5 1 917 579 919
1706 2 2 5 1 21 22 896
1707 2 2 5 1 491 493 927
1708 2 2 5 1 423 421 913
1709 2 2 5 1 297 893 899
1710 2 2 5 1 579 577 919
1711 2 2 5 1 510 423 914
1712 2 2 5 1 423 913 914
1713 2 2 5 1 885 413 908
1714 2 2 5 1 421 905 913
1715 2 2 5 1 299 297 899
1716 2 2 5 1 560 558 898
1717 2 2 5 1 732 733 918
1718 2 2 5 1 362 824 921
1719 2 2 5 1 466 464 931
1720 2 2 5 1 358 912 925
1721 2 2 5 1 895 847 905
1722 2 2 5 1 594 590 902
1723 2 2 5 1 431 433 901
1724 2 2 5 1 899 594 902
1725 2 2 5 1 361 902 907
1726 2 2 5 1 202 19 932
1727 2 2 5 1 20 160 932
1728 2 2 5 1 143 186 864
1729 2 2 5 1 572 573 903
1730 2 2 5 1 229 412 930
1731 2 2 5 1 906 334 909
1732 2 2 5 1 560 898 920
1733 2 2 5 1 528 904 906
1734 2 2 5 1 828 361 907
1735 2 2 5 1 320 334 906
1736 2 2 5 1 382 231 930
1737 2 2 5 1 828 907 910
1738 2 2 5 1 425 427 909
1739 2 2 5 1 413 425 908
1740 2 2 5 1 908 425 909
1741 2 2 5 1 155 814 942
1742 2 2 5 1 892 312 897
1743 2 2 5 1 565 922 925
1744 2 2 5 1 847 336 905
1745 2 2 5 1 365 828 910
1746 2 2 5 1 924 573 926
1747 2 2 5 1 682 962 974
1748 2 2 5 1 482 540 911
1749 2 2 5 1 321 319 925
1750 2 2 5 1 565 920 922
1751 2 2 5 1 336 845 913
1752 2 2 5 1 905 336 913
1753 2 2 5 1 365 910 915
1754 2 2 5 1 564 565 912
1755 2 2 5 1 898 357 920
1756 2 2 5 1 913 845 914
1757 2 2 5 1 825 365 915
1758 2 2 5 1 528 869 904
1759 2 2 5 1 845 349 914
1760 2 2 5 1 825 915 917
1761 2 2 5 1 362 903 923
1762 2 2 5 1 733 737 918
1763 2 2 5 1 527 892 897
1764 2 2 5 1 363 825 917
1765 2 2 5 1 837 516 927
1766 2 2 5 1 363 917 919
1767 2 2 5 1 37 38 934
1768 2 2 5 1 824 363 919
1769 2 2 5 1 751 739 935
1770 2 2 5 1 577 575 921
1771 2 2 5 1 562 560 920
1772 2 2 5 1 357 323 922
1773 2 2 5 1 315 313 923
1774 2 2 5 1 96 97 936
1775 2 2 5 1 861 375 928
1776 2 2 5 1 358 317 924
1777 2 2 5 1 155 942 944
1778 2 2 5 1 569 567 926
1779 2 2 5 1 903 573 923
1780 2 2 5 1 930 714 938
1781 2 2 5 1 516 491 927
1782 2 2 5 1 412 861 928
1783 2 2 5 1 920 357 922
1784 2 2 5 1 714 713 938
1785 2 2 5 1 358 924 926
1786 2 2 5 1 812 155 944
1787 2 2 5 1 464 543 931
1788 2 2 5 1 231 229 930
1789 2 2 5 1 19 20 932
1790 2 2 5 1 947 749 949
1791 2 2 5 1 912 565 925
1792 2 2 5 1 185 76 937
1793 2 2 5 1 867 185 937
1794 2 2 5 1 683 682 974
1795 2 2 5 1 938 713 949
1796 2 2 5 1 77 213 937
1797 2 2 5 1 385 400 933
1798 2 2 5 1 191 37 934
1799 2 2 5 1 79 80 946
1800 2 2 5 1 694 512 953
1801 2 2 5 1 739 741 935
1802 2 2 5 1 747 749 945
1803 2 2 5 1 749 750 949
1804 2 2 5 1 97 200 936
1805 2 2 5 1 815 205 947
1806 2 2 5 1 698 532 965
1807 2 2 5 1 935 741 939
1808 2 2 5 1 76 77 937
1809 2 2 5 1 349 695 943
1810 2 2 5 1 532 698 963
1811 2 2 5 1 741 743 939
1812 2 2 5 1 141 142 948
1813 2 2 5 1 580 210 969
1814 2 2 5 1 939 743 942
1815 2 2 5 1 914 349 943
1816 2 2 5 1 750 938 949
1817 2 2 5 1 941 510 943
1818 2 2 5 1 514 570 940
1819 2 2 5 1 672 510 941
1820 2 2 5 1 743 745 942
1821 2 2 5 1 521 645 952
1822 2 2 5 1 854 74 950
1823 2 2 5 1 144 145 951
1824 2 2 5 1 75 185 950
1825 2 2 5 1 942 745 944
1826 2 2 5 1 510 914 943
1827 2 2 5 1 701 533 967
1828 2 2 5 1 745 747 944
1829 2 2 5 1 512 557 953
1830 2 2 5 1 864 186 956
1831 2 2 5 1 533 701 966
1832 2 2 5 1 388 933 1001
1833 2 2 5 1 652 148 957
1834 2 2 5 1 682 187 962
1835 2 2 5 1 145 146 954
1836 2 2 5 1 205 812 945
1837 2 2 5 1 948 864 969
1838 2 2 5 1 933 683 1001
1839 2 2 5 1 80 209 946
1840 2 2 5 1 843 947 949
1841 2 2 5 1 652 649 955
1842 2 2 5 1 717 534 973
1843 2 2 5 1 1 5 970
1844 2 2 5 1 66 2 971
1845 2 2 5 1 534 717 972
1846 2 2 5 1 152 1 970
1847 2 2 5 1 2 67 971
1848 2 2 5 1 843 815 947
1849 2 2 5 1 187 679 958
1850 2 2 5 1 554 553 955
1851 2 2 5 1 688 515 956
1852 2 2 5 1 713 843 949
1853 2 2 5 1 142 864 948
1854 2 2 5 1 140 4 968
1855 2 2 5 1 867 535 980
1856 2 2 5 1 4 141 968
1857 2 2 5 1 185 867 980
1858 2 2 5 1 678 211 971
1859 2 2 5 1 673 803 975
1860 2 2 5 1 803 673 978
1861 2 2 5 1 212 708 970
1862 2 2 5 1 139 210 960
1863 2 2 5 1 149 184 957
1864 2 2 5 1 812 944 945
1865 2 2 5 1 654 184 959
1866 2 2 5 1 944 747 945
1867 2 2 5 1 182 138 960
1868 2 2 5 1 424 673 975
1869 2 2 5 1 466 931 1006
1870 2 2 5 1 789 405 964
1871 2 2 5 1 74 75 950
1872 2 2 5 1 788 158 993
1873 2 2 5 1 701 177 965
1874 2 2 5 1 697 698 965
1875 2 2 5 1 645 644 1001
1876 2 2 5 1 405 789 981
1877 2 2 5 1 484 911 996
1878 2 2 5 1 700 701 967
1879 2 2 5 1 787 788 993
1880 2 2 5 1 717 197 967
1881 2 2 5 1 395 532 963
1882 2 2 5 1 931 797 1006
1883 2 2 5 1 803 170 973
1884 2 2 5 1 405 404 964
1885 2 2 5 1 716 717 973
1886 2 2 5 1 494 887 989
1887 2 2 5 1 416 533 966
1888 2 2 5 1 420 534 972
1889 2 2 5 1 532 396 966
1890 2 2 5 1 71 853 962
1891 2 2 5 1 509 468 1006
1892 2 2 5 1 533 418 972
1893 2 2 5 1 802 803 978
1894 2 2 5 1 166 797 1005
1895 2 2 5 1 797 796 1004
1896 2 2 5 1 534 422 975
1897 2 2 5 1 911 808 996
1898 2 2 5 1 187 70 962
1899 2 2 5 1 580 529 961
1900 2 2 5 1 174 808 995
1901 2 2 5 1 508 486 996
1902 2 2 5 1 158 86 993
1903 2 2 5 1 887 811 989
1904 2 2 5 1 808 807 994
1905 2 2 5 1 167 811 990
1906 2 2 5 1 414 405 981
1907 2 2 5 1 811 810 988
1908 2 2 5 1 506 496 989
1909 2 2 5 1 186 144 951
1910 2 2 5 1 811 887 990
1911 2 2 5 1 530 877 963
1912 2 2 5 1 3 79 976
1913 2 2 5 1 808 911 995
1914 2 2 5 1 797 931 1005
1915 2 2 5 1 678 68 958
1916 2 2 5 1 78 3 976
1917 2 2 5 1 522 521 952
1918 2 2 5 1 151 708 959
1919 2 2 5 1 146 154 954
1920 2 2 5 1 514 940 964
1921 2 2 5 1 696 182 977
1922 2 2 5 1 184 150 959
1923 2 2 5 1 69 187 958
1924 2 2 5 1 651 652 957
1925 2 2 5 1 649 554 955
1926 2 2 5 1 68 69 958
1927 2 2 5 1 547 867 979
1928 2 2 5 1 150 151 959
1929 2 2 5 1 515 531 956
1930 2 2 5 1 867 937 979
1931 2 2 5 1 148 149 957
1932 2 2 5 1 531 580 969
1933 2 2 5 1 789 788 981
1934 2 2 5 1 679 678 958
1935 2 2 5 1 788 513 981
1936 2 2 5 1 708 654 959
1937 2 2 5 1 79 946 976
1938 2 2 5 1 138 139 960
1939 2 2 5 1 529 530 961
1940 2 2 5 1 70 71 962
1941 2 2 5 1 177 697 965
1942 2 2 5 1 698 696 977
1943 2 2 5 1 182 961 977
1944 2 2 5 1 404 514 964
1945 2 2 5 1 5 212 970
1946 2 2 5 1 950 185 980
1947 2 2 5 1 211 66 971
1948 2 2 5 1 877 395 963
1949 2 2 5 1 210 140 968
1950 2 2 5 1 853 153 987
1951 2 2 5 1 396 416 966
1952 2 2 5 1 197 700 967
1953 2 2 5 1 644 388 1001
1954 2 2 5 1 535 675 980
1955 2 2 5 1 418 420 972
1956 2 2 5 1 170 716 973
1957 2 2 5 1 422 424 975
1958 2 2 5 1 141 948 968
1959 2 2 5 1 952 645 987
1960 2 2 5 1 946 213 976
1961 2 2 5 1 192 802 978
1962 2 2 5 1 513 414 981
1963 2 2 5 1 213 78 976
1964 2 2 5 1 192 978 982
1965 2 2 5 1 937 213 979
1966 2 2 5 1 798 192 982
1967 2 2 5 1 798 982 983
1968 2 2 5 1 171 798 983
1969 2 2 5 1 171 983 984
1970 2 2 5 1 801 171 984
1971 2 2 5 1 801 984 985
1972 2 2 5 1 194 801 985
1973 2 2 5 1 194 985 986
1974 2 2 5 1 809 194 986
1975 2 2 5 1 809 986 988
1976 2 2 5 1 810 809 988
1977 2 2 5 1 496 494 989
1978 2 2 5 1 799 167 990
1979 2 2 5 1 799 990 991
1980 2 2 5 1 190 799 991
1981 2 2 5 1 190 991 992
1982 2 2 5 1 806 190 992
1983 2 2 5 1 806 992 994
1984 2 2 5 1 86 87 993
1985 2 2 5 1 807 806 994
1986 2 2 5 1 804 174 995
1987 2 2 5 1 486 484 996
1988 2 2 5 1 804 995 997
1989 2 2 5 1 198 804 997
1990 2 2 5 1 198 997 998
1991 2 2 5 1 805 198 998
1992 2 2 5 1 805 998 999
1993 2 2 5 1 176 805 999
1994 2 2 5 1 176 999 1000
1995 2 2 5 1 800 176 1000
1996 2 2 5 1 800 1000 1002
1997 2 2 5 1 196 800 1002
1998 2 2 5 1 196 1002 1003
1999 2 2 5 1 795 196 1003
2000 2 2 5 1 795 1003 1004
2001 2 2 5 1 796 795 1004
2002 2 2 5 1 813 166 1005
2003 2 2 5 1 468 466 1006
2004 2 2 5 1 813 1005 1007
2005 2 2 5 1 207 813 1007
2006 2 2 5 1 207 1007 1008
2007 2 2 5 1 822 207 1008
2008 2 2 5 1 675 950 980
2009 2 2 5 1 210 948 969
2010 2 2 5 1 948 210 968
2011 2 2 5 1 153 952 987
2012 2 2 5 1 961 530 977
2013 2 2 5 1 645 974 987
2014 2 2 5 1 974 853 987
$EndElements
