$MeshFormat
2.2 0 8
$EndMeshFormat
$PhysicalNames
2
2 1 "s"
3 1 "v"
$EndPhysicalNames
$Nodes
263
1 0 0 0
2 1 0 0
3 1 1 0
4 0 1 0
5 0 0 1
6 1 0 1
7 1 1 1
8 0 1 1
9 0.1666666666663209 0 0
10 0.333333333332501 0 0
11 0.499999999998692 0 0
12 0.6666666666657874 0 0
13 0.8333333333328937 0 0
14 1 0.1666666666663209 0
15 1 0.333333333332501 0
16 1 0.499999999998692 0
17 1 0.6666666666657874 0
18 1 0.8333333333328937 0
19 0.833333333333102 1 0
20 0.6666666666675918 1 0
21 0.5000000000020595 1 0
22 0.3333333333347207 1 0
23 0.1666666666673604 1 0
24 0 0.833333333333102 0
25 0 0.6666666666675918 0
26 0 0.5000000000020595 0
27 0 0.3333333333347207 0
28 0 0.1666666666673604 0
29 0.1666666666663209 0 1
30 0.333333333332501 0 1
31 0.499999999998692 0 1
32 0.6666666666657874 0 1
33 0.8333333333328937 0 1
34 1 0.1666666666663209 1
35 1 0.333333333332501 1
36 1 0.499999999998692 1
37 1 0.6666666666657874 1
38 1 0.8333333333328937 1
39 0.833333333333102 1 1
40 0.6666666666675918 1 1
41 0.5000000000020595 1 1
42 0.3333333333347207 1 1
43 0.1666666666673604 1 1
44 0 0.833333333333102 1
45 0 0.6666666666675918 1
46 0 0.5000000000020595 1
47 0 0.3333333333347207 1
48 0 0.1666666666673604 1
49 0 0 0.1666666666663209
50 0 0 0.333333333332501
51 0 0 0.499999999998692
52 0 0 0.6666666666657874
53 0 0 0.8333333333328937
54 1 0 0.1666666666663209
55 1 0 0.333333333332501
56 1 0 0.499999999998692
57 1 0 0.6666666666657874
58 1 0 0.8333333333328937
59 1 1 0.1666666666663209
60 1 1 0.333333333332501
61 1 1 0.499999999998692
62 1 1 0.6666666666657874
63 1 1 0.8333333333328937
64 0 1 0.1666666666663209
65 0 1 0.333333333332501
66 0 1 0.499999999998692
67 0 1 0.6666666666657874
68 0 1 0.8333333333328937
69 0.1666666666664941 0.1666666666671872 0
70 0.1666666666666674 0.3333333333343508 0
71 0.1666666666668407 0.5000000000014984 0
72 0.1666666666670139 0.666666666667291 0
73 0.1666666666671872 0.8333333333330672 0
74 0.333333333332871 0.1666666666670139 0
75 0.3333333333332409 0.3333333333339809 0
76 0.3333333333336109 0.500000000000937 0
77 0.3333333333339808 0.6666666666669903 0
78 0.3333333333343508 0.8333333333330326 0
79 0.4999999999992533 0.1666666666668407 0
80 0.4999999999998146 0.3333333333336109 0
81 0.5000000000003757 0.5000000000003757 0
82 0.500000000000937 0.6666666666666896 0
83 0.5000000000014984 0.8333333333329979 0
84 0.6666666666660882 0.1666666666666674 0
85 0.666666666666389 0.3333333333332409 0
86 0.6666666666666896 0.4999999999998144 0
87 0.6666666666669903 0.666666666666389 0
88 0.6666666666672909 0.8333333333329629 0
89 0.8333333333329285 0.1666666666664942 0
90 0.8333333333329631 0.3333333333328709 0
91 0.8333333333329979 0.4999999999992533 0
92 0.8333333333330326 0.6666666666660883 0
93 0.8333333333330674 0.8333333333329284 0
94 0.1666666666664941 0.1666666666671872 1
95 0.1666666666666674 0.3333333333343508 1
96 0.1666666666668407 0.5000000000014984 1
97 0.1666666666670139 0.666666666667291 1
98 0.1666666666671872 0.8333333333330672 1
99 0.333333333332871 0.1666666666670139 1
100 0.3333333333332409 0.3333333333339809 1
101 0.3333333333336109 0.500000000000937 1
102 0.3333333333339808 0.6666666666669903 1
103 0.3333333333343508 0.8333333333330326 1
104 0.4999999999992533 0.1666666666668407 1
105 0.4999999999998146 0.3333333333336109 1
106 0.5000000000003757 0.5000000000003757 1
107 0.500000000000937 0.6666666666666896 1
108 0.5000000000014984 0.8333333333329979 1
109 0.6666666666660882 0.1666666666666674 1
110 0.666666666666389 0.3333333333332409 1
111 0.6666666666666896 0.4999999999998144 1
112 0.6666666666669903 0.666666666666389 1
113 0.6666666666672909 0.8333333333329629 1
114 0.8333333333329285 0.1666666666664942 1
115 0.8333333333329631 0.3333333333328709 1
116 0.8333333333329979 0.4999999999992533 1
117 0.8333333333330326 0.6666666666660883 1
118 0.8333333333330674 0.8333333333329284 1
119 0.1666666666663209 0 0.1666666666663209
120 0.1666666666663209 0 0.333333333332501
121 0.1666666666663209 0 0.499999999998692
122 0.1666666666663209 0 0.6666666666657874
123 0.1666666666663209 0 0.8333333333328937
124 0.333333333332501 0 0.1666666666663209
125 0.333333333332501 0 0.333333333332501
126 0.333333333332501 0 0.499999999998692
127 0.333333333332501 0 0.6666666666657874
128 0.333333333332501 0 0.8333333333328937
129 0.499999999998692 0 0.1666666666663209
130 0.499999999998692 0 0.333333333332501
131 0.499999999998692 0 0.499999999998692
132 0.499999999998692 0 0.6666666666657874
133 0.499999999998692 0 0.8333333333328937
134 0.6666666666657874 0 0.1666666666663209
135 0.6666666666657874 0 0.333333333332501
136 0.6666666666657874 0 0.499999999998692
137 0.6666666666657874 0 0.6666666666657874
138 0.6666666666657874 0 0.8333333333328938
139 0.8333333333328935 0 0.1666666666663209
140 0.8333333333328937 0 0.333333333332501
141 0.8333333333328937 0 0.499999999998692
142 0.8333333333328938 0 0.6666666666657874
143 0.8333333333328937 0 0.8333333333328937
144 0.833333333333102 1 0.1666666666663209
145 0.8333333333331022 1 0.333333333332501
146 0.833333333333102 1 0.499999999998692
147 0.8333333333331018 1 0.6666666666657874
148 0.833333333333102 1 0.8333333333328937
149 0.6666666666675918 1 0.1666666666663209
150 0.6666666666675918 1 0.333333333332501
151 0.6666666666675918 1 0.499999999998692
152 0.6666666666675918 1 0.6666666666657874
153 0.6666666666675918 1 0.8333333333328937
154 0.5000000000020595 1 0.1666666666663209
155 0.5000000000020595 1 0.333333333332501
156 0.5000000000020595 1 0.499999999998692
157 0.5000000000020595 1 0.6666666666657874
158 0.5000000000020595 1 0.8333333333328937
159 0.3333333333347207 1 0.1666666666663209
160 0.3333333333347207 1 0.333333333332501
161 0.3333333333347207 1 0.499999999998692
162 0.3333333333347207 1 0.6666666666657874
163 0.3333333333347207 1 0.8333333333328936
164 0.1666666666673604 1 0.1666666666663209
165 0.1666666666673604 1 0.333333333332501
166 0.1666666666673604 1 0.499999999998692
167 0.1666666666673604 1 0.6666666666657874
168 0.1666666666673604 1 0.8333333333328937
169 0 0.833333333333102 0.1666666666663209
170 0 0.8333333333331022 0.333333333332501
171 0 0.833333333333102 0.499999999998692
172 0 0.8333333333331018 0.6666666666657874
173 0 0.833333333333102 0.8333333333328937
174 0 0.6666666666675918 0.1666666666663209
175 0 0.6666666666675918 0.333333333332501
176 0 0.6666666666675918 0.499999999998692
177 0 0.6666666666675918 0.6666666666657874
178 0 0.6666666666675918 0.8333333333328937
179 0 0.5000000000020595 0.1666666666663209
180 0 0.5000000000020595 0.333333333332501
181 0 0.5000000000020595 0.499999999998692
182 0 0.5000000000020595 0.6666666666657874
183 0 0.5000000000020595 0.8333333333328937
184 0 0.3333333333347207 0.1666666666663209
185 0 0.3333333333347207 0.333333333332501
186 0 0.3333333333347207 0.499999999998692
187 0 0.3333333333347207 0.6666666666657874
188 0 0.3333333333347207 0.8333333333328936
189 0 0.1666666666673604 0.1666666666663209
190 0 0.1666666666673604 0.333333333332501
191 0 0.1666666666673604 0.499999999998692
192 0 0.1666666666673604 0.6666666666657874
193 0 0.1666666666673604 0.8333333333328937
194 1 0.1666666666663209 0.1666666666663209
195 1 0.1666666666663209 0.333333333332501
196 1 0.1666666666663209 0.499999999998692
197 1 0.1666666666663209 0.6666666666657874
198 1 0.1666666666663209 0.8333333333328937
199 1 0.333333333332501 0.1666666666663209
200 1 0.333333333332501 0.333333333332501
201 1 0.333333333332501 0.499999999998692
202 1 0.333333333332501 0.6666666666657874
203 1 0.333333333332501 0.8333333333328937
204 1 0.499999999998692 0.1666666666663209
205 1 0.499999999998692 0.333333333332501
206 1 0.499999999998692 0.499999999998692
207 1 0.499999999998692 0.6666666666657874
208 1 0.499999999998692 0.8333333333328937
209 1 0.6666666666657874 0.1666666666663209
210 1 0.6666666666657874 0.333333333332501
211 1 0.6666666666657874 0.499999999998692
212 1 0.6666666666657874 0.6666666666657874
213 1 0.6666666666657874 0.8333333333328938
214 1 0.8333333333328935 0.1666666666663209
215 1 0.8333333333328937 0.333333333332501
216 1 0.8333333333328937 0.499999999998692
217 1 0.8333333333328938 0.6666666666657874
218 1 0.8333333333328937 0.8333333333328937
219 0.1050186923686117 0.1099605169133144 0.3995978021006967
220 0.08858681386700074 0.4289280820267064 0.09269584215195138
221 0.08362483876286737 0.08401689343643877 0.2602216456671311
222 0.150533535545902 0.59594454713081 0.09830807408291735
223 0.08099814015777394 0.7521424635067019 0.08099814015748912
224 0.08331848078008883 0.9116203906267657 0.2426010171726121
225 0.9005548113222529 0.9202224917530903 0.7473880941352539
226 0.2582908098539387 0.8919596651733224 0.891959665173215
227 0.199855423517797 0.135678094346748 0.6149499150951132
228 0.421851978142659 0.1896691634628908 0.967556252545325
229 0.5796403913868107 0.1010149939406271 0.8959593991598997
230 0.8813320294768406 0.4199062405659972 0.8340142157379808
231 0.5832520017956814 0.9511246706781691 0.9509620075994056
232 0.7499186684611734 0.951124670678359 0.9509620075994203
233 0.8947448462329921 0.8985854659645622 0.4268911468650042
234 0.864917686377091 0.8041836623040105 0.5826610781227374
235 0.9444444444443625 0.9166666666664497 0.05555555555544222
236 0.8584580255920704 0.4286319793687556 0.198014745379896
237 0.896185828541718 0.1094999382752843 0.5888551126206182
238 0.9189558056648985 0.08104419433483814 0.4181410968678475
239 0.102699489117305 0.1149104180040289 0.7477699217023809
240 0.5298159149051689 0.5298159149059096 0.5833333333322398
241 0.6610251210898679 0.5855529755980664 0.2545317244445059
242 0.2670346606066868 0.3433951474803434 0.7360543070789127
243 0.5591588204214992 0.2698060446463696 0.7103879107072926
244 0.7028207685124523 0.539097628176664 0.7264103842558713
245 0.6994530612926674 0.84658087125711 0.7304611432965246
246 0.3479803386878263 0.3479803386877287 0.3479803386878262
247 0.2993035167055975 0.6960907258932795 0.348607033411334
248 0.7174276871663365 0.303911514620878 0.282572312833429
249 0.7045178985860252 0.7294983474257308 0.4831695027650422
250 0.302111244301482 0.6978887556987347 0.6978887556985527
251 0.7901018203534169 0.2708577173870921 0.7499999999993405
252 0.2208554555702892 0.2533153146001645 0.5228517660111791
253 0.2160377849918295 0.5071725704335988 0.2463679962819232
254 0.2565158405780357 0.5089764807618533 0.5279091006992824
255 0.2061484485758985 0.2061484485756523 0.2467798304741185
256 0.7494581379447598 0.3871158334379745 0.5240081530147461
257 0.5485359297240434 0.2440713861770152 0.4598636952505764
258 0.4633741168722714 0.7579292722072932 0.520729809081672
259 0.500873911362076 0.7666564158228312 0.2333435841774384
260 0.8082614059548722 0.191738594045246 0.4293649347569453
261 0.3861957162763329 0.1838524367895058 0.7689808561854594
262 0.1915483083432685 0.7684689622880414 0.1915483083434114
263 0.4446050873366266 0.5147758412055827 0.2226569417354222
$EndNodes
$Elements
1236
1 2 2 1 1 1 9 28
2 2 2 1 1 13 2 89
3 2 2 1 1 89 2 14
4 2 2 1 1 19 18 3
5 2 2 1 1 4 73 23
6 2 2 1 1 24 73 4
7 2 2 1 1 9 10 69
8 2 2 1 1 28 9 69
9 2 2 1 1 10 11 74
10 2 2 1 1 69 10 74
11 2 2 1 1 11 12 79
12 2 2 1 1 74 11 79
13 2 2 1 1 12 13 84
14 2 2 1 1 79 12 84
15 2 2 1 1 84 13 89
16 2 2 1 1 90 14 15
17 2 2 1 1 89 14 90
18 2 2 1 1 91 15 16
19 2 2 1 1 90 15 91
20 2 2 1 1 92 16 17
21 2 2 1 1 91 16 92
22 2 2 1 1 93 17 18
23 2 2 1 1 92 17 93
24 2 2 1 1 93 18 19
25 2 2 1 1 20 93 19
26 2 2 1 1 21 88 20
27 2 2 1 1 88 93 20
28 2 2 1 1 22 83 21
29 2 2 1 1 83 88 21
30 2 2 1 1 23 78 22
31 2 2 1 1 78 83 22
32 2 2 1 1 73 78 23
33 2 2 1 1 25 72 24
34 2 2 1 1 24 72 73
35 2 2 1 1 26 71 25
36 2 2 1 1 25 71 72
37 2 2 1 1 27 70 26
38 2 2 1 1 26 70 71
39 2 2 1 1 28 69 27
40 2 2 1 1 27 69 70
41 2 2 1 1 69 74 70
42 2 2 1 1 70 75 71
43 2 2 1 1 70 74 75
44 2 2 1 1 71 76 72
45 2 2 1 1 71 75 76
46 2 2 1 1 72 77 73
47 2 2 1 1 72 76 77
48 2 2 1 1 73 77 78
49 2 2 1 1 74 79 75
50 2 2 1 1 75 80 76
51 2 2 1 1 75 79 80
52 2 2 1 1 76 81 77
53 2 2 1 1 76 80 81
54 2 2 1 1 77 82 78
55 2 2 1 1 77 81 82
56 2 2 1 1 78 82 83
57 2 2 1 1 79 84 80
58 2 2 1 1 80 85 81
59 2 2 1 1 80 84 85
60 2 2 1 1 81 86 82
61 2 2 1 1 81 85 86
62 2 2 1 1 82 87 83
63 2 2 1 1 82 86 87
64 2 2 1 1 83 87 88
65 2 2 1 1 84 89 85
66 2 2 1 1 85 90 86
67 2 2 1 1 85 89 90
68 2 2 1 1 86 91 87
69 2 2 1 1 86 90 91
70 2 2 1 1 87 92 88
71 2 2 1 1 87 91 92
72 2 2 1 1 88 92 93
73 2 2 1 2 5 29 48
74 2 2 1 2 33 6 114
75 2 2 1 2 114 6 34
76 2 2 1 2 39 38 7
77 2 2 1 2 8 98 43
78 2 2 1 2 44 98 8
79 2 2 1 2 29 30 94
80 2 2 1 2 48 29 94
81 2 2 1 2 30 31 99
82 2 2 1 2 94 30 99
83 2 2 1 2 31 32 104
84 2 2 1 2 99 31 104
85 2 2 1 2 32 33 109
86 2 2 1 2 104 32 109
87 2 2 1 2 109 33 114
88 2 2 1 2 115 34 35
89 2 2 1 2 114 34 115
90 2 2 1 2 116 35 36
91 2 2 1 2 115 35 116
92 2 2 1 2 117 36 37
93 2 2 1 2 116 36 117
94 2 2 1 2 118 37 38
95 2 2 1 2 117 37 118
96 2 2 1 2 118 38 39
97 2 2 1 2 40 118 39
98 2 2 1 2 41 113 40
99 2 2 1 2 113 118 40
100 2 2 1 2 42 108 41
101 2 2 1 2 108 113 41
102 2 2 1 2 43 103 42
103 2 2 1 2 103 108 42
104 2 2 1 2 98 103 43
105 2 2 1 2 45 97 44
106 2 2 1 2 44 97 98
107 2 2 1 2 46 96 45
108 2 2 1 2 45 96 97
109 2 2 1 2 47 95 46
110 2 2 1 2 46 95 96
111 2 2 1 2 48 94 47
112 2 2 1 2 47 94 95
113 2 2 1 2 94 99 95
114 2 2 1 2 95 100 96
115 2 2 1 2 95 99 100
116 2 2 1 2 96 101 97
117 2 2 1 2 96 100 101
118 2 2 1 2 97 102 98
119 2 2 1 2 97 101 102
120 2 2 1 2 98 102 103
121 2 2 1 2 99 104 100
122 2 2 1 2 100 105 101
123 2 2 1 2 100 104 105
124 2 2 1 2 101 106 102
125 2 2 1 2 101 105 106
126 2 2 1 2 102 107 103
127 2 2 1 2 102 106 107
128 2 2 1 2 103 107 108
129 2 2 1 2 104 109 105
130 2 2 1 2 105 110 106
131 2 2 1 2 105 109 110
132 2 2 1 2 106 111 107
133 2 2 1 2 106 110 111
134 2 2 1 2 107 112 108
135 2 2 1 2 107 111 112
136 2 2 1 2 108 112 113
137 2 2 1 2 109 114 110
138 2 2 1 2 110 115 111
139 2 2 1 2 110 114 115
140 2 2 1 2 111 116 112
141 2 2 1 2 111 115 116
142 2 2 1 2 112 117 113
143 2 2 1 2 112 116 117
144 2 2 1 2 113 117 118
145 2 2 1 3 1 9 49
146 2 2 1 3 13 2 139
147 2 2 1 3 139 2 54
148 2 2 1 3 5 123 29
149 2 2 1 3 53 123 5
150 2 2 1 3 33 58 6
151 2 2 1 3 9 10 119
152 2 2 1 3 49 9 119
153 2 2 1 3 10 11 124
154 2 2 1 3 119 10 124
155 2 2 1 3 11 12 129
156 2 2 1 3 124 11 129
157 2 2 1 3 12 13 134
158 2 2 1 3 129 12 134
159 2 2 1 3 134 13 139
160 2 2 1 3 29 128 30
161 2 2 1 3 123 128 29
162 2 2 1 3 30 133 31
163 2 2 1 3 128 133 30
164 2 2 1 3 31 138 32
165 2 2 1 3 133 138 31
166 2 2 1 3 32 143 33
167 2 2 1 3 138 143 32
168 2 2 1 3 143 58 33
169 2 2 1 3 49 119 50
170 2 2 1 3 50 120 51
171 2 2 1 3 50 119 120
172 2 2 1 3 51 121 52
173 2 2 1 3 51 120 121
174 2 2 1 3 52 122 53
175 2 2 1 3 52 121 122
176 2 2 1 3 53 122 123
177 2 2 1 3 140 54 55
178 2 2 1 3 139 54 140
179 2 2 1 3 141 55 56
180 2 2 1 3 140 55 141
181 2 2 1 3 142 56 57
182 2 2 1 3 141 56 142
183 2 2 1 3 143 57 58
184 2 2 1 3 142 57 143
185 2 2 1 3 119 124 120
186 2 2 1 3 120 125 121
187 2 2 1 3 120 124 125
188 2 2 1 3 121 126 122
189 2 2 1 3 121 125 126
190 2 2 1 3 122 127 123
191 2 2 1 3 122 126 127
192 2 2 1 3 123 127 128
193 2 2 1 3 124 129 125
194 2 2 1 3 125 130 126
195 2 2 1 3 125 129 130
196 2 2 1 3 126 131 127
197 2 2 1 3 126 130 131
198 2 2 1 3 127 132 128
199 2 2 1 3 127 131 132
200 2 2 1 3 128 132 133
201 2 2 1 3 129 134 130
202 2 2 1 3 130 135 131
203 2 2 1 3 130 134 135
204 2 2 1 3 131 136 132
205 2 2 1 3 131 135 136
206 2 2 1 3 132 137 133
207 2 2 1 3 132 136 137
208 2 2 1 3 133 137 138
209 2 2 1 3 134 139 135
210 2 2 1 3 135 140 136
211 2 2 1 3 135 139 140
212 2 2 1 3 136 141 137
213 2 2 1 3 136 140 141
214 2 2 1 3 137 142 138
215 2 2 1 3 137 141 142
216 2 2 1 3 138 142 143
217 2 2 1 4 3 19 59
218 2 2 1 4 23 4 164
219 2 2 1 4 164 4 64
220 2 2 1 4 7 148 39
221 2 2 1 4 63 148 7
222 2 2 1 4 43 68 8
223 2 2 1 4 19 20 144
224 2 2 1 4 59 19 144
225 2 2 1 4 20 21 149
226 2 2 1 4 144 20 149
227 2 2 1 4 21 22 154
228 2 2 1 4 149 21 154
229 2 2 1 4 22 23 159
230 2 2 1 4 154 22 159
231 2 2 1 4 159 23 164
232 2 2 1 4 39 153 40
233 2 2 1 4 148 153 39
234 2 2 1 4 40 158 41
235 2 2 1 4 153 158 40
236 2 2 1 4 41 163 42
237 2 2 1 4 158 163 41
238 2 2 1 4 42 168 43
239 2 2 1 4 163 168 42
240 2 2 1 4 168 68 43
241 2 2 1 4 59 144 60
242 2 2 1 4 60 145 61
243 2 2 1 4 60 144 145
244 2 2 1 4 61 146 62
245 2 2 1 4 61 145 146
246 2 2 1 4 62 147 63
247 2 2 1 4 62 146 147
248 2 2 1 4 63 147 148
249 2 2 1 4 165 64 65
250 2 2 1 4 164 64 165
251 2 2 1 4 166 65 66
252 2 2 1 4 165 65 166
253 2 2 1 4 167 66 67
254 2 2 1 4 166 66 167
255 2 2 1 4 168 67 68
256 2 2 1 4 167 67 168
257 2 2 1 4 144 149 145
258 2 2 1 4 145 150 146
259 2 2 1 4 145 149 150
260 2 2 1 4 146 151 147
261 2 2 1 4 146 150 151
262 2 2 1 4 147 152 148
263 2 2 1 4 147 151 152
264 2 2 1 4 148 152 153
265 2 2 1 4 149 154 150
266 2 2 1 4 150 155 151
267 2 2 1 4 150 154 155
268 2 2 1 4 151 156 152
269 2 2 1 4 151 155 156
270 2 2 1 4 152 157 153
271 2 2 1 4 152 156 157
272 2 2 1 4 153 157 158
273 2 2 1 4 154 159 155
274 2 2 1 4 155 160 156
275 2 2 1 4 155 159 160
276 2 2 1 4 156 161 157
277 2 2 1 4 156 160 161
278 2 2 1 4 157 162 158
279 2 2 1 4 157 161 162
280 2 2 1 4 158 162 163
281 2 2 1 4 159 164 160
282 2 2 1 4 160 165 161
283 2 2 1 4 160 164 165
284 2 2 1 4 161 166 162
285 2 2 1 4 161 165 166
286 2 2 1 4 162 167 163
287 2 2 1 4 162 166 167
288 2 2 1 4 163 167 168
289 2 2 1 5 28 1 189
290 2 2 1 5 189 1 49
291 2 2 1 5 4 24 64
292 2 2 1 5 48 53 5
293 2 2 1 5 8 173 44
294 2 2 1 5 68 173 8
295 2 2 1 5 24 25 169
296 2 2 1 5 64 24 169
297 2 2 1 5 25 26 174
298 2 2 1 5 169 25 174
299 2 2 1 5 26 27 179
300 2 2 1 5 174 26 179
301 2 2 1 5 27 28 184
302 2 2 1 5 179 27 184
303 2 2 1 5 184 28 189
304 2 2 1 5 44 178 45
305 2 2 1 5 173 178 44
306 2 2 1 5 45 183 46
307 2 2 1 5 178 183 45
308 2 2 1 5 46 188 47
309 2 2 1 5 183 188 46
310 2 2 1 5 47 193 48
311 2 2 1 5 188 193 47
312 2 2 1 5 193 53 48
313 2 2 1 5 190 49 50
314 2 2 1 5 189 49 190
315 2 2 1 5 191 50 51
316 2 2 1 5 190 50 191
317 2 2 1 5 192 51 52
318 2 2 1 5 191 51 192
319 2 2 1 5 193 52 53
320 2 2 1 5 192 52 193
321 2 2 1 5 64 169 65
322 2 2 1 5 65 170 66
323 2 2 1 5 65 169 170
324 2 2 1 5 66 171 67
325 2 2 1 5 66 170 171
326 2 2 1 5 67 172 68
327 2 2 1 5 67 171 172
328 2 2 1 5 68 172 173
329 2 2 1 5 169 174 170
330 2 2 1 5 170 175 171
331 2 2 1 5 170 174 175
332 2 2 1 5 171 176 172
333 2 2 1 5 171 175 176
334 2 2 1 5 172 177 173
335 2 2 1 5 172 176 177
336 2 2 1 5 173 177 178
337 2 2 1 5 174 179 175
338 2 2 1 5 175 180 176
339 2 2 1 5 175 179 180
340 2 2 1 5 176 181 177
341 2 2 1 5 176 180 181
342 2 2 1 5 177 182 178
343 2 2 1 5 177 181 182
344 2 2 1 5 178 182 183
345 2 2 1 5 179 184 180
346 2 2 1 5 180 185 181
347 2 2 1 5 180 184 185
348 2 2 1 5 181 186 182
349 2 2 1 5 181 185 186
350 2 2 1 5 182 187 183
351 2 2 1 5 182 186 187
352 2 2 1 5 183 187 188
353 2 2 1 5 184 189 185
354 2 2 1 5 185 190 186
355 2 2 1 5 185 189 190
356 2 2 1 5 186 191 187
357 2 2 1 5 186 190 191
358 2 2 1 5 187 192 188
359 2 2 1 5 187 191 192
360 2 2 1 5 188 192 193
361 2 2 1 6 2 14 54
362 2 2 1 6 18 3 214
363 2 2 1 6 214 3 59
364 2 2 1 6 6 198 34
365 2 2 1 6 58 198 6
366 2 2 1 6 38 63 7
367 2 2 1 6 14 15 194
368 2 2 1 6 54 14 194
369 2 2 1 6 15 16 199
370 2 2 1 6 194 15 199
371 2 2 1 6 16 17 204
372 2 2 1 6 199 16 204
373 2 2 1 6 17 18 209
374 2 2 1 6 204 17 209
375 2 2 1 6 209 18 214
376 2 2 1 6 34 203 35
377 2 2 1 6 198 203 34
378 2 2 1 6 35 208 36
379 2 2 1 6 203 208 35
380 2 2 1 6 36 213 37
381 2 2 1 6 208 213 36
382 2 2 1 6 37 218 38
383 2 2 1 6 213 218 37
384 2 2 1 6 218 63 38
385 2 2 1 6 54 194 55
386 2 2 1 6 55 195 56
387 2 2 1 6 55 194 195
388 2 2 1 6 56 196 57
389 2 2 1 6 56 195 196
390 2 2 1 6 57 197 58
391 2 2 1 6 57 196 197
392 2 2 1 6 58 197 198
393 2 2 1 6 215 59 60
394 2 2 1 6 214 59 215
395 2 2 1 6 216 60 61
396 2 2 1 6 215 60 216
397 2 2 1 6 217 61 62
398 2 2 1 6 216 61 217
399 2 2 1 6 218 62 63
400 2 2 1 6 217 62 218
401 2 2 1 6 194 199 195
402 2 2 1 6 195 200 196
403 2 2 1 6 195 199 200
404 2 2 1 6 196 201 197
405 2 2 1 6 196 200 201
406 2 2 1 6 197 202 198
407 2 2 1 6 197 201 202
408 2 2 1 6 198 202 203
409 2 2 1 6 199 204 200
410 2 2 1 6 200 205 201
411 2 2 1 6 200 204 205
412 2 2 1 6 201 206 202
413 2 2 1 6 201 205 206
414 2 2 1 6 202 207 203
415 2 2 1 6 202 206 207
416 2 2 1 6 203 207 208
417 2 2 1 6 204 209 205
418 2 2 1 6 205 210 206
419 2 2 1 6 205 209 210
420 2 2 1 6 206 211 207
421 2 2 1 6 206 210 211
422 2 2 1 6 207 212 208
423 2 2 1 6 207 211 212
424 2 2 1 6 208 212 213
425 2 2 1 6 209 214 210
426 2 2 1 6 210 215 211
427 2 2 1 6 210 214 215
428 2 2 1 6 211 216 212
429 2 2 1 6 211 215 216
430 2 2 1 6 212 217 213
431 2 2 1 6 212 216 217
432 2 2 1 6 213 217 218
433 4 2 1 1 107 245 244 250
434 4 2 1 1 145 144 215 241
435 4 2 1 1 144 214 215 241
436 4 2 1 1 215 145 241 249
437 4 2 1 1 79 246 129 248
438 4 2 1 1 150 241 145 249
439 4 2 1 1 244 245 240 250
440 4 2 1 1 129 248 246 257
441 4 2 1 1 145 150 149 241
442 4 2 1 1 149 144 145 241
443 4 2 1 1 144 93 214 241
444 4 2 1 1 240 242 101 250
445 4 2 1 1 101 240 106 242
446 4 2 1 1 101 106 240 250
447 4 2 1 1 80 246 79 248
448 4 2 1 1 88 144 149 241
449 4 2 1 1 88 93 144 241
450 4 2 1 1 236 241 91 248
451 4 2 1 1 107 108 245 250
452 4 2 1 1 245 240 250 258
453 4 2 1 1 205 241 236 248
454 4 2 1 1 106 242 240 243
455 4 2 1 1 240 252 242 254
456 4 2 1 1 240 252 254 257
457 4 2 1 1 240 242 252 257
458 4 2 1 1 158 245 108 250
459 4 2 1 1 149 241 150 259
460 4 2 1 1 122 239 123 242
461 4 2 1 1 215 214 210 241
462 4 2 1 1 214 209 210 241
463 4 2 1 1 227 252 242 261
464 4 2 1 1 210 215 241 249
465 4 2 1 1 98 168 226 250
466 4 2 1 1 129 246 130 257
467 4 2 1 1 193 123 239 242
468 4 2 1 1 211 212 234 249
469 4 2 1 1 122 192 239 242
470 4 2 1 1 93 209 214 241
471 4 2 1 1 92 209 93 241
472 4 2 1 1 241 249 150 259
473 4 2 1 1 79 129 246 255
474 4 2 1 1 104 99 100 228
475 4 2 1 1 105 104 100 228
476 4 2 1 1 203 208 207 230
477 4 2 1 1 72 76 77 222
478 4 2 1 1 71 76 72 222
479 4 2 1 1 149 88 241 259
480 4 2 1 1 246 254 252 257
481 4 2 1 1 157 245 158 250
482 4 2 1 1 246 248 80 263
483 4 2 1 1 193 239 192 242
484 4 2 1 1 98 226 103 250
485 4 2 1 1 91 236 204 241
486 4 2 1 1 240 241 257 263
487 4 2 1 1 215 233 145 249
488 4 2 1 1 205 249 241 256
489 4 2 1 1 171 247 166 250
490 4 2 1 1 163 226 168 250
491 4 2 1 1 79 74 129 255
492 4 2 1 1 129 74 124 255
493 4 2 1 1 129 130 248 257
494 4 2 1 1 204 236 205 241
495 4 2 1 1 205 206 249 256
496 4 2 1 1 90 236 91 248
497 4 2 1 1 106 243 240 244
498 4 2 1 1 157 245 250 258
499 4 2 1 1 227 242 122 261
500 4 2 1 1 240 241 256 257
501 4 2 1 1 240 243 242 257
502 4 2 1 1 163 103 226 250
503 4 2 1 1 248 257 241 263
504 4 2 1 1 161 166 247 250
505 4 2 1 1 171 176 247 250
506 4 2 1 1 96 242 183 250
507 4 2 1 1 165 65 64 224
508 4 2 1 1 164 165 64 224
509 4 2 1 1 59 3 214 235
510 4 2 1 1 3 18 214 235
511 4 2 1 1 109 32 104 229
512 4 2 1 1 104 32 31 229
513 4 2 1 1 148 147 63 225
514 4 2 1 1 147 62 63 225
515 4 2 1 1 60 61 145 233
516 4 2 1 1 61 146 145 233
517 4 2 1 1 42 168 163 226
518 4 2 1 1 43 168 42 226
519 4 2 1 1 197 196 57 237
520 4 2 1 1 57 196 56 237
521 4 2 1 1 50 49 190 221
522 4 2 1 1 49 189 190 221
523 4 2 1 1 190 191 50 219
524 4 2 1 1 70 71 26 220
525 4 2 1 1 191 51 50 219
526 4 2 1 1 26 27 70 220
527 4 2 1 1 25 72 24 223
528 4 2 1 1 72 73 24 223
529 4 2 1 1 123 122 53 239
530 4 2 1 1 122 52 53 239
531 4 2 1 1 141 55 140 238
532 4 2 1 1 56 55 141 238
533 4 2 1 1 215 216 233 249
534 4 2 1 1 248 256 241 257
535 4 2 1 1 106 105 242 243
536 4 2 1 1 125 130 129 246
537 4 2 1 1 79 80 75 246
538 4 2 1 1 210 241 205 249
539 4 2 1 1 207 230 244 251
540 4 2 1 1 142 251 237 260
541 4 2 1 1 234 245 146 249
542 4 2 1 1 107 112 244 245
543 4 2 1 1 161 250 247 258
544 4 2 1 1 77 222 253 262
545 4 2 1 1 217 234 212 245
546 4 2 1 1 108 158 231 245
547 4 2 1 1 206 244 249 256
548 4 2 1 1 206 244 211 249
549 4 2 1 1 240 257 246 263
550 4 2 1 1 106 102 107 250
551 4 2 1 1 101 102 106 250
552 4 2 1 1 126 257 252 261
553 4 2 1 1 210 205 206 249
554 4 2 1 1 210 206 211 249
555 4 2 1 1 237 251 197 260
556 4 2 1 1 146 145 233 249
557 4 2 1 1 240 254 246 257
558 4 2 1 1 183 242 182 250
559 4 2 1 1 205 236 200 248
560 4 2 1 1 101 242 96 250
561 4 2 1 1 241 240 258 263
562 4 2 1 1 88 87 92 241
563 4 2 1 1 92 93 88 241
564 4 2 1 1 126 227 127 252
565 4 2 1 1 219 252 120 255
566 4 2 1 1 211 244 212 249
567 4 2 1 1 134 84 129 248
568 4 2 1 1 84 79 129 248
569 4 2 1 1 217 146 234 245
570 4 2 1 1 247 250 176 254
571 4 2 1 1 211 234 216 249
572 4 2 1 1 240 254 247 263
573 4 2 1 1 163 158 108 250
574 4 2 1 1 103 163 108 250
575 4 2 1 1 167 172 171 250
576 4 2 1 1 171 166 167 250
577 4 2 1 1 178 97 183 250
578 4 2 1 1 96 183 97 250
579 4 2 1 1 227 127 252 261
580 4 2 1 1 109 138 229 243
581 4 2 1 1 247 258 240 263
582 4 2 1 1 182 250 242 254
583 4 2 1 1 258 259 241 263
584 4 2 1 1 241 248 205 256
585 4 2 1 1 146 233 216 249
586 4 2 1 1 190 252 219 255
587 4 2 1 1 211 206 207 244
588 4 2 1 1 207 212 211 244
589 4 2 1 1 211 212 216 234
590 4 2 1 1 212 217 216 234
591 4 2 1 1 185 252 246 254
592 4 2 1 1 126 246 252 257
593 4 2 1 1 208 230 116 244
594 4 2 1 1 77 222 76 253
595 4 2 1 1 70 220 184 253
596 4 2 1 1 240 246 254 263
597 4 2 1 1 213 244 117 245
598 4 2 1 1 243 251 137 260
599 4 2 1 1 121 120 219 252
600 4 2 1 1 111 243 106 244
601 4 2 1 1 146 216 234 249
602 4 2 1 1 130 135 134 248
603 4 2 1 1 134 129 130 248
604 4 2 1 1 240 242 250 254
605 4 2 1 1 243 137 257 260
606 4 2 1 1 126 246 125 252
607 4 2 1 1 108 231 113 245
608 4 2 1 1 86 85 248 263
609 4 2 1 1 86 248 241 263
610 4 2 1 1 245 249 240 258
611 4 2 1 1 111 110 106 243
612 4 2 1 1 105 106 110 243
613 4 2 1 1 185 246 253 254
614 4 2 1 1 104 109 229 243
615 4 2 1 1 241 240 249 258
616 4 2 1 1 104 229 133 243
617 4 2 1 1 212 244 213 245
618 4 2 1 1 101 106 105 242
619 4 2 1 1 105 100 101 242
620 4 2 1 1 85 80 248 263
621 4 2 1 1 241 249 240 256
622 4 2 1 1 240 245 244 249
623 4 2 1 1 110 243 111 244
624 4 2 1 1 136 257 137 260
625 4 2 1 1 185 186 252 254
626 4 2 1 1 133 229 138 243
627 4 2 1 1 247 259 258 263
628 4 2 1 1 126 131 257 261
629 4 2 1 1 246 257 248 263
630 4 2 1 1 197 237 142 251
631 4 2 1 1 90 199 236 248
632 4 2 1 1 126 252 127 261
633 4 2 1 1 147 146 217 245
634 4 2 1 1 243 256 251 260
635 4 2 1 1 176 172 177 250
636 4 2 1 1 103 108 107 250
637 4 2 1 1 171 172 176 250
638 4 2 1 1 107 102 103 250
639 4 2 1 1 158 162 157 250
640 4 2 1 1 162 158 163 250
641 4 2 1 1 101 97 102 250
642 4 2 1 1 161 162 166 250
643 4 2 1 1 167 166 162 250
644 4 2 1 1 101 96 97 250
645 4 2 1 1 182 177 178 250
646 4 2 1 1 178 183 182 250
647 4 2 1 1 207 244 206 256
648 4 2 1 1 80 79 84 248
649 4 2 1 1 84 85 80 248
650 4 2 1 1 185 253 180 254
651 4 2 1 1 243 257 256 260
652 4 2 1 1 98 173 168 250
653 4 2 1 1 125 246 126 257
654 4 2 1 1 165 166 170 247
655 4 2 1 1 171 170 166 247
656 4 2 1 1 105 228 100 261
657 4 2 1 1 190 191 219 252
658 4 2 1 1 132 257 131 261
659 4 2 1 1 208 207 230 244
660 4 2 1 1 75 246 80 263
661 4 2 1 1 218 225 217 245
662 4 2 1 1 135 248 130 257
663 4 2 1 1 107 108 112 245
664 4 2 1 1 112 108 113 245
665 4 2 1 1 126 127 131 261
666 4 2 1 1 127 132 131 261
667 4 2 1 1 142 237 141 260
668 4 2 1 1 173 97 178 250
669 4 2 1 1 98 97 173 250
670 4 2 1 1 168 173 172 250
671 4 2 1 1 168 172 167 250
672 4 2 1 1 196 237 197 260
673 4 2 1 1 117 244 112 245
674 4 2 1 1 105 242 243 261
675 4 2 1 1 94 123 193 242
676 4 2 1 1 125 252 246 255
677 4 2 1 1 130 246 125 257
678 4 2 1 1 210 209 205 241
679 4 2 1 1 205 209 204 241
680 4 2 1 1 104 228 105 243
681 4 2 1 1 123 122 242 261
682 4 2 1 1 213 118 218 245
683 4 2 1 1 118 213 117 245
684 4 2 1 1 175 253 247 254
685 4 2 1 1 91 241 86 248
686 4 2 1 1 241 258 249 259
687 4 2 1 1 105 243 228 261
688 4 2 1 1 94 123 242 261
689 4 2 1 1 92 204 209 241
690 4 2 1 1 204 92 91 241
691 4 2 1 1 150 249 151 258
692 4 2 1 1 127 227 122 261
693 4 2 1 1 180 253 175 254
694 4 2 1 1 148 225 218 245
695 4 2 1 1 81 85 86 263
696 4 2 1 1 80 85 81 263
697 4 2 1 1 222 174 253 262
698 4 2 1 1 137 251 142 260
699 4 2 1 1 104 228 243 261
700 4 2 1 1 246 253 75 255
701 4 2 1 1 247 253 77 263
702 4 2 1 1 191 192 227 252
703 4 2 1 1 75 253 246 263
704 4 2 1 1 243 244 110 251
705 4 2 1 1 87 241 88 259
706 4 2 1 1 77 253 247 262
707 4 2 1 1 155 150 151 258
708 4 2 1 1 156 155 151 258
709 4 2 1 1 240 247 254 258
710 4 2 1 1 70 71 220 253
711 4 2 1 1 217 212 213 245
712 4 2 1 1 218 217 213 245
713 4 2 1 1 243 257 132 261
714 4 2 1 1 185 180 181 254
715 4 2 1 1 185 181 186 254
716 4 2 1 1 194 89 139 248
717 4 2 1 1 134 139 84 248
718 4 2 1 1 89 84 139 248
719 4 2 1 1 205 248 200 256
720 4 2 1 1 139 194 248 260
721 4 2 1 1 246 252 185 255
722 4 2 1 1 177 176 250 254
723 4 2 1 1 70 75 253 255
724 4 2 1 1 86 85 90 248
725 4 2 1 1 90 91 86 248
726 4 2 1 1 107 112 111 244
727 4 2 1 1 111 106 107 244
728 4 2 1 1 195 194 140 260
729 4 2 1 1 139 140 194 260
730 4 2 1 1 165 160 161 247
731 4 2 1 1 161 166 165 247
732 4 2 1 1 177 250 182 254
733 4 2 1 1 175 247 176 254
734 4 2 1 1 242 252 187 254
735 4 2 1 1 240 249 244 256
736 4 2 1 1 40 153 39 232
737 4 2 1 1 39 153 148 232
738 4 2 1 1 153 40 158 231
739 4 2 1 1 41 158 40 231
740 4 2 1 1 247 77 259 263
741 4 2 1 1 200 236 199 248
742 4 2 1 1 40 118 113 232
743 4 2 1 1 41 40 113 231
744 4 2 1 1 39 118 40 232
745 4 2 1 1 108 41 113 231
746 4 2 1 1 121 219 191 252
747 4 2 1 1 157 250 162 258
748 4 2 1 1 171 176 175 247
749 4 2 1 1 171 175 170 247
750 4 2 1 1 162 250 161 258
751 4 2 1 1 105 100 242 261
752 4 2 1 1 151 249 245 258
753 4 2 1 1 117 213 116 244
754 4 2 1 1 208 116 213 244
755 4 2 1 1 147 217 225 245
756 4 2 1 1 187 252 186 254
757 4 2 1 1 194 199 90 248
758 4 2 1 1 90 89 194 248
759 4 2 1 1 173 178 177 250
760 4 2 1 1 102 97 98 250
761 4 2 1 1 173 177 172 250
762 4 2 1 1 98 103 102 250
763 4 2 1 1 167 162 163 250
764 4 2 1 1 168 167 163 250
765 4 2 1 1 148 118 232 245
766 4 2 1 1 160 258 247 259
767 4 2 1 1 175 176 180 254
768 4 2 1 1 176 181 180 254
769 4 2 1 1 184 220 179 253
770 4 2 1 1 179 222 174 253
771 4 2 1 1 185 253 246 255
772 4 2 1 1 125 120 252 255
773 4 2 1 1 247 259 77 262
774 4 2 1 1 210 211 215 249
775 4 2 1 1 211 216 215 249
776 4 2 1 1 207 251 244 256
777 4 2 1 1 121 227 126 252
778 4 2 1 1 155 258 160 259
779 4 2 1 1 170 165 247 262
780 4 2 1 1 104 133 228 261
781 4 2 1 1 151 245 152 258
782 4 2 1 1 188 95 94 242
783 4 2 1 1 94 193 188 242
784 4 2 1 1 160 259 247 262
785 4 2 1 1 160 159 259 262
786 4 2 1 1 197 251 202 260
787 4 2 1 1 251 256 202 260
788 4 2 1 1 130 125 126 257
789 4 2 1 1 126 131 130 257
790 4 2 1 1 70 253 184 255
791 4 2 1 1 125 120 121 252
792 4 2 1 1 121 126 125 252
793 4 2 1 1 76 253 75 263
794 4 2 1 1 134 135 139 248
795 4 2 1 1 121 191 227 252
796 4 2 1 1 201 202 256 260
797 4 2 1 1 138 243 109 251
798 4 2 1 1 113 232 118 245
799 4 2 1 1 250 254 247 258
800 4 2 1 1 117 112 113 245
801 4 2 1 1 113 118 117 245
802 4 2 1 1 152 245 157 258
803 4 2 1 1 132 243 137 257
804 4 2 1 1 207 202 251 256
805 4 2 1 1 141 136 137 260
806 4 2 1 1 137 142 141 260
807 4 2 1 1 197 202 201 260
808 4 2 1 1 197 201 196 260
809 4 2 1 1 156 151 152 258
810 4 2 1 1 152 157 156 258
811 4 2 1 1 182 242 187 254
812 4 2 1 1 161 247 160 258
813 4 2 1 1 212 207 208 244
814 4 2 1 1 208 213 212 244
815 4 2 1 1 170 224 165 262
816 4 2 1 1 96 95 183 242
817 4 2 1 1 183 95 188 242
818 4 2 1 1 187 242 192 252
819 4 2 1 1 153 231 158 245
820 4 2 1 1 159 78 259 262
821 4 2 1 1 136 131 132 257
822 4 2 1 1 132 137 136 257
823 4 2 1 1 99 100 228 261
824 4 2 1 1 151 146 245 249
825 4 2 1 1 99 94 242 261
826 4 2 1 1 146 151 150 249
827 4 2 1 1 150 145 146 249
828 4 2 1 1 243 240 256 257
829 4 2 1 1 240 254 250 258
830 4 2 1 1 186 181 182 254
831 4 2 1 1 182 187 186 254
832 4 2 1 1 78 77 259 262
833 4 2 1 1 192 187 188 242
834 4 2 1 1 188 193 192 242
835 4 2 1 1 76 222 71 253
836 4 2 1 1 76 77 253 263
837 4 2 1 1 109 243 110 251
838 4 2 1 1 85 84 89 248
839 4 2 1 1 90 85 89 248
840 4 2 1 1 190 185 252 255
841 4 2 1 1 185 184 253 255
842 4 2 1 1 138 137 243 251
843 4 2 1 1 95 100 99 242
844 4 2 1 1 99 94 95 242
845 4 2 1 1 105 110 109 243
846 4 2 1 1 105 109 104 243
847 4 2 1 1 205 200 201 256
848 4 2 1 1 201 206 205 256
849 4 2 1 1 179 71 222 253
850 4 2 1 1 240 244 243 256
851 4 2 1 1 203 115 230 251
852 4 2 1 1 217 146 216 234
853 4 2 1 1 160 247 165 262
854 4 2 1 1 200 256 248 260
855 4 2 1 1 114 143 109 251
856 4 2 1 1 143 138 109 251
857 4 2 1 1 91 199 204 236
858 4 2 1 1 199 91 90 236
859 4 2 1 1 192 122 121 227
860 4 2 1 1 121 191 192 227
861 4 2 1 1 42 103 43 226
862 4 2 1 1 43 103 98 226
863 4 2 1 1 63 62 218 225
864 4 2 1 1 218 62 217 225
865 4 2 1 1 195 55 56 238
866 4 2 1 1 196 195 56 238
867 4 2 1 1 215 216 60 233
868 4 2 1 1 61 60 216 233
869 4 2 1 1 193 52 192 239
870 4 2 1 1 53 52 193 239
871 4 2 1 1 3 19 18 235
872 4 2 1 1 19 93 18 235
873 4 2 1 1 142 56 141 237
874 4 2 1 1 142 57 56 237
875 4 2 1 1 31 138 133 229
876 4 2 1 1 32 138 31 229
877 4 2 1 1 184 27 179 220
878 4 2 1 1 179 27 26 220
879 4 2 1 1 25 169 174 223
880 4 2 1 1 50 120 119 221
881 4 2 1 1 119 49 50 221
882 4 2 1 1 24 169 25 223
883 4 2 1 1 121 120 51 219
884 4 2 1 1 51 120 50 219
885 4 2 1 1 65 170 169 224
886 4 2 1 1 64 65 169 224
887 4 2 1 1 76 71 75 253
888 4 2 1 1 70 75 71 253
889 4 2 1 1 244 251 243 256
890 4 2 1 1 135 248 257 260
891 4 2 1 1 118 148 218 245
892 4 2 1 1 179 220 71 253
893 4 2 1 1 155 156 160 258
894 4 2 1 1 161 160 156 258
895 4 2 1 1 94 128 123 261
896 4 2 1 1 99 128 94 261
897 4 2 1 1 111 112 116 244
898 4 2 1 1 117 116 112 244
899 4 2 1 1 104 243 133 261
900 4 2 1 1 177 181 176 254
901 4 2 1 1 177 182 181 254
902 4 2 1 1 82 259 77 263
903 4 2 1 1 187 182 183 242
904 4 2 1 1 183 188 187 242
905 4 2 1 1 170 247 175 262
906 4 2 1 1 247 253 175 262
907 4 2 1 1 96 101 100 242
908 4 2 1 1 100 95 96 242
909 4 2 1 1 87 86 91 241
910 4 2 1 1 92 87 91 241
911 4 2 1 1 82 241 259 263
912 4 2 1 1 99 242 100 261
913 4 2 1 1 186 190 185 252
914 4 2 1 1 186 191 190 252
915 4 2 1 1 153 113 231 245
916 4 2 1 1 133 137 132 243
917 4 2 1 1 133 138 137 243
918 4 2 1 1 138 142 137 251
919 4 2 1 1 142 138 143 251
920 4 2 1 1 174 222 72 262
921 4 2 1 1 86 87 82 241
922 4 2 1 1 154 78 83 259
923 4 2 1 1 159 78 154 259
924 4 2 1 1 164 165 224 262
925 4 2 1 1 149 83 88 259
926 4 2 1 1 154 83 149 259
927 4 2 1 1 174 175 253 262
928 4 2 1 1 200 201 256 260
929 4 2 1 1 147 152 151 245
930 4 2 1 1 151 146 147 245
931 4 2 1 1 82 241 87 259
932 4 2 1 1 147 225 148 245
933 4 2 1 1 77 72 222 262
934 4 2 1 1 153 232 113 245
935 4 2 1 1 135 257 136 260
936 4 2 1 1 198 197 143 251
937 4 2 1 1 142 143 197 251
938 4 2 1 1 128 228 133 261
939 4 2 1 1 206 201 202 256
940 4 2 1 1 207 206 202 256
941 4 2 1 1 123 128 127 261
942 4 2 1 1 123 127 122 261
943 4 2 1 1 80 81 76 263
944 4 2 1 1 76 75 80 263
945 4 2 1 1 119 189 221 255
946 4 2 1 1 161 156 157 258
947 4 2 1 1 157 162 161 258
948 4 2 1 1 198 143 114 251
949 4 2 1 1 195 140 238 260
950 4 2 1 1 75 70 74 255
951 4 2 1 1 69 74 70 255
952 4 2 1 1 78 77 82 259
953 4 2 1 1 82 83 78 259
954 4 2 1 1 155 160 159 259
955 4 2 1 1 159 154 155 259
956 4 2 1 1 196 141 237 260
957 4 2 1 1 154 149 150 259
958 4 2 1 1 83 87 88 259
959 4 2 1 1 150 155 154 259
960 4 2 1 1 83 82 87 259
961 4 2 1 1 160 165 164 262
962 4 2 1 1 159 160 164 262
963 4 2 1 1 99 228 128 261
964 4 2 1 1 110 115 114 251
965 4 2 1 1 114 109 110 251
966 4 2 1 1 180 185 184 253
967 4 2 1 1 184 179 180 253
968 4 2 1 1 184 189 69 255
969 4 2 1 1 69 70 184 255
970 4 2 1 1 69 119 124 255
971 4 2 1 1 69 124 74 255
972 4 2 1 1 198 114 203 251
973 4 2 1 1 114 115 203 251
974 4 2 1 1 164 224 169 262
975 4 2 1 1 131 135 130 257
976 4 2 1 1 135 131 136 257
977 4 2 1 1 174 72 223 262
978 4 2 1 1 133 243 132 261
979 4 2 1 1 170 169 224 262
980 4 2 1 1 191 186 187 252
981 4 2 1 1 187 192 191 252
982 4 2 1 1 78 159 164 262
983 4 2 1 1 73 78 164 262
984 4 2 1 1 174 175 179 253
985 4 2 1 1 180 179 175 253
986 4 2 1 1 73 169 223 262
987 4 2 1 1 82 77 81 263
988 4 2 1 1 76 81 77 263
989 4 2 1 1 256 257 248 260
990 4 2 1 1 73 169 24 223
991 4 2 1 1 146 61 216 233
992 4 2 1 1 123 53 193 239
993 4 2 1 1 32 109 138 229
994 4 2 1 1 57 142 197 237
995 4 2 1 1 26 71 179 220
996 4 2 1 1 103 42 163 226
997 4 2 1 1 148 63 218 225
998 4 2 1 1 3 59 19 235
999 4 2 1 1 195 140 55 238
1000 4 2 1 1 164 64 169 224
1001 4 2 1 1 189 49 119 221
1002 4 2 1 1 141 196 238 260
1003 4 2 1 1 153 148 232 245
1004 4 2 1 1 119 221 120 255
1005 4 2 1 1 44 178 97 45
1006 4 2 1 1 98 8 173 44
1007 4 2 1 1 64 24 164 169
1008 4 2 1 1 149 83 21 88
1009 4 2 1 1 60 144 215 145
1010 4 2 1 1 149 20 144 88
1011 4 2 1 1 6 198 114 34
1012 4 2 1 1 34 203 115 35
1013 4 2 1 1 78 154 22 159
1014 4 2 1 1 144 60 215 59
1015 4 2 1 1 154 78 22 83
1016 4 2 1 1 169 73 24 164
1017 4 2 1 1 59 215 144 214
1018 4 2 1 1 194 90 199 15
1019 4 2 1 1 178 44 97 173
1020 4 2 1 1 140 195 55 194
1021 4 2 1 1 129 84 12 79
1022 4 2 1 1 84 129 12 134
1023 4 2 1 1 5 48 29 123
1024 4 2 1 1 198 6 114 58
1025 4 2 1 1 64 24 4 164
1026 4 2 1 1 21 20 149 88
1027 4 2 1 1 8 98 173 43
1028 4 2 1 1 83 149 21 154
1029 4 2 1 1 154 22 21 83
1030 4 2 1 1 46 183 96 95
1031 4 2 1 1 117 36 213 37
1032 4 2 1 1 39 38 148 7
1033 4 2 1 1 68 172 168 173
1034 4 2 1 1 67 171 167 172
1035 4 2 1 1 38 39 148 118
1036 4 2 1 1 94 30 128 99
1037 4 2 1 1 114 203 34 198
1038 4 2 1 1 49 9 189 119
1039 4 2 1 1 91 15 199 90
1040 4 2 1 1 173 68 8 43
1041 4 2 1 1 98 168 173 43
1042 4 2 1 1 54 140 55 194
1043 4 2 1 1 165 65 170 166
1044 4 2 1 1 204 92 209 17
1045 4 2 1 1 38 63 148 7
1046 4 2 1 1 54 14 139 194
1047 4 2 1 1 14 90 89 194
1048 4 2 1 1 147 62 217 146
1049 4 2 1 1 94 30 29 128
1050 4 2 1 1 48 94 29 123
1051 4 2 1 1 119 10 69 124
1052 4 2 1 1 218 118 38 148
1053 4 2 1 1 203 114 34 115
1054 4 2 1 1 139 140 54 194
1055 4 2 1 1 118 37 218 38
1056 4 2 1 1 213 118 37 218
1057 4 2 1 1 73 4 24 164
1058 4 2 1 1 198 143 58 114
1059 4 2 1 1 94 29 123 128
1060 4 2 1 1 14 90 194 15
1061 4 2 1 1 61 217 146 216
1062 4 2 1 1 63 38 148 218
1063 4 2 1 1 48 5 53 123
1064 4 2 1 1 217 61 146 62
1065 4 2 1 1 122 192 121 52
1066 4 2 1 1 118 213 37 117
1067 4 2 1 1 14 139 194 89
1068 4 2 1 1 166 66 171 167
1069 4 2 1 1 6 58 33 114
1070 4 2 1 1 172 67 168 167
1071 4 2 1 1 172 68 168 67
1072 4 2 1 1 168 68 173 43
1073 4 2 1 1 171 67 167 66
1074 4 2 1 1 208 116 35 36
1075 4 2 1 1 46 188 183 95
1076 4 2 1 1 46 188 95 47
1077 4 2 1 1 199 16 91 204
1078 4 2 1 1 129 12 11 79
1079 4 2 1 1 197 198 143 58
1080 4 2 1 1 18 214 93 209
1081 4 2 1 1 189 9 69 119
1082 4 2 1 1 33 143 109 114
1083 4 2 1 1 92 204 91 16
1084 4 2 1 1 173 98 44 97
1085 4 2 1 1 184 28 69 189
1086 4 2 1 1 15 91 199 16
1087 4 2 1 1 48 94 123 193
1088 4 2 1 1 42 108 103 163
1089 4 2 1 1 47 188 95 94
1090 4 2 1 1 124 11 10 74
1091 4 2 1 1 89 2 139 13
1092 4 2 1 1 13 134 84 12
1093 4 2 1 1 134 13 84 139
1094 4 2 1 1 66 170 65 166
1095 4 2 1 1 204 92 17 16
1096 4 2 1 1 47 188 94 193
1097 4 2 1 1 94 48 47 193
1098 4 2 1 1 33 58 143 114
1099 4 2 1 1 28 184 69 27
1100 4 2 1 1 13 84 139 89
1101 4 2 1 1 93 17 18 209
1102 4 2 1 1 20 93 144 88
1103 4 2 1 1 159 23 78 164
1104 4 2 1 1 14 54 139 2
1105 4 2 1 1 129 74 11 124
1106 4 2 1 1 109 32 143 33
1107 4 2 1 1 109 32 138 143
1108 4 2 1 1 10 69 124 74
1109 4 2 1 1 49 9 1 189
1110 4 2 1 1 23 159 78 22
1111 4 2 1 1 143 57 197 58
1112 4 2 1 1 143 57 142 197
1113 4 2 1 1 178 183 97 45
1114 4 2 1 1 10 119 69 9
1115 4 2 1 1 23 4 73 164
1116 4 2 1 1 28 9 189 1
1117 4 2 1 1 191 51 121 192
1118 4 2 1 1 123 53 48 193
1119 4 2 1 1 192 51 121 52
1120 4 2 1 1 41 108 163 158
1121 4 2 1 1 42 108 163 41
1122 4 2 1 1 66 171 170 166
1123 4 2 1 1 2 89 139 14
1124 4 2 1 1 36 208 116 213
1125 4 2 1 1 92 17 93 209
1126 4 2 1 1 73 78 23 164
1127 4 2 1 1 36 117 213 116
1128 4 2 1 1 28 9 69 189
1129 4 2 1 1 184 69 27 70
1130 4 2 1 1 74 129 11 79
1131 4 2 1 1 45 183 96 46
1132 4 2 1 1 96 97 183 45
1133 4 2 1 1 20 93 19 144
1134 4 2 1 1 69 189 119 255
1135 4 2 1 1 190 221 189 255
1136 4 2 1 1 157 152 153 245
1137 4 2 1 1 153 158 157 245
1138 4 2 1 1 153 40 113 232
1139 4 2 1 1 41 108 158 231
1140 4 2 1 1 40 153 113 231
1141 4 2 1 1 39 148 118 232
1142 4 2 1 1 73 164 169 262
1143 4 2 1 1 190 189 185 255
1144 4 2 1 1 185 189 184 255
1145 4 2 1 1 125 124 120 255
1146 4 2 1 1 120 124 119 255
1147 4 2 1 1 174 223 169 262
1148 4 2 1 1 215 60 145 233
1149 4 2 1 1 65 165 170 224
1150 4 2 1 1 174 72 25 223
1151 4 2 1 1 62 147 217 225
1152 4 2 1 1 31 133 104 229
1153 4 2 1 1 98 168 43 226
1154 4 2 1 1 56 141 196 238
1155 4 2 1 1 141 56 196 237
1156 4 2 1 1 51 191 121 219
1157 4 2 1 1 122 192 52 239
1158 4 2 1 1 214 18 93 235
1159 4 2 1 1 27 184 70 220
1160 4 2 1 1 198 203 202 251
1161 4 2 1 1 202 197 198 251
1162 4 2 1 1 195 238 196 260
1163 4 2 1 1 73 72 77 262
1164 4 2 1 1 77 78 73 262
1165 4 2 1 1 170 175 174 262
1166 4 2 1 1 174 169 170 262
1167 4 2 1 1 73 223 72 262
1168 4 2 1 1 136 140 135 260
1169 4 2 1 1 136 141 140 260
1170 4 2 1 1 196 200 195 260
1171 4 2 1 1 196 201 200 260
1172 4 2 1 1 141 238 140 260
1173 4 2 1 1 132 127 128 261
1174 4 2 1 1 128 133 132 261
1175 4 2 1 1 153 152 148 245
1176 4 2 1 1 148 152 147 245
1177 4 2 1 1 204 199 200 236
1178 4 2 1 1 122 127 126 227
1179 4 2 1 1 126 121 122 227
1180 4 2 1 1 205 204 200 236
1181 4 2 1 1 249 212 245 244
1182 4 2 1 1 249 245 212 234
1183 4 2 1 1 244 250 106 107
1184 4 2 1 1 106 250 244 240
1185 4 2 1 1 207 203 251 202
1186 4 2 1 1 251 203 207 230
1187 4 2 1 1 255 79 75 246
1188 4 2 1 1 255 75 79 74
1189 4 2 1 1 257 242 261 243
1190 4 2 1 1 257 261 242 252
1191 4 2 1 1 255 129 125 124
1192 4 2 1 1 255 125 129 246
1193 4 2 1 1 192 227 242 122
1194 4 2 1 1 192 242 227 252
1195 4 2 1 1 230 203 35 115
1196 4 2 1 1 35 203 230 208
1197 4 2 1 1 35 116 230 115
1198 4 2 1 1 230 116 35 208
1199 4 2 1 1 222 179 26 71
1200 4 2 1 1 222 26 179 174
1201 4 2 1 1 25 222 26 71
1202 4 2 1 1 25 26 222 174
1203 4 2 1 1 72 222 25 71
1204 4 2 1 1 72 25 222 174
1205 4 2 1 1 128 228 30 133
1206 4 2 1 1 30 228 128 99
1207 4 2 1 1 228 31 30 133
1208 4 2 1 1 30 31 228 99
1209 4 2 1 1 228 104 31 133
1210 4 2 1 1 31 104 228 99
1211 4 2 1 1 258 150 259 155
1212 4 2 1 1 258 259 150 249
1213 4 2 1 1 200 260 199 195
1214 4 2 1 1 200 199 260 248
1215 4 2 1 1 194 199 260 195
1216 4 2 1 1 194 260 199 248
1217 4 2 1 1 260 139 135 248
1218 4 2 1 1 260 135 139 140
1219 4 2 1 1 254 263 253 247
1220 4 2 1 1 253 263 254 246
1221 4 2 1 1 86 263 82 81
1222 4 2 1 1 82 263 86 241
1223 4 2 1 1 219 255 221 190
1224 4 2 1 1 221 255 219 120
1225 4 2 1 1 221 50 219 190
1226 4 2 1 1 219 50 221 120
1227 4 2 1 1 214 235 144 59
1228 4 2 1 1 214 144 235 93
1229 4 2 1 1 19 144 235 59
1230 4 2 1 1 19 235 144 93
1231 4 2 1 1 230 244 111 116
1232 4 2 1 1 111 115 230 116
1233 4 2 1 1 244 110 230 111
1234 4 2 1 1 244 230 110 251
1235 4 2 1 1 115 230 110 111
1236 4 2 1 1 115 110 230 251
$EndElements
